{
DisplayStrings = (
"&",
"a@",

glyphs = (
{
glyphname = exclam;
lastChange = "2015-06-14 21:07:22 +0000";
layers = (
{
layerId = "1FDD38BC-4CDE-4118-9AAB-E6BB464D5960";
name = Regular;
paths = (
{
closed = 1;
nodes = (
"174 228 LINE",
"174 717 LINE",
"106 717 LINE",
"106 228 LINE"
);
},
{
closed = 1;
nodes = (
"169 -7 OFFCURVE",
"193 17 OFFCURVE",
"193 46 CURVE SMOOTH",
"193 76 OFFCURVE",
"169 100 OFFCURVE",
"139 100 CURVE SMOOTH",
"110 100 OFFCURVE",
"86 76 OFFCURVE",
"86 46 CURVE SMOOTH",
"86 17 OFFCURVE",
"110 -7 OFFCURVE",
"139 -7 CURVE SMOOTH"
);
}
);
width = 280;
}
);
leftKerningGroup = exclam;
unicode = 0021;
},
{
glyphname = quotedbl;
lastChange = "2015-06-14 21:07:22 +0000";
layers = (
{
layerId = "1FDD38BC-4CDE-4118-9AAB-E6BB464D5960";
name = Regular;
paths = (
{
closed = 1;
nodes = (
"100 710 LINE",
"160 710 LINE",
"160 475 LINE",
"100 475 LINE"
);
},
{
closed = 1;
nodes = (
"245 710 LINE",
"305 710 LINE",
"305 475 LINE",
"245 475 LINE"
);
}
);
width = 395;
}
);
leftKerningGroup = quotedbl;
rightKerningGroup = quotedbl;
unicode = 0022;
},
{
glyphname = numbersign;
lastChange = "2015-06-14 21:07:22 +0000";
layers = (
{
layerId = "1FDD38BC-4CDE-4118-9AAB-E6BB464D5960";
name = Regular;
paths = (
{
closed = 1;
nodes = (
"642 508 LINE",
"526 508 LINE",
"576 710 LINE",
"518 710 LINE",
"469 508 LINE",
"280 508 LINE",
"330 710 LINE",
"272 710 LINE",
"223 508 LINE",
"80 508 LINE",
"80 457 LINE",
"210 457 LINE",
"163 261 LINE",
"37 261 LINE",
"37 207 LINE",
"150 207 LINE",
"99 0 LINE",
"157 0 LINE",
"207 207 LINE",
"396 207 LINE",
"345 0 LINE",
"403 0 LINE",
"453 207 LINE",
"600 207 LINE",
"600 261 LINE",
"466 261 LINE",
"513 457 LINE",
"642 457 LINE"
);
},
{
closed = 1;
nodes = (
"220 261 LINE",
"267 457 LINE",
"456 457 LINE",
"409 261 LINE"
);
}
);
width = 680;
}
);
rightKerningGroup = numbersign;
unicode = 0023;
},
{
glyphname = dollar;
lastChange = "2015-06-14 21:07:22 +0000";
layers = (
{
layerId = "1FDD38BC-4CDE-4118-9AAB-E6BB464D5960";
name = Regular;
paths = (
{
closed = 1;
nodes = (
"544 633 LINE",
"488 682 OFFCURVE",
"418 712 OFFCURVE",
"331 715 CURVE",
"331 815 LINE",
"294 815 LINE",
"294 714 LINE",
"158 707 OFFCURVE",
"64 636 OFFCURVE",
"64 511 CURVE SMOOTH",
"64 396 OFFCURVE",
"143 360 OFFCURVE",
"291 326 CURVE",
"297 324 LINE",
"297 57 LINE",
"201 64 OFFCURVE",
"119 104 OFFCURVE",
"73 154 CURVE",
"38 97 LINE",
"110 35 OFFCURVE",
"196 0 OFFCURVE",
"294 -5 CURVE",
"294 -103 LINE",
"331 -103 LINE",
"331 -6 LINE",
"476 -4 OFFCURVE",
"579 57 OFFCURVE",
"579 186 CURVE SMOOTH",
"579 313 OFFCURVE",
"484 352 OFFCURVE",
"333 385 CURVE",
"330 385 OFFCURVE",
"328 386 OFFCURVE",
"326 386 CURVE",
"326 653 LINE",
"406 650 OFFCURVE",
"471 620 OFFCURVE",
"510 577 CURVE"
);
},
{
closed = 1;
nodes = (
"505 97 OFFCURVE",
"438 56 OFFCURVE",
"326 56 CURVE",
"326 318 LINE",
"444 289 OFFCURVE",
"505 258 OFFCURVE",
"505 179 CURVE SMOOTH"
);
},
{
closed = 1;
nodes = (
"136 597 OFFCURVE",
"185 647 OFFCURVE",
"297 652 CURVE",
"297 393 LINE",
"185 419 OFFCURVE",
"136 445 OFFCURVE",
"136 521 CURVE SMOOTH"
);
}
);
width = 619;
}
);
rightKerningGroup = numbersign;
unicode = 0024;
},
{
glyphname = S;
lastChange = "2015-06-14 21:07:22 +0000";
layers = (
{
layerId = "1FDD38BC-4CDE-4118-9AAB-E6BB464D5960";
name = Regular;
paths = (
{
closed = 1;
nodes = (
"538 633 LINE",
"479 685 OFFCURVE",
"405 715 OFFCURVE",
"311 715 CURVE SMOOTH",
"163 715 OFFCURVE",
"58 643 OFFCURVE",
"58 511 CURVE SMOOTH",
"58 396 OFFCURVE",
"137 360 OFFCURVE",
"285 326 CURVE SMOOTH",
"426 294 OFFCURVE",
"499 266 OFFCURVE",
"499 179 CURVE SMOOTH",
"499 97 OFFCURVE",
"432 56 OFFCURVE",
"319 56 CURVE SMOOTH",
"211 56 OFFCURVE",
"118 100 OFFCURVE",
"67 154 CURVE",
"32 97 LINE",
"111 29 OFFCURVE",
"207 -6 OFFCURVE",
"317 -6 CURVE SMOOTH",
"466 -6 OFFCURVE",
"573 55 OFFCURVE",
"573 186 CURVE SMOOTH",
"573 313 OFFCURVE",
"478 352 OFFCURVE",
"327 385 CURVE SMOOTH",
"190 415 OFFCURVE",
"130 437 OFFCURVE",
"130 521 CURVE SMOOTH",
"130 602 OFFCURVE",
"185 653 OFFCURVE",
"310 653 CURVE SMOOTH",
"395 653 OFFCURVE",
"464 622 OFFCURVE",
"504 577 CURVE"
);
}
);
width = 607;
}
);
leftKerningGroup = S;
rightKerningGroup = S;
unicode = 0053;
},
{
glyphname = percent;
lastChange = "2015-06-14 21:07:22 +0000";
layers = (
{
layerId = "1FDD38BC-4CDE-4118-9AAB-E6BB464D5960";
name = Regular;
paths = (
{
closed = 1;
nodes = (
"273 433 OFFCURVE",
"339 497 OFFCURVE",
"339 576 CURVE SMOOTH",
"339 656 OFFCURVE",
"273 720 OFFCURVE",
"190 720 CURVE SMOOTH",
"107 720 OFFCURVE",
"40 656 OFFCURVE",
"40 576 CURVE SMOOTH",
"40 497 OFFCURVE",
"107 433 OFFCURVE",
"190 433 CURVE SMOOTH"
);
},
{
closed = 1;
nodes = (
"136 472 OFFCURVE",
"91 519 OFFCURVE",
"91 576 CURVE SMOOTH",
"91 631 OFFCURVE",
"135 680 OFFCURVE",
"190 680 CURVE SMOOTH",
"242 680 OFFCURVE",
"288 634 OFFCURVE",
"288 576 CURVE SMOOTH",
"288 521 OFFCURVE",
"244 472 OFFCURVE",
"190 472 CURVE SMOOTH"
);
},
{
closed = 1;
nodes = (
"608 -10 OFFCURVE",
"675 54 OFFCURVE",
"675 134 CURVE SMOOTH",
"675 213 OFFCURVE",
"608 277 OFFCURVE",
"525 277 CURVE SMOOTH",
"443 277 OFFCURVE",
"376 213 OFFCURVE",
"376 134 CURVE SMOOTH",
"376 54 OFFCURVE",
"443 -10 OFFCURVE",
"525 -10 CURVE SMOOTH"
);
},
{
closed = 1;
nodes = (
"472 30 OFFCURVE",
"427 76 OFFCURVE",
"427 134 CURVE SMOOTH",
"427 189 OFFCURVE",
"471 238 OFFCURVE",
"525 238 CURVE SMOOTH",
"577 238 OFFCURVE",
"623 191 OFFCURVE",
"623 134 CURVE SMOOTH",
"623 78 OFFCURVE",
"580 30 OFFCURVE",
"525 30 CURVE SMOOTH"
);
},
{
closed = 1;
nodes = (
"99 -4 LINE",
"372 344 LINE",
"651 684 LINE",
"616 714 LINE",
"344 367 LINE",
"65 27 LINE"
);
}
);
width = 714;
}
);
rightKerningGroup = numbersign;
unicode = 0025;
},
{
glyphname = fraction;
lastChange = "2015-06-14 21:07:22 +0000";
layers = (
{
layerId = "1FDD38BC-4CDE-4118-9AAB-E6BB464D5960";
name = Regular;
paths = (
{
closed = 1;
nodes = (
"-182 -4 LINE",
"91 344 LINE",
"370 684 LINE",
"335 714 LINE",
"63 367 LINE",
"-216 27 LINE"
);
}
);
width = 154;
}
);
rightKerningGroup = numbersign;
unicode = 2044;
},
{
glyphname = ampersand;
lastChange = "2015-06-14 21:07:22 +0000";
layers = (
{
layerId = "1FDD38BC-4CDE-4118-9AAB-E6BB464D5960";
name = Regular;
paths = (
{
closed = 1;
nodes = (
"661 0 LINE",
"528 138 LINE",
"566 199 OFFCURVE",
"588 274 OFFCURVE",
"589 356 CURVE",
"531 356 LINE",
"531 291 OFFCURVE",
"515 231 OFFCURVE",
"488 180 CURVE",
"289 388 LINE",
"374 444 OFFCURVE",
"444 497 OFFCURVE",
"444 579 CURVE SMOOTH",
"444 662 OFFCURVE",
"371 719 OFFCURVE",
"278 719 CURVE SMOOTH",
"177 719 OFFCURVE",
"100 651 OFFCURVE",
"100 563 CURVE SMOOTH",
"100 513 OFFCURVE",
"125 471 OFFCURVE",
"197 394 CURVE",
"117 341 OFFCURVE",
"47 279 OFFCURVE",
"47 183 CURVE SMOOTH",
"47 68 OFFCURVE",
"149 -10 OFFCURVE",
"274 -10 CURVE SMOOTH",
"359 -10 OFFCURVE",
"433 26 OFFCURVE",
"489 86 CURVE",
"571 0 LINE"
);
},
{
closed = 1;
nodes = (
"198 45 OFFCURVE",
"113 92 OFFCURVE",
"113 181 CURVE SMOOTH",
"113 253 OFFCURVE",
"166 304 OFFCURVE",
"236 353 CURVE",
"451 126 LINE",
"407 76 OFFCURVE",
"348 45 OFFCURVE",
"281 45 CURVE SMOOTH"
);
},
{
closed = 1;
nodes = (
"163 620 OFFCURVE",
"212 666 OFFCURVE",
"278 666 CURVE SMOOTH",
"338 666 OFFCURVE",
"381 629 OFFCURVE",
"381 577 CURVE SMOOTH",
"381 520 OFFCURVE",
"328 480 OFFCURVE",
"250 429 CURVE",
"179 504 OFFCURVE",
"163 533 OFFCURVE",
"163 565 CURVE SMOOTH"
);
}
);
width = 667;
}
);
leftKerningGroup = ampersand;
rightKerningGroup = ampersand;
unicode = 0026;
},
{
glyphname = quotesingle;
lastChange = "2015-06-14 21:07:22 +0000";
layers = (
{
layerId = "1FDD38BC-4CDE-4118-9AAB-E6BB464D5960";
name = Regular;
paths = (
{
closed = 1;
nodes = (
"90 708 LINE",
"150 708 LINE",
"150 473 LINE",
"90 473 LINE"
);
}
);
width = 240;
}
);
leftKerningGroup = quotedbl;
rightKerningGroup = quotedbl;
unicode = 0027;
},
{
glyphname = parenleft;
lastChange = "2015-06-14 21:07:22 +0000";
layers = (
{
layerId = "1FDD38BC-4CDE-4118-9AAB-E6BB464D5960";
name = Regular;
paths = (
{
closed = 1;
nodes = (
"44 219 OFFCURVE",
"100 88 OFFCURVE",
"184 -37 CURVE",
"235 -10 LINE",
"156 110 OFFCURVE",
"108 239 OFFCURVE",
"108 343 CURVE SMOOTH",
"108 471 OFFCURVE",
"182 633 OFFCURVE",
"236 714 CURVE",
"184 739 LINE",
"106 609 OFFCURVE",
"44 482 OFFCURVE",
"44 346 CURVE SMOOTH"
);
}
);
width = 269;
}
);
rightKerningGroup = parenleft;
unicode = 0028;
},
{
glyphname = parenright;
lastChange = "2015-06-14 21:07:22 +0000";
layers = (
{
layerId = "1FDD38BC-4CDE-4118-9AAB-E6BB464D5960";
name = Regular;
paths = (
{
closed = 1;
nodes = (
"224 482 OFFCURVE",
"162 609 OFFCURVE",
"85 739 CURVE",
"32 714 LINE",
"87 633 OFFCURVE",
"161 471 OFFCURVE",
"161 343 CURVE SMOOTH",
"161 239 OFFCURVE",
"112 110 OFFCURVE",
"34 -10 CURVE",
"84 -37 LINE",
"169 88 OFFCURVE",
"224 219 OFFCURVE",
"224 346 CURVE SMOOTH"
);
}
);
width = 268;
}
);
leftKerningGroup = parenright;
rightKerningGroup = numbersign;
unicode = 0029;
},
{
glyphname = asterisk;
lastChange = "2015-06-14 21:07:22 +0000";
layers = (
{
layerId = "1FDD38BC-4CDE-4118-9AAB-E6BB464D5960";
name = Regular;
paths = (
{
closed = 1;
nodes = (
"118 524 LINE",
"161 589 LINE",
"203 524 LINE",
"235 546 LINE",
"191 608 LINE",
"259 630 LINE",
"248 666 LINE",
"179 640 LINE",
"179 713 LINE",
"142 713 LINE",
"142 640 LINE",
"73 666 LINE",
"62 630 LINE",
"130 608 LINE",
"87 546 LINE"
);
}
);
width = 321;
}
);
leftKerningGroup = asterisk;
rightKerningGroup = asterisk;
unicode = 002A;
},
{
glyphname = plus;
lastChange = "2015-06-14 21:07:22 +0000";
layers = (
{
layerId = "1FDD38BC-4CDE-4118-9AAB-E6BB464D5960";
name = Regular;
paths = (
{
closed = 1;
nodes = (
"239 383 LINE",
"239 518 LINE",
"176 518 LINE",
"176 383 LINE",
"52 383 LINE",
"52 327 LINE",
"176 327 LINE",
"176 192 LINE",
"239 192 LINE",
"239 327 LINE",
"363 327 LINE",
"363 383 LINE"
);
}
);
width = 415;
}
);
rightKerningGroup = numbersign;
unicode = 002B;
},
{
glyphname = comma;
lastChange = "2015-06-14 21:07:22 +0000";
layers = (
{
layerId = "1FDD38BC-4CDE-4118-9AAB-E6BB464D5960";
name = Regular;
paths = (
{
closed = 1;
nodes = (
"83 -140 LINE",
"26 -140 LINE",
"93 95 LINE",
"174 95 LINE"
);
}
);
width = 225;
}
);
leftKerningGroup = comma;
rightKerningGroup = comma;
unicode = 002C;
},
{
glyphname = hyphen;
lastChange = "2015-06-14 21:07:22 +0000";
layers = (
{
layerId = "1FDD38BC-4CDE-4118-9AAB-E6BB464D5960";
name = Regular;
paths = (
{
closed = 1;
nodes = (
"357 241 LINE",
"357 304 LINE",
"65 304 LINE",
"65 241 LINE"
);
}
);
width = 422;
}
);
leftKerningGroup = hyphen;
rightKerningGroup = hyphen;
unicode = 002D;
},
{
glyphname = period;
lastChange = "2015-06-14 21:07:22 +0000";
layers = (
{
layerId = "1FDD38BC-4CDE-4118-9AAB-E6BB464D5960";
name = Regular;
paths = (
{
closed = 1;
nodes = (
"125 -1 OFFCURVE",
"147 21 OFFCURVE",
"147 49 CURVE SMOOTH",
"147 76 OFFCURVE",
"125 99 OFFCURVE",
"97 99 CURVE SMOOTH",
"69 99 OFFCURVE",
"47 76 OFFCURVE",
"47 49 CURVE SMOOTH",
"47 21 OFFCURVE",
"69 -1 OFFCURVE",
"97 -1 CURVE SMOOTH"
);
}
);
width = 189;
}
);
leftKerningGroup = comma;
rightKerningGroup = comma;
unicode = 002E;
},
{
glyphname = slash;
lastChange = "2015-06-14 21:07:22 +0000";
layers = (
{
layerId = "1FDD38BC-4CDE-4118-9AAB-E6BB464D5960";
name = Regular;
paths = (
{
closed = 1;
nodes = (
"335 740 LINE",
"15 0 LINE SMOOTH",
"75 -22 LINE SMOOTH",
"399 719 LINE"
);
}
);
width = 420;
}
);
leftKerningGroup = slash;
rightKerningGroup = slash;
unicode = 002F;
},
{
glyphname = zero;
lastChange = "2015-06-14 21:07:22 +0000";
layers = (
{
layerId = "1FDD38BC-4CDE-4118-9AAB-E6BB464D5960";
name = Regular;
paths = (
{
closed = 1;
nodes = (
"523 -8 OFFCURVE",
"635 177 OFFCURVE",
"635 350 CURVE SMOOTH",
"635 505 OFFCURVE",
"536 710 OFFCURVE",
"342 710 CURVE SMOOTH",
"161 710 OFFCURVE",
"48 521 OFFCURVE",
"48 350 CURVE SMOOTH",
"48 190 OFFCURVE",
"149 -5 OFFCURVE",
"342 -10 CURVE"
);
},
{
closed = 1;
nodes = (
"119 475 OFFCURVE",
"191 647 OFFCURVE",
"342 647 CURVE SMOOTH",
"483 647 OFFCURVE",
"565 489 OFFCURVE",
"565 350 CURVE SMOOTH",
"565 224 OFFCURVE",
"492 53 OFFCURVE",
"342 53 CURVE SMOOTH",
"197 53 OFFCURVE",
"123 211 OFFCURVE",
"119 350 CURVE"
);
}
);
width = 684;
}
);
leftKerningGroup = zero.lnum;
rightKerningGroup = zero.lnum;
unicode = 0030;
},
{
glyphname = one;
lastChange = "2015-12-16 08:03:40 +0000";
layers = (
{
layerId = "1FDD38BC-4CDE-4118-9AAB-E6BB464D5960";
name = Regular;
paths = (
{
closed = 1;
nodes = (
"269 719 LINE",
"200 719 LINE",
"46 611 LINE",
"83 562 LINE",
"200 643 LINE",
"200 0 LINE",
"269 0 LINE"
);
}
);
width = 416;
}
);
leftKerningGroup = one.lnum;
rightKerningGroup = one.lnum;
unicode = 0031;
},
{
glyphname = two;
lastChange = "2015-12-16 08:04:12 +0000";
layers = (
{
layerId = "1FDD38BC-4CDE-4118-9AAB-E6BB464D5960";
name = Regular;
paths = (
{
closed = 1;
nodes = (
"527 0 LINE",
"527 62 LINE",
"122 62 LINE",
"122 150 OFFCURVE",
"163 224 OFFCURVE",
"312 287 CURVE SMOOTH",
"411 329 OFFCURVE",
"526 378 OFFCURVE",
"526 515 CURVE SMOOTH",
"526 624 OFFCURVE",
"449 720 OFFCURVE",
"302 719 CURVE SMOOTH",
"191 718 OFFCURVE",
"98 657 OFFCURVE",
"79 555 CURVE",
"148 538 LINE",
"170 610 OFFCURVE",
"207 654 OFFCURVE",
"303 655 CURVE SMOOTH",
"407 656 OFFCURVE",
"451 589 OFFCURVE",
"451 514 CURVE SMOOTH",
"451 396 OFFCURVE",
"332 368 OFFCURVE",
"241 325 CURVE SMOOTH",
"119 267 OFFCURVE",
"48 189 OFFCURVE",
"48 14 CURVE SMOOTH",
"48 0 LINE"
);
}
);
width = 581;
}
);
rightKerningGroup = two.lnum;
unicode = 0032;
},
{
glyphname = three;
lastChange = "2015-12-16 08:24:21 +0000";
layers = (
{
layerId = "1FDD38BC-4CDE-4118-9AAB-E6BB464D5960";
name = Regular;
paths = (
{
closed = 1;
nodes = (
"369 658 OFFCURVE",
"444 604 OFFCURVE",
"444 520 CURVE SMOOTH",
"444 435 OFFCURVE",
"365 392 OFFCURVE",
"235 392 CURVE SMOOTH",
"201 392 LINE",
"201 333 LINE",
"235 333 LINE SMOOTH",
"374 333 OFFCURVE",
"463 280 OFFCURVE",
"463 192 CURVE SMOOTH",
"463 111 OFFCURVE",
"386 55 OFFCURVE",
"285 55 CURVE",
"171 55 OFFCURVE",
"126 118 OFFCURVE",
"106 192 CURVE",
"37 175 LINE",
"56 73 OFFCURVE",
"142 -9 OFFCURVE",
"284 -9 CURVE",
"417 -9 OFFCURVE",
"533 65 OFFCURVE",
"533 184 CURVE SMOOTH",
"533 273 OFFCURVE",
"471 347 OFFCURVE",
"376 365 CURVE",
"466 387 OFFCURVE",
"515 441 OFFCURVE",
"515 522 CURVE SMOOTH",
"515 634 OFFCURVE",
"415 719 OFFCURVE",
"279 719 CURVE",
"168 718 OFFCURVE",
"74 650 OFFCURVE",
"56 555 CURVE",
"123 538 LINE",
"140 604 OFFCURVE",
"184 657 OFFCURVE",
"280 658 CURVE"
);
}
);
width = 584;
}
);
rightKerningGroup = numbersign;
unicode = 0033;
},
{
glyphname = four;
lastChange = "2015-06-14 21:07:22 +0000";
layers = (
{
layerId = "1FDD38BC-4CDE-4118-9AAB-E6BB464D5960";
name = Regular;
paths = (
{
closed = 1;
nodes = (
"443 0 LINE",
"443 190 LINE",
"531 190 LINE",
"531 252 LINE",
"443 252 LINE",
"443 710 LINE",
"396 710 LINE",
"26 251 LINE",
"26 190 LINE",
"375 190 LINE",
"375 0 LINE"
);
},
{
closed = 1;
nodes = (
"381 604 LINE",
"381 252 LINE",
"99 252 LINE"
);
}
);
width = 569;
}
);
leftKerningGroup = four.lnum;
rightKerningGroup = numbersign;
unicode = 0034;
},
{
glyphname = five;
lastChange = "2015-12-16 08:25:44 +0000";
layers = (
{
layerId = "1FDD38BC-4CDE-4118-9AAB-E6BB464D5960";
name = Regular;
paths = (
{
closed = 1;
nodes = (
"223 451 OFFCURVE",
"171 430 OFFCURVE",
"136 392 CURVE",
"186 647 LINE",
"478 647 LINE",
"478 710 LINE",
"135 710 LINE",
"62 337 LINE",
"119 311 LINE",
"154 362 OFFCURVE",
"213 391 OFFCURVE",
"275 391 CURVE SMOOTH",
"370 391 OFFCURVE",
"445 322 OFFCURVE",
"445 224 CURVE SMOOTH",
"445 122 OFFCURVE",
"368 52 OFFCURVE",
"269 52 CURVE SMOOTH",
"192 52 OFFCURVE",
"127 95 OFFCURVE",
"91 161 CURVE",
"38 125 LINE",
"79 42 OFFCURVE",
"167 -10 OFFCURVE",
"268 -10 CURVE SMOOTH",
"404 -10 OFFCURVE",
"514 85 OFFCURVE",
"514 225 CURVE SMOOTH",
"514 358 OFFCURVE",
"412 451 OFFCURVE",
"283 451 CURVE SMOOTH"
);
}
);
width = 556;
}
);
rightKerningGroup = numbersign;
unicode = 0035;
},
{
glyphname = six;
lastChange = "2015-12-16 08:28:08 +0000";
layers = (
{
layerId = "1FDD38BC-4CDE-4118-9AAB-E6BB464D5960";
name = Regular;
paths = (
{
closed = 1;
nodes = (
"208 50 OFFCURVE",
"123 134 OFFCURVE",
"123 234 CURVE SMOOTH",
"123 335 OFFCURVE",
"207 418 OFFCURVE",
"308 418 CURVE SMOOTH",
"409 418 OFFCURVE",
"494 335 OFFCURVE",
"494 234 CURVE SMOOTH",
"494 133 OFFCURVE",
"410 50 OFFCURVE",
"309 50 CURVE SMOOTH"
);
},
{
closed = 1;
nodes = (
"158 715 OFFCURVE",
"52 576 OFFCURVE",
"52 287 CURVE SMOOTH",
"52 102 OFFCURVE",
"158 -10 OFFCURVE",
"307 -10 CURVE SMOOTH",
"449 -10 OFFCURVE",
"559 99 OFFCURVE",
"559 234 CURVE SMOOTH",
"559 368 OFFCURVE",
"451 474 OFFCURVE",
"315 474 CURVE SMOOTH",
"225 474 OFFCURVE",
"147 423 OFFCURVE",
"118 345 CURVE",
"119 541 OFFCURVE",
"196 655 OFFCURVE",
"314 655 CURVE",
"399 656 OFFCURVE",
"444 609 OFFCURVE",
"467 550 CURVE",
"529 572 LINE",
"504 655 OFFCURVE",
"415 716 OFFCURVE",
"314 715 CURVE"
);
}
);
width = 603;
}
);
rightKerningGroup = numbersign;
unicode = 0036;
},
{
glyphname = seven;
lastChange = "2015-06-14 21:07:22 +0000";
layers = (
{
layerId = "1FDD38BC-4CDE-4118-9AAB-E6BB464D5960";
name = Regular;
paths = (
{
closed = 1;
nodes = (
"86 0 LINE",
"162 0 LINE",
"522 710 LINE",
"31 710 LINE",
"31 647 LINE",
"414 647 LINE"
);
}
);
width = 521;
}
);
leftKerningGroup = seven.lnum;
rightKerningGroup = seven.lnum;
unicode = 0037;
},
{
glyphname = eight;
lastChange = "2015-06-14 21:07:22 +0000";
layers = (
{
layerId = "1FDD38BC-4CDE-4118-9AAB-E6BB464D5960";
name = Regular;
paths = (
{
closed = 1;
nodes = (
"543 287 OFFCURVE",
"478 353 OFFCURVE",
"400 380 CURVE",
"464 406 OFFCURVE",
"519 460 OFFCURVE",
"519 530 CURVE SMOOTH",
"519 646 OFFCURVE",
"403 710 OFFCURVE",
"297 710 CURVE SMOOTH",
"191 710 OFFCURVE",
"75 646 OFFCURVE",
"75 529 CURVE SMOOTH",
"75 459 OFFCURVE",
"129 406 OFFCURVE",
"192 380 CURVE",
"123 356 OFFCURVE",
"50 292 OFFCURVE",
"50 201 CURVE SMOOTH",
"50 86 OFFCURVE",
"152 -8 OFFCURVE",
"294 -8 CURVE SMOOTH",
"428 -8 OFFCURVE",
"543 73 OFFCURVE",
"543 197 CURVE SMOOTH"
);
},
{
closed = 1;
nodes = (
"474 112 OFFCURVE",
"384 53 OFFCURVE",
"298 53 CURVE SMOOTH",
"214 53 OFFCURVE",
"120 108 OFFCURVE",
"120 201 CURVE SMOOTH",
"120 292 OFFCURVE",
"208 351 OFFCURVE",
"295 351 CURVE SMOOTH",
"379 351 OFFCURVE",
"474 297 OFFCURVE",
"474 202 CURVE SMOOTH"
);
},
{
closed = 1;
nodes = (
"143 602 OFFCURVE",
"217 648 OFFCURVE",
"295 648 CURVE SMOOTH",
"375 648 OFFCURVE",
"450 604 OFFCURVE",
"450 528 CURVE SMOOTH",
"450 450 OFFCURVE",
"367 405 OFFCURVE",
"296 405 CURVE SMOOTH",
"226 405 OFFCURVE",
"143 448 OFFCURVE",
"143 526 CURVE SMOOTH"
);
}
);
width = 593;
}
);
rightKerningGroup = numbersign;
unicode = 0038;
},
{
glyphname = nine;
lastChange = "2015-12-16 08:30:50 +0000";
layers = (
{
layerId = "1FDD38BC-4CDE-4118-9AAB-E6BB464D5960";
name = Regular;
paths = (
{
closed = 1;
nodes = (
"395 656 OFFCURVE",
"481 571 OFFCURVE",
"481 471 CURVE SMOOTH",
"481 371 OFFCURVE",
"396 287 OFFCURVE",
"295 287 CURVE SMOOTH",
"194 287 OFFCURVE",
"110 371 OFFCURVE",
"110 472 CURVE SMOOTH",
"110 572 OFFCURVE",
"193 656 OFFCURVE",
"294 656 CURVE SMOOTH"
);
},
{
closed = 1;
nodes = (
"108 35 OFFCURVE",
"193 -13 OFFCURVE",
"290 -10 CURVE",
"440 -10 OFFCURVE",
"550 129 OFFCURVE",
"550 419 CURVE SMOOTH",
"550 604 OFFCURVE",
"445 715 OFFCURVE",
"295 715 CURVE SMOOTH",
"154 715 OFFCURVE",
"44 607 OFFCURVE",
"44 471 CURVE SMOOTH",
"44 338 OFFCURVE",
"152 231 OFFCURVE",
"288 231 CURVE SMOOTH",
"378 231 OFFCURVE",
"456 282 OFFCURVE",
"485 360 CURVE",
"485 164 OFFCURVE",
"401 51 OFFCURVE",
"289 51 CURVE",
"203 47 OFFCURVE",
"154 91 OFFCURVE",
"131 144 CURVE",
"73 110 LINE"
);
}
);
width = 603;
}
);
rightKerningGroup = nine.lnum;
unicode = 0039;
},
{
glyphname = colon;
lastChange = "2015-06-14 21:07:22 +0000";
layers = (
{
layerId = "1FDD38BC-4CDE-4118-9AAB-E6BB464D5960";
name = Regular;
paths = (
{
closed = 1;
nodes = (
"134 -5 OFFCURVE",
"154 15 OFFCURVE",
"154 40 CURVE SMOOTH",
"154 65 OFFCURVE",
"134 85 OFFCURVE",
"109 85 CURVE SMOOTH",
"84 85 OFFCURVE",
"64 65 OFFCURVE",
"64 40 CURVE SMOOTH",
"64 15 OFFCURVE",
"84 -5 OFFCURVE",
"109 -5 CURVE SMOOTH"
);
},
{
closed = 1;
nodes = (
"134 432 OFFCURVE",
"154 452 OFFCURVE",
"154 477 CURVE SMOOTH",
"154 502 OFFCURVE",
"134 522 OFFCURVE",
"109 522 CURVE SMOOTH",
"84 522 OFFCURVE",
"64 502 OFFCURVE",
"64 477 CURVE SMOOTH",
"64 452 OFFCURVE",
"84 432 OFFCURVE",
"109 432 CURVE SMOOTH"
);
}
);
width = 188;
}
);
leftKerningGroup = colon;
rightKerningGroup = colon;
unicode = 003A;
},
{
glyphname = semicolon;
lastChange = "2015-06-14 21:07:22 +0000";
layers = (
{
layerId = "1FDD38BC-4CDE-4118-9AAB-E6BB464D5960";
name = Regular;
paths = (
{
closed = 1;
nodes = (
"53 -140 LINE",
"-4 -140 LINE",
"63 95 LINE",
"144 95 LINE"
);
},
{
closed = 1;
nodes = (
"139 421 OFFCURVE",
"163 445 OFFCURVE",
"163 474 CURVE SMOOTH",
"163 504 OFFCURVE",
"139 528 OFFCURVE",
"109 528 CURVE SMOOTH",
"80 528 OFFCURVE",
"56 504 OFFCURVE",
"56 474 CURVE SMOOTH",
"56 445 OFFCURVE",
"80 421 OFFCURVE",
"109 421 CURVE SMOOTH"
);
}
);
width = 205;
}
);
leftKerningGroup = colon;
rightKerningGroup = colon;
unicode = 003B;
},
{
glyphname = less;
lastChange = "2015-06-14 21:07:22 +0000";
layers = (
{
layerId = "1FDD38BC-4CDE-4118-9AAB-E6BB464D5960";
name = Regular;
paths = (
{
closed = 1;
nodes = (
"33 239 LINE",
"452 -11 LINE",
"452 64 LINE",
"132 259 LINE",
"452 455 LINE",
"452 528 LINE",
"33 276 LINE"
);
}
);
width = 508;
}
);
rightKerningGroup = numbersign;
unicode = 003C;
},
{
glyphname = equal;
lastChange = "2015-06-14 21:07:22 +0000";
layers = (
{
layerId = "1FDD38BC-4CDE-4118-9AAB-E6BB464D5960";
name = Regular;
paths = (
{
closed = 1;
nodes = (
"370 194 LINE",
"370 243 LINE",
"68 243 LINE",
"68 194 LINE"
);
},
{
closed = 1;
nodes = (
"370 309 LINE",
"370 358 LINE",
"68 358 LINE",
"68 309 LINE"
);
}
);
width = 438;
}
);
rightKerningGroup = numbersign;
unicode = 003D;
},
{
glyphname = greater;
lastChange = "2015-06-14 21:07:22 +0000";
layers = (
{
layerId = "1FDD38BC-4CDE-4118-9AAB-E6BB464D5960";
name = Regular;
paths = (
{
closed = 1;
nodes = (
"474 276 LINE",
"55 528 LINE",
"55 455 LINE",
"375 259 LINE",
"55 64 LINE",
"55 -11 LINE",
"474 239 LINE"
);
}
);
width = 508;
}
);
rightKerningGroup = numbersign;
unicode = 003E;
},
{
glyphname = question;
lastChange = "2015-06-14 21:07:22 +0000";
layers = (
{
layerId = "1FDD38BC-4CDE-4118-9AAB-E6BB464D5960";
name = Regular;
paths = (
{
closed = 1;
nodes = (
"213 202 LINE",
"213 298 OFFCURVE",
"257 324 OFFCURVE",
"304 350 CURVE SMOOTH",
"372 387 OFFCURVE",
"439 422 OFFCURVE",
"439 528 CURVE SMOOTH",
"439 657 OFFCURVE",
"342 719 OFFCURVE",
"244 719 CURVE SMOOTH",
"157 719 OFFCURVE",
"72 672 OFFCURVE",
"35 590 CURVE",
"82 560 LINE",
"111 617 OFFCURVE",
"172 662 OFFCURVE",
"243 662 CURVE SMOOTH",
"312 662 OFFCURVE",
"379 619 OFFCURVE",
"379 532 CURVE SMOOTH",
"379 434 OFFCURVE",
"293 404 OFFCURVE",
"240 372 CURVE SMOOTH",
"182 337 OFFCURVE",
"155 290 OFFCURVE",
"155 202 CURVE"
);
},
{
closed = 1;
nodes = (
"215 -6 OFFCURVE",
"239 18 OFFCURVE",
"239 47 CURVE SMOOTH",
"239 77 OFFCURVE",
"215 101 OFFCURVE",
"185 101 CURVE SMOOTH",
"156 101 OFFCURVE",
"132 77 OFFCURVE",
"132 47 CURVE SMOOTH",
"132 18 OFFCURVE",
"156 -6 OFFCURVE",
"185 -6 CURVE SMOOTH"
);
}
);
width = 476;
}
);
leftKerningGroup = question;
rightKerningGroup = numbersign;
unicode = 003F;
},
{
glyphname = at;
lastChange = "2015-06-14 21:07:22 +0000";
layers = (
{
layerId = "1FDD38BC-4CDE-4118-9AAB-E6BB464D5960";
name = Regular;
paths = (
{
closed = 1;
nodes = (
"225.194 608 OFFCURVE",
"45 458.347 OFFCURVE",
"45 230 CURVE",
"45 10.883 OFFCURVE",
"211.974 -151 OFFCURVE",
"413 -151 CURVE",
"470.992 -151 OFFCURVE",
"530.637 -137.063 OFFCURVE",
"586.363 -108.378 CURVE",
"569.605 -67.127 LINE",
"519.263 -92.406 OFFCURVE",
"471.137 -107 OFFCURVE",
"413 -107 CURVE",
"228.192 -107 OFFCURVE",
"91 41.952 OFFCURVE",
"91 230 CURVE",
"91 424.848 OFFCURVE",
"237.991 564 OFFCURVE",
"419 564 CURVE",
"603.829 564 OFFCURVE",
"743 415.028 OFFCURVE",
"743 224 CURVE",
"743 151.401 OFFCURVE",
"722.743 26 OFFCURVE",
"643 26 CURVE",
"602.322 26 OFFCURVE",
"597 62.364 OFFCURVE",
"597 121 CURVE",
"597 250 LINE",
"597 346.342 OFFCURVE",
"581.359 460 OFFCURVE",
"428 460 CURVE",
"364.589 460 OFFCURVE",
"308.006 438.469 OFFCURVE",
"258.678 404.765 CURVE",
"281.074 356.242 LINE",
"320.432 387.036 OFFCURVE",
"368.668 406 OFFCURVE",
"423 406 CURVE",
"515.181 406 OFFCURVE",
"540.709 347.172 OFFCURVE",
"541.966 257.108 CURVE",
"517.734 265.409 OFFCURVE",
"473.379 278 OFFCURVE",
"420 278 CURVE",
"331.197 278 OFFCURVE",
"230 244.616 OFFCURVE",
"230 139 CURVE",
"230 58.929 OFFCURVE",
"288.929 0 OFFCURVE",
"385 0 CURVE",
"451.743 0 OFFCURVE",
"512 28.938 OFFCURVE",
"550.242 65.182 CURVE",
"556.225 20.485 OFFCURVE",
"572.215 -21 OFFCURVE",
"638 -21 CURVE",
"777.705 -21 OFFCURVE",
"789 164.848 OFFCURVE",
"789 222 CURVE",
"789 451.191 OFFCURVE",
"618.953 608 OFFCURVE",
"420 608 CURVE"
);
},
{
closed = 1;
nodes = (
"456 58 OFFCURVE",
"421 48 OFFCURVE",
"388 48 CURVE SMOOTH",
"326 48 OFFCURVE",
"281 86 OFFCURVE",
"281 141 CURVE SMOOTH",
"281 212 OFFCURVE",
"347 234 OFFCURVE",
"418 234 CURVE SMOOTH",
"482 234 OFFCURVE",
"529 214 OFFCURVE",
"546 212 CURVE",
"546 172 LINE SMOOTH",
"546 135 OFFCURVE",
"537 96 OFFCURVE",
"481 70 CURVE SMOOTH"
);
}
);
width = 837;
}
);
leftKerningGroup = at;
rightKerningGroup = at;
unicode = 0040;
},
{
glyphname = A;
lastChange = "2015-06-14 21:07:22 +0000";
layers = (
{
anchors = (
{
name = ogonek;
position = "{608, 10}";
},
{
name = top;
position = "{338, 710}";
}
);
layerId = "1FDD38BC-4CDE-4118-9AAB-E6BB464D5960";
name = Regular;
paths = (
{
closed = 1;
nodes = (
"12 0 LINE",
"87 0 LINE",
"178 222 LINE",
"497 222 LINE",
"589 0 LINE",
"663 0 LINE",
"368 710 LINE",
"309 710 LINE"
);
},
{
closed = 1;
nodes = (
"193 277 LINE",
"338 628 LINE",
"481 277 LINE"
);
}
);
width = 676;
}
);
leftKerningGroup = A;
rightKerningGroup = A;
unicode = 0041;
},
{
glyphname = B;
lastChange = "2015-06-14 21:07:22 +0000";
layers = (
{
layerId = "1FDD38BC-4CDE-4118-9AAB-E6BB464D5960";
name = Regular;
paths = (
{
closed = 1;
nodes = (
"623 269 OFFCURVE",
"572 340 OFFCURVE",
"491 364 CURVE",
"555 393 OFFCURVE",
"593 458 OFFCURVE",
"593 529 CURVE SMOOTH",
"593 618 OFFCURVE",
"531 710 OFFCURVE",
"431 710 CURVE SMOOTH",
"89 710 LINE",
"89 0 LINE",
"424 0 LINE SMOOTH",
"533 0 OFFCURVE",
"623 77 OFFCURVE",
"623 183 CURVE SMOOTH"
);
},
{
closed = 1;
nodes = (
"553 125 OFFCURVE",
"496 61 OFFCURVE",
"424 61 CURVE SMOOTH",
"159 61 LINE",
"159 330 LINE",
"431 330 LINE SMOOTH",
"501 330 OFFCURVE",
"553 265 OFFCURVE",
"553 195 CURVE SMOOTH"
);
},
{
closed = 1;
nodes = (
"409 649 LINE SMOOTH",
"476 649 OFFCURVE",
"524 590 OFFCURVE",
"524 518 CURVE SMOOTH",
"524 449 OFFCURVE",
"473 387 OFFCURVE",
"403 387 CURVE SMOOTH",
"159 387 LINE",
"159 649 LINE"
);
}
);
width = 666;
}
);
leftKerningGroup = B;
rightKerningGroup = B;
unicode = 0042;
},
{
glyphname = C;
lastChange = "2015-06-14 21:07:22 +0000";
layers = (
{
layerId = "1FDD38BC-4CDE-4118-9AAB-E6BB464D5960";
name = Regular;
paths = (
{
closed = 1;
nodes = (
"42 180 OFFCURVE",
"179 -6 OFFCURVE",
"374 -6 CURVE SMOOTH",
"483 -6 OFFCURVE",
"609 53 OFFCURVE",
"655 159 CURVE",
"597 189 LINE",
"552 97 OFFCURVE",
"458 57 OFFCURVE",
"378 57 CURVE SMOOTH",
"227 57 OFFCURVE",
"112 199 OFFCURVE",
"112 356 CURVE SMOOTH",
"112 499 OFFCURVE",
"205 651 OFFCURVE",
"375 651 CURVE SMOOTH",
"452 651 OFFCURVE",
"540 619 OFFCURVE",
"586 525 CURVE",
"641 559 LINE",
"598 650 OFFCURVE",
"505 714 OFFCURVE",
"379 714 CURVE SMOOTH",
"165 714 OFFCURVE",
"42 531 OFFCURVE",
"42 360 CURVE SMOOTH"
);
}
);
width = 686;
}
);
leftKerningGroup = C;
rightKerningGroup = C;
unicode = 0043;
},
{
glyphname = D;
lastChange = "2015-06-14 21:07:22 +0000";
layers = (
{
anchors = (
{
name = center;
position = "{358, 355}";
},
{
name = top;
position = "{330, 710}";
}
);
layerId = "1FDD38BC-4CDE-4118-9AAB-E6BB464D5960";
name = Regular;
paths = (
{
closed = 1;
nodes = (
"330 0 LINE SMOOTH",
"537 0 OFFCURVE",
"670 141 OFFCURVE",
"670 356 CURVE SMOOTH",
"670 552 OFFCURVE",
"556 710 OFFCURVE",
"330 710 CURVE SMOOTH",
"89 710 LINE",
"89 0 LINE"
);
},
{
closed = 1;
nodes = (
"600 189 OFFCURVE",
"506 62 OFFCURVE",
"330 62 CURVE SMOOTH",
"159 62 LINE",
"159 648 LINE",
"330 648 LINE SMOOTH",
"503 648 OFFCURVE",
"600 526 OFFCURVE",
"600 356 CURVE SMOOTH"
);
}
);
width = 715;
}
);
leftKerningGroup = B;
rightKerningGroup = D;
unicode = 0044;
},
{
glyphname = E;
lastChange = "2015-06-14 21:07:22 +0000";
layers = (
{
anchors = (
{
name = bottom;
position = "{305, 0}";
},
{
name = ogonek;
position = "{548, 10}";
},
{
name = top;
position = "{323, 710}";
}
);
layerId = "1FDD38BC-4CDE-4118-9AAB-E6BB464D5960";
name = Regular;
paths = (
{
closed = 1;
nodes = (
"159 62 LINE",
"159 333 LINE",
"506 333 LINE",
"506 392 LINE",
"159 392 LINE",
"159 648 LINE",
"557 648 LINE",
"557 710 LINE",
"89 710 LINE",
"89 0 LINE",
"566 0 LINE",
"566 62 LINE"
);
}
);
width = 609;
}
);
leftKerningGroup = B;
rightKerningGroup = E;
unicode = 0045;
},
{
glyphname = F;
lastChange = "2015-06-14 21:07:22 +0000";
layers = (
{
layerId = "1FDD38BC-4CDE-4118-9AAB-E6BB464D5960";
name = Regular;
paths = (
{
closed = 1;
nodes = (
"159 0 LINE",
"159 329 LINE",
"493 329 LINE",
"493 387 LINE",
"159 387 LINE",
"159 648 LINE",
"555 648 LINE",
"555 710 LINE",
"89 710 LINE",
"89 0 LINE"
);
}
);
width = 589;
}
);
leftKerningGroup = B;
rightKerningGroup = F;
unicode = 0046;
},
{
glyphname = G;
lastChange = "2015-06-14 21:07:22 +0000";
layers = (
{
anchors = (
{
name = bottom;
position = "{366, 0}";
},
{
name = top;
position = "{375, 710}";
}
);
layerId = "1FDD38BC-4CDE-4118-9AAB-E6BB464D5960";
name = Regular;
paths = (
{
closed = 1;
nodes = (
"565 -5 OFFCURVE",
"701 142 OFFCURVE",
"715 308 CURVE",
"715 315 OFFCURVE",
"716 344 OFFCURVE",
"716 349 CURVE",
"433 349 LINE",
"433 286 LINE",
"643 286 LINE",
"626 169 OFFCURVE",
"518 58 OFFCURVE",
"371 58 CURVE SMOOTH",
"203 58 OFFCURVE",
"93 196 OFFCURVE",
"93 354 CURVE SMOOTH",
"93 512 OFFCURVE",
"201 652 OFFCURVE",
"371 652 CURVE SMOOTH",
"475 652 OFFCURVE",
"572 588 OFFCURVE",
"612 520 CURVE",
"672 559 LINE",
"615 650 OFFCURVE",
"493 715 OFFCURVE",
"375 715 CURVE SMOOTH",
"168 715 OFFCURVE",
"23 553 OFFCURVE",
"23 357 CURVE SMOOTH",
"23 162 OFFCURVE",
"158 -5 OFFCURVE",
"376 -5 CURVE SMOOTH"
);
}
);
width = 732;
}
);
leftKerningGroup = C;
rightKerningGroup = G.alt;
unicode = 0047;
},
{
glyphname = H;
lastChange = "2015-06-14 21:07:22 +0000";
layers = (
{
layerId = "1FDD38BC-4CDE-4118-9AAB-E6BB464D5960";
name = Regular;
paths = (
{
closed = 1;
nodes = (
"580 710 LINE",
"580 394 LINE",
"159 394 LINE",
"159 710 LINE",
"89 710 LINE",
"89 0 LINE",
"159 0 LINE",
"159 332 LINE",
"580 332 LINE",
"580 0 LINE",
"649 0 LINE",
"649 710 LINE"
);
}
);
width = 738;
}
);
leftKerningGroup = B;
rightKerningGroup = H;
unicode = 0048;
},
{
glyphname = I;
lastChange = "2015-06-14 21:07:22 +0000";
layers = (
{
anchors = (
{
name = ogonek;
position = "{223, 10}";
},
{
name = top;
position = "{124, 710}";
}
);
layerId = "1FDD38BC-4CDE-4118-9AAB-E6BB464D5960";
name = Regular;
paths = (
{
closed = 1;
nodes = (
"159 0 LINE",
"159 710 LINE",
"89 710 LINE",
"89 0 LINE"
);
}
);
width = 248;
}
);
leftKerningGroup = B;
rightKerningGroup = H;
unicode = 0049;
},
{
glyphname = J;
lastChange = "2015-06-14 21:07:22 +0000";
layers = (
{
layerId = "1FDD38BC-4CDE-4118-9AAB-E6BB464D5960";
name = Regular;
paths = (
{
closed = 1;
nodes = (
"89 95 OFFCURVE",
"140 55 OFFCURVE",
"203 55 CURVE SMOOTH",
"285 55 OFFCURVE",
"361 101 OFFCURVE",
"361 222 CURVE",
"361 710 LINE",
"431 710 LINE",
"431 217 LINE",
"435 61 OFFCURVE",
"324 -11 OFFCURVE",
"203 -11 CURVE SMOOTH",
"116 -11 OFFCURVE",
"38 42 OFFCURVE",
"5 120 CURVE",
"67 149 LINE"
);
}
);
width = 481;
}
);
leftKerningGroup = J;
rightKerningGroup = J;
unicode = 004A;
},
{
glyphname = K;
lastChange = "2015-06-14 21:07:22 +0000";
layers = (
{
anchors = (
{
name = bottom;
position = "{342, 0}";
},
{
name = top;
position = "{351, 710}";
}
);
layerId = "1FDD38BC-4CDE-4118-9AAB-E6BB464D5960";
name = Regular;
paths = (
{
closed = 1;
nodes = (
"159 0 LINE",
"159 218 LINE",
"293 357 LINE",
"565 0 LINE",
"642 0 LINE",
"337 398 LINE",
"627 710 LINE",
"550 710 LINE",
"159 297 LINE",
"159 709 LINE",
"89 709 LINE",
"89 0 LINE"
);
}
);
width = 643;
}
);
leftKerningGroup = B;
rightKerningGroup = K;
unicode = 004B;
},
{
glyphname = L;
lastChange = "2015-06-14 21:07:22 +0000";
layers = (
{
anchors = (
{
name = bottom;
position = "{329, 0}";
},
{
name = top;
position = "{292, 710}";
},
{
name = topright;
position = "{224, 521}";
}
);
layerId = "1FDD38BC-4CDE-4118-9AAB-E6BB464D5960";
name = Regular;
paths = (
{
closed = 1;
nodes = (
"569 0 LINE",
"569 62 LINE",
"159 62 LINE",
"159 710 LINE",
"89 710 LINE",
"89 0 LINE"
);
}
);
width = 583;
}
);
leftKerningGroup = B;
rightKerningGroup = L;
unicode = 004C;
},
{
glyphname = M;
lastChange = "2015-06-14 21:07:22 +0000";
layers = (
{
layerId = "1FDD38BC-4CDE-4118-9AAB-E6BB464D5960";
name = Regular;
paths = (
{
closed = 1;
nodes = (
"788 0 LINE",
"788 710 LINE",
"717 710 LINE",
"438 224 LINE",
"161 710 LINE",
"89 710 LINE",
"89 0 LINE",
"159 0 LINE",
"159 583 LINE",
"418 132 LINE",
"459 132 LINE",
"718 583 LINE",
"718 0 LINE"
);
}
);
width = 877;
}
);
leftKerningGroup = B;
rightKerningGroup = H;
unicode = 004D;
},
{
glyphname = N;
lastChange = "2015-06-14 21:07:22 +0000";
layers = (
{
anchors = (
{
name = bottom;
position = "{386, 0}";
},
{
name = top;
position = "{386, 710}";
}
);
layerId = "1FDD38BC-4CDE-4118-9AAB-E6BB464D5960";
name = Regular;
paths = (
{
closed = 1;
nodes = (
"622 0 LINE",
"683 0 LINE",
"683 709 LINE",
"613 709 LINE",
"613 119 LINE",
"143 710 LINE",
"89 710 LINE",
"89 0 LINE",
"159 0 LINE",
"159 580 LINE"
);
}
);
width = 772;
}
);
leftKerningGroup = B;
rightKerningGroup = H;
unicode = 004E;
},
{
glyphname = O;
lastChange = "2015-06-14 21:07:22 +0000";
layers = (
{
anchors = (
{
name = top;
position = "{376, 710}";
}
);
layerId = "1FDD38BC-4CDE-4118-9AAB-E6BB464D5960";
name = Regular;
paths = (
{
closed = 1;
nodes = (
"565 -5 OFFCURVE",
"708 165 OFFCURVE",
"708 354 CURVE SMOOTH",
"708 532 OFFCURVE",
"574 715 OFFCURVE",
"376 715 CURVE SMOOTH",
"186 715 OFFCURVE",
"42 544 OFFCURVE",
"42 355 CURVE SMOOTH",
"42 173 OFFCURVE",
"177 -5 OFFCURVE",
"375 -5 CURVE SMOOTH"
);
},
{
closed = 1;
nodes = (
"112 502 OFFCURVE",
"214 651 OFFCURVE",
"375 651 CURVE SMOOTH",
"529 651 OFFCURVE",
"638 509 OFFCURVE",
"638 355 CURVE SMOOTH",
"638 209 OFFCURVE",
"536 58 OFFCURVE",
"375 58 CURVE SMOOTH",
"219 58 OFFCURVE",
"112 201 OFFCURVE",
"112 355 CURVE SMOOTH"
);
}
);
width = 751;
}
);
leftKerningGroup = C;
rightKerningGroup = O;
unicode = 004F;
},
{
glyphname = P;
lastChange = "2015-06-14 21:07:22 +0000";
layers = (
{
layerId = "1FDD38BC-4CDE-4118-9AAB-E6BB464D5960";
name = Regular;
paths = (
{
closed = 1;
nodes = (
"159 0 LINE",
"159 262 LINE",
"389 262 LINE SMOOTH",
"511 262 OFFCURVE",
"594 371 OFFCURVE",
"594 487 CURVE SMOOTH",
"594 597 OFFCURVE",
"505 710 OFFCURVE",
"383 710 CURVE SMOOTH",
"89 710 LINE",
"89 0 LINE"
);
},
{
closed = 1;
nodes = (
"159 648 LINE",
"380 648 LINE SMOOTH",
"458 648 OFFCURVE",
"524 576 OFFCURVE",
"524 487 CURVE SMOOTH",
"524 401 OFFCURVE",
"470 324 OFFCURVE",
"386 324 CURVE SMOOTH",
"159 324 LINE"
);
}
);
width = 622;
}
);
leftKerningGroup = B;
rightKerningGroup = P;
unicode = 0050;
},
{
glyphname = Q;
lastChange = "2015-06-14 21:07:22 +0000";
layers = (
{
layerId = "1FDD38BC-4CDE-4118-9AAB-E6BB464D5960";
name = Regular;
paths = (
{
closed = 1;
nodes = (
"633 -10 LINE",
"675 21 LINE",
"608 99 LINE",
"670 165 OFFCURVE",
"708 257 OFFCURVE",
"708 354 CURVE SMOOTH",
"708 532 OFFCURVE",
"574 715 OFFCURVE",
"376 715 CURVE SMOOTH",
"186 715 OFFCURVE",
"42 544 OFFCURVE",
"42 355 CURVE SMOOTH",
"42 173 OFFCURVE",
"177 -4 OFFCURVE",
"375 -5 CURVE SMOOTH",
"449 -5 OFFCURVE",
"515 21 OFFCURVE",
"569 63 CURVE"
);
},
{
closed = 1;
nodes = (
"219 58 OFFCURVE",
"112 201 OFFCURVE",
"112 355 CURVE SMOOTH",
"112 502 OFFCURVE",
"214 652 OFFCURVE",
"375 652 CURVE SMOOTH",
"529 652 OFFCURVE",
"638 509 OFFCURVE",
"638 355 CURVE SMOOTH",
"638 281 OFFCURVE",
"612 206 OFFCURVE",
"565 150 CURVE",
"496 229 LINE",
"453 196 LINE",
"528 112 LINE",
"486 79 OFFCURVE",
"435 58 OFFCURVE",
"375 58 CURVE SMOOTH"
);
}
);
width = 749;
}
);
leftKerningGroup = C;
rightKerningGroup = O;
unicode = 0051;
},
{
glyphname = R;
lastChange = "2015-06-14 21:07:22 +0000";
layers = (
{
anchors = (
{
name = bottom;
position = "{327, 0}";
},
{
name = top;
position = "{327, 710}";
}
);
layerId = "1FDD38BC-4CDE-4118-9AAB-E6BB464D5960";
name = Regular;
paths = (
{
closed = 1;
nodes = (
"159 0 LINE",
"159 262 LINE",
"369 262 LINE",
"536 0 LINE",
"615 0 LINE",
"441 274 LINE",
"536 293 OFFCURVE",
"599 384 OFFCURVE",
"599 487 CURVE SMOOTH",
"599 597 OFFCURVE",
"511 710 OFFCURVE",
"389 710 CURVE SMOOTH",
"89 710 LINE",
"89 0 LINE"
);
},
{
closed = 1;
nodes = (
"159 648 LINE",
"385 648 LINE SMOOTH",
"463 648 OFFCURVE",
"529 573 OFFCURVE",
"529 487 CURVE SMOOTH",
"529 403 OFFCURVE",
"475 324 OFFCURVE",
"391 324 CURVE SMOOTH",
"159 324 LINE"
);
}
);
width = 653;
}
);
leftKerningGroup = B;
rightKerningGroup = R;
unicode = 0052;
},
{
glyphname = T;
lastChange = "2015-06-14 21:07:22 +0000";
layers = (
{
layerId = "1FDD38BC-4CDE-4118-9AAB-E6BB464D5960";
name = Regular;
paths = (
{
closed = 1;
nodes = (
"593 710 LINE",
"17 710 LINE",
"17 648 LINE",
"270 648 LINE",
"270 0 LINE",
"340 0 LINE",
"340 648 LINE",
"593 648 LINE"
);
}
);
width = 610;
}
);
leftKerningGroup = T;
rightKerningGroup = T;
unicode = 0054;
},
{
glyphname = U;
lastChange = "2015-06-14 21:07:22 +0000";
layers = (
{
anchors = (
{
name = ogonek;
position = "{679, 10}";
},
{
name = top;
position = "{378, 710}";
}
);
layerId = "1FDD38BC-4CDE-4118-9AAB-E6BB464D5960";
name = Regular;
paths = (
{
closed = 1;
nodes = (
"201 58 OFFCURVE",
"148 203 OFFCURVE",
"148 352 CURVE SMOOTH",
"148 710 LINE",
"79 710 LINE",
"79 352 LINE SMOOTH",
"79 171 OFFCURVE",
"153 -5 OFFCURVE",
"378 -5 CURVE SMOOTH",
"596 -5 OFFCURVE",
"677 161 OFFCURVE",
"677 352 CURVE SMOOTH",
"677 710 LINE",
"607 710 LINE",
"607 352 LINE SMOOTH",
"607 207 OFFCURVE",
"557 58 OFFCURVE",
"377 58 CURVE SMOOTH"
);
}
);
width = 755;
}
);
leftKerningGroup = U;
rightKerningGroup = U;
unicode = 0055;
},
{
glyphname = V;
lastChange = "2015-06-14 21:07:22 +0000";
layers = (
{
layerId = "1FDD38BC-4CDE-4118-9AAB-E6BB464D5960";
name = Regular;
paths = (
{
closed = 1;
nodes = (
"13 710 LINE",
"309 0 LINE",
"370 0 LINE",
"666 710 LINE",
"593 710 LINE",
"340 87 LINE",
"86 710 LINE"
);
}
);
width = 679;
}
);
leftKerningGroup = V;
rightKerningGroup = V;
unicode = 0056;
},
{
glyphname = W;
lastChange = "2015-06-14 21:07:22 +0000";
layers = (
{
layerId = "1FDD38BC-4CDE-4118-9AAB-E6BB464D5960";
name = Regular;
paths = (
{
closed = 1;
nodes = (
"963 710 LINE",
"773 101 LINE",
"565 710 LINE",
"489 710 LINE",
"289 101 LINE",
"99 710 LINE",
"21 710 LINE",
"247 0 LINE",
"320 0 LINE",
"528 597 LINE",
"742 0 LINE",
"815 0 LINE",
"1041 710 LINE"
);
}
);
width = 1062;
}
);
leftKerningGroup = W.alt;
rightKerningGroup = W.alt;
unicode = 0057;
},
{
glyphname = X;
lastChange = "2015-06-14 21:07:22 +0000";
layers = (
{
layerId = "1FDD38BC-4CDE-4118-9AAB-E6BB464D5960";
name = Regular;
paths = (
{
closed = 1;
nodes = (
"5 710 LINE",
"278 350 LINE",
"13 0 LINE",
"92 0 LINE",
"317 300 LINE",
"542 0 LINE",
"619 0 LINE",
"354 350 LINE",
"627 710 LINE",
"550 710 LINE",
"317 400 LINE",
"84 710 LINE"
);
}
);
width = 632;
}
);
leftKerningGroup = X;
rightKerningGroup = X;
unicode = 0058;
},
{
glyphname = Y;
lastChange = "2015-06-14 21:07:22 +0000";
layers = (
{
layerId = "1FDD38BC-4CDE-4118-9AAB-E6BB464D5960";
name = Regular;
paths = (
{
closed = 1;
nodes = (
"16 710 LINE",
"290 266 LINE",
"290 0 LINE",
"360 0 LINE",
"360 264 LINE",
"635 710 LINE",
"559 710 LINE",
"325 328 LINE",
"93 710 LINE"
);
}
);
width = 651;
}
);
leftKerningGroup = Y;
rightKerningGroup = Y;
unicode = 0059;
},
{
glyphname = Z;
lastChange = "2015-06-14 21:07:22 +0000";
layers = (
{
layerId = "1FDD38BC-4CDE-4118-9AAB-E6BB464D5960";
name = Regular;
paths = (
{
closed = 1;
nodes = (
"31 0 LINE",
"594 0 LINE",
"594 62 LINE",
"118 62 LINE",
"595 655 LINE",
"595 710 LINE",
"39 710 LINE",
"39 648 LINE",
"514 648 LINE",
"31 55 LINE"
);
}
);
width = 629;
}
);
leftKerningGroup = Z;
rightKerningGroup = Z;
unicode = 005A;
},
{
glyphname = bracketleft;
lastChange = "2015-06-14 21:07:22 +0000";
layers = (
{
layerId = "1FDD38BC-4CDE-4118-9AAB-E6BB464D5960";
name = Regular;
paths = (
{
closed = 1;
nodes = (
"207 -40 LINE",
"207 17 LINE",
"152 17 LINE",
"152 683 LINE",
"207 683 LINE",
"207 740 LINE",
"88 740 LINE",
"88 -40 LINE"
);
}
);
width = 258;
}
);
rightKerningGroup = bracketleft;
unicode = 005B;
},
{
glyphname = backslash;
lastChange = "2015-06-14 21:07:22 +0000";
layers = (
{
layerId = "1FDD38BC-4CDE-4118-9AAB-E6BB464D5960";
name = Regular;
paths = (
{
closed = 1;
nodes = (
"339 -22 LINE SMOOTH",
"399 0 LINE SMOOTH",
"79 740 LINE",
"15 719 LINE"
);
}
);
width = 420;
}
);
leftKerningGroup = backslash;
rightKerningGroup = backslash;
unicode = 005C;
},
{
glyphname = bracketright;
lastChange = "2015-06-14 21:07:22 +0000";
layers = (
{
layerId = "1FDD38BC-4CDE-4118-9AAB-E6BB464D5960";
name = Regular;
paths = (
{
closed = 1;
nodes = (
"170 -40 LINE",
"170 740 LINE",
"50 740 LINE",
"50 683 LINE",
"106 683 LINE",
"106 17 LINE",
"50 17 LINE",
"50 -40 LINE"
);
}
);
width = 258;
}
);
leftKerningGroup = bracketright;
rightKerningGroup = numbersign;
unicode = 005D;
},
{
glyphname = asciicircum;
lastChange = "2015-06-14 21:07:22 +0000";
layers = (
{
layerId = "1FDD38BC-4CDE-4118-9AAB-E6BB464D5960";
name = Regular;
paths = (
{
closed = 1;
nodes = (
"101 303 LINE",
"270 646 LINE",
"436 303 LINE",
"496 303 LINE",
"299 710 LINE",
"241 710 LINE",
"43 303 LINE"
);
}
);
width = 539;
}
);
rightKerningGroup = numbersign;
unicode = 005E;
},
{
glyphname = underscore;
lastChange = "2015-06-14 21:07:22 +0000";
layers = (
{
layerId = "1FDD38BC-4CDE-4118-9AAB-E6BB464D5960";
name = Regular;
paths = (
{
closed = 1;
nodes = (
"446 -62 LINE",
"446 0 LINE",
"65 0 LINE",
"65 -62 LINE"
);
}
);
width = 511;
}
);
rightKerningGroup = numbersign;
unicode = 005F;
},
{
glyphname = grave;
lastChange = "2015-06-14 21:07:22 +0000";
layers = (
{
anchors = (
{
name = _top;
position = "{204, 521}";
}
);
layerId = "1FDD38BC-4CDE-4118-9AAB-E6BB464D5960";
name = Regular;
paths = (
{
closed = 1;
nodes = (
"215 596 LINE",
"126 751 LINE",
"32 751 LINE",
"175 596 LINE"
);
}
);
width = 222;
}
);
rightKerningGroup = numbersign;
unicode = 0060;
},
{
glyphname = a;
lastChange = "2015-06-14 21:07:22 +0000";
layers = (
{
anchors = (
{
name = ogonek;
position = "{488, 10}";
},
{
name = top;
position = "{271, 521}";
}
);
layerId = "1FDD38BC-4CDE-4118-9AAB-E6BB464D5960";
name = Regular;
paths = (
{
closed = 1;
nodes = (
"473 0 LINE",
"473 323 LINE SMOOTH",
"473 445 OFFCURVE",
"400 530 OFFCURVE",
"264 530 CURVE SMOOTH",
"192 530 OFFCURVE",
"126 501 OFFCURVE",
"67 462 CURVE",
"91 417 LINE",
"149 457 OFFCURVE",
"205 479 OFFCURVE",
"258 479 CURVE SMOOTH",
"350 479 OFFCURVE",
"405 419 OFFCURVE",
"405 329 CURVE SMOOTH",
"405 282 LINE",
"378 294 OFFCURVE",
"323 309 OFFCURVE",
"251 309 CURVE SMOOTH",
"148 309 OFFCURVE",
"33 262 OFFCURVE",
"33 152 CURVE SMOOTH",
"33 61 OFFCURVE",
"108 -10 OFFCURVE",
"206 -10 CURVE SMOOTH",
"283 -10 OFFCURVE",
"360 19 OFFCURVE",
"408 82 CURVE",
"408 0 LINE"
);
},
{
closed = 1;
nodes = (
"354 65 OFFCURVE",
"283 42 OFFCURVE",
"222 42 CURVE SMOOTH",
"156 42 OFFCURVE",
"98 88 OFFCURVE",
"98 157 CURVE SMOOTH",
"98 236 OFFCURVE",
"186 266 OFFCURVE",
"260 266 CURVE SMOOTH",
"308 266 OFFCURVE",
"358 257 OFFCURVE",
"405 239 CURVE",
"405 154 LINE SMOOTH",
"405 142 OFFCURVE",
"399 128 OFFCURVE",
"388 115 CURVE"
);
}
);
width = 542;
}
);
leftKerningGroup = a;
rightKerningGroup = a.alt2;
unicode = 0061;
},
{
glyphname = b;
lastChange = "2015-06-14 21:07:22 +0000";
layers = (
{
layerId = "1FDD38BC-4CDE-4118-9AAB-E6BB464D5960";
name = Regular;
paths = (
{
closed = 1;
nodes = (
"470 -10 OFFCURVE",
"577 113 OFFCURVE",
"577 259 CURVE SMOOTH",
"577 395 OFFCURVE",
"487 530 OFFCURVE",
"341 530 CURVE SMOOTH",
"255 530 OFFCURVE",
"189 482 OFFCURVE",
"143 412 CURVE",
"143 730 LINE",
"75 730 LINE",
"75 0 LINE",
"136 0 LINE",
"136 101 LINE",
"175 36 OFFCURVE",
"248 -10 OFFCURVE",
"330 -10 CURVE SMOOTH"
);
},
{
closed = 1;
nodes = (
"246 50 OFFCURVE",
"153 106 OFFCURVE",
"143 178 CURVE",
"143 340 LINE",
"176 410 OFFCURVE",
"240 470 OFFCURVE",
"322 470 CURVE SMOOTH",
"432 470 OFFCURVE",
"508 368 OFFCURVE",
"508 259 CURVE SMOOTH",
"508 152 OFFCURVE",
"428 50 OFFCURVE",
"314 50 CURVE SMOOTH"
);
}
);
width = 617;
}
);
leftKerningGroup = b;
rightKerningGroup = b;
unicode = 0062;
},
{
glyphname = c;
lastChange = "2015-06-14 21:07:22 +0000";
layers = (
{
anchors = (
{
name = bottom;
position = "{301, 0}";
},
{
name = top;
position = "{301, 521}";
}
);
layerId = "1FDD38BC-4CDE-4118-9AAB-E6BB464D5960";
name = Regular;
paths = (
{
closed = 1;
nodes = (
"39 114 OFFCURVE",
"149 -10 OFFCURVE",
"301 -10 CURVE SMOOTH",
"401 -10 OFFCURVE",
"488 44 OFFCURVE",
"517 119 CURVE",
"450 139 LINE",
"434 91 OFFCURVE",
"365 50 OFFCURVE",
"298 50 CURVE SMOOTH",
"195 50 OFFCURVE",
"108 144 OFFCURVE",
"108 262 CURVE SMOOTH",
"108 381 OFFCURVE",
"191 470 OFFCURVE",
"297 470 CURVE SMOOTH",
"361 470 OFFCURVE",
"417 438 OFFCURVE",
"446 385 CURVE",
"512 406 LINE",
"475 482 OFFCURVE",
"398 530 OFFCURVE",
"300 530 CURVE SMOOTH",
"146 530 OFFCURVE",
"39 410 OFFCURVE",
"39 262 CURVE SMOOTH"
);
}
);
width = 549;
}
);
leftKerningGroup = c;
rightKerningGroup = c;
unicode = 0063;
},
{
glyphname = d;
lastChange = "2015-06-14 21:07:22 +0000";
layers = (
{
layerId = "1FDD38BC-4CDE-4118-9AAB-E6BB464D5960";
name = Regular;
paths = (
{
closed = 1;
nodes = (
"543 0 LINE",
"543 730 LINE",
"475 730 LINE",
"475 412 LINE",
"432 477 OFFCURVE",
"365 530 OFFCURVE",
"277 530 CURVE SMOOTH",
"140 530 OFFCURVE",
"40 406 OFFCURVE",
"40 259 CURVE SMOOTH",
"40 119 OFFCURVE",
"144 -10 OFFCURVE",
"289 -10 CURVE SMOOTH",
"365 -10 OFFCURVE",
"435 33 OFFCURVE",
"475 97 CURVE",
"475 0 LINE"
);
},
{
closed = 1;
nodes = (
"475 179 LINE",
"467 108 OFFCURVE",
"373 50 OFFCURVE",
"304 50 CURVE SMOOTH",
"195 50 OFFCURVE",
"110 146 OFFCURVE",
"110 259 CURVE SMOOTH",
"110 365 OFFCURVE",
"183 470 OFFCURVE",
"295 470 CURVE SMOOTH",
"367 470 OFFCURVE",
"450 413 OFFCURVE",
"475 340 CURVE"
);
}
);
width = 618;
}
);
leftKerningGroup = d;
rightKerningGroup = numbersign;
unicode = 0064;
},
{
glyphname = e;
lastChange = "2015-06-14 21:07:22 +0000";
layers = (
{
anchors = (
{
name = bottom;
position = "{294, 0}";
},
{
name = ogonek;
position = "{528, 10}";
},
{
name = top;
position = "{299, 521}";
}
);
layerId = "1FDD38BC-4CDE-4118-9AAB-E6BB464D5960";
name = Regular;
paths = (
{
closed = 1;
nodes = (
"401 -10 OFFCURVE",
"490 44 OFFCURVE",
"522 120 CURVE",
"463 136 LINE",
"438 80 OFFCURVE",
"371 42 OFFCURVE",
"303 42 CURVE SMOOTH",
"203 42 OFFCURVE",
"119 124 OFFCURVE",
"110 236 CURVE",
"556 236 LINE",
"557 240 OFFCURVE",
"557 253 OFFCURVE",
"557 263 CURVE SMOOTH",
"557 406 OFFCURVE",
"452 530 OFFCURVE",
"299 530 CURVE SMOOTH",
"149 530 OFFCURVE",
"39 408 OFFCURVE",
"39 262 CURVE SMOOTH",
"39 114 OFFCURVE",
"149 -10 OFFCURVE",
"300 -10 CURVE SMOOTH"
);
},
{
closed = 1;
nodes = (
"109 288 LINE",
"116 398 OFFCURVE",
"198 477 OFFCURVE",
"300 477 CURVE SMOOTH",
"402 477 OFFCURVE",
"483 399 OFFCURVE",
"492 288 CURVE"
);
}
);
width = 587;
}
);
leftKerningGroup = c;
rightKerningGroup = e;
unicode = 0065;
},
{
glyphname = f;
lastChange = "2015-06-14 21:07:22 +0000";
layers = (
{
layerId = "1FDD38BC-4CDE-4118-9AAB-E6BB464D5960";
name = Regular;
paths = (
{
closed = 1;
nodes = (
"169 0 LINE",
"169 466 LINE",
"313 466 LINE",
"313 520 LINE",
"169 520 LINE",
"169 537 LINE SMOOTH",
"169 642 OFFCURVE",
"199 684 OFFCURVE",
"263 684 CURVE SMOOTH",
"290 684 OFFCURVE",
"310 674 OFFCURVE",
"328 660 CURVE",
"359 706 LINE",
"331 726 OFFCURVE",
"295 740 OFFCURVE",
"255 740 CURVE SMOOTH",
"160 740 OFFCURVE",
"101 676 OFFCURVE",
"101 535 CURVE SMOOTH",
"101 520 LINE",
"29 520 LINE",
"29 466 LINE",
"101 466 LINE",
"101 0 LINE"
);
}
);
width = 345;
}
);
leftKerningGroup = f;
rightKerningGroup = f;
unicode = 0066;
},
{
glyphname = g;
lastChange = "2015-06-14 21:07:22 +0000";
layers = (
{
anchors = (
{
name = top;
position = "{309, 521}";
}
);
layerId = "1FDD38BC-4CDE-4118-9AAB-E6BB464D5960";
name = Regular;
paths = (
{
closed = 1;
nodes = (
"359 -7 OFFCURVE",
"435 35 OFFCURVE",
"475 101 CURVE",
"475 -2 LINE SMOOTH",
"475 -114 OFFCURVE",
"389 -169 OFFCURVE",
"288 -169 CURVE SMOOTH",
"210 -169 OFFCURVE",
"137 -138 OFFCURVE",
"96 -72 CURVE",
"54 -105 LINE",
"100 -177 OFFCURVE",
"168 -223 OFFCURVE",
"288 -223 CURVE SMOOTH",
"427 -223 OFFCURVE",
"543 -147 OFFCURVE",
"543 -2 CURVE SMOOTH",
"543 521 LINE",
"482 521 LINE",
"482 412 LINE",
"436 479 OFFCURVE",
"371 530 OFFCURVE",
"282 530 CURVE SMOOTH",
"139 530 OFFCURVE",
"40 404 OFFCURVE",
"40 259 CURVE SMOOTH",
"40 122 OFFCURVE",
"141 -7 OFFCURVE",
"284 -7 CURVE SMOOTH"
);
},
{
closed = 1;
nodes = (
"195 50 OFFCURVE",
"109 146 OFFCURVE",
"109 258 CURVE SMOOTH",
"109 361 OFFCURVE",
"179 470 OFFCURVE",
"295 470 CURVE SMOOTH",
"370 470 OFFCURVE",
"446 415 OFFCURVE",
"475 340 CURVE",
"475 179 LINE",
"463 115 OFFCURVE",
"384 50 OFFCURVE",
"303 50 CURVE SMOOTH"
);
}
);
width = 618;
}
);
leftKerningGroup = d;
rightKerningGroup = g;
unicode = 0067;
},
{
glyphname = h;
lastChange = "2015-06-14 21:07:22 +0000";
layers = (
{
anchors = (
{
name = center;
position = "{292, 261}";
},
{
name = top;
position = "{303, 710}";
}
);
layerId = "1FDD38BC-4CDE-4118-9AAB-E6BB464D5960";
name = Regular;
paths = (
{
closed = 1;
nodes = (
"513 305 LINE SMOOTH",
"513 439 OFFCURVE",
"467 530 OFFCURVE",
"348 530 CURVE SMOOTH",
"263 530 OFFCURVE",
"184 481 OFFCURVE",
"143 403 CURVE",
"143 730 LINE",
"75 730 LINE",
"75 0 LINE",
"143 0 LINE",
"143 319 LINE",
"167 404 OFFCURVE",
"248 468 OFFCURVE",
"325 468 CURVE SMOOTH",
"403 468 OFFCURVE",
"445 409 OFFCURVE",
"445 291 CURVE SMOOTH",
"445 0 LINE",
"513 0 LINE"
);
}
);
width = 583;
}
);
leftKerningGroup = b;
rightKerningGroup = h;
unicode = 0068;
},
{
glyphname = i;
lastChange = "2015-06-14 21:07:22 +0000";
layers = (
{
components = (
{
name = dotaccent;
transform = "{1, 0, 0, 1, 26, 0}";
}
);
layerId = "1FDD38BC-4CDE-4118-9AAB-E6BB464D5960";
name = Regular;
paths = (
{
closed = 1;
nodes = (
"143 0 LINE",
"143 521 LINE",
"75 521 LINE",
"75 0 LINE"
);
}
);
width = 218;
}
);
leftKerningGroup = i;
rightKerningGroup = i;
unicode = 0069;
},
{
glyphname = j;
lastChange = "2015-06-14 21:07:22 +0000";
layers = (
{
components = (
{
name = dotaccent;
transform = "{1, 0, 0, 1, 26, 0}";
}
);
layerId = "1FDD38BC-4CDE-4118-9AAB-E6BB464D5960";
name = Regular;
paths = (
{
closed = 1;
nodes = (
"75 -213 LINE",
"143 -213 LINE",
"143 517 LINE",
"75 517 LINE"
);
}
);
width = 218;
}
);
leftKerningGroup = i;
rightKerningGroup = i;
unicode = 006A;
},
{
glyphname = k;
lastChange = "2015-06-14 21:07:22 +0000";
layers = (
{
anchors = (
{
name = bottom;
position = "{281, 0}";
}
);
layerId = "1FDD38BC-4CDE-4118-9AAB-E6BB464D5960";
name = Regular;
paths = (
{
closed = 1;
nodes = (
"521 0 LINE",
"300 307 LINE",
"513 520 LINE",
"436 520 LINE",
"143 234 LINE",
"143 730 LINE",
"75 730 LINE",
"75 0 LINE",
"143 0 LINE",
"143 163 LINE",
"255 267 LINE",
"447 0 LINE"
);
}
);
width = 530;
}
);
leftKerningGroup = b;
rightKerningGroup = k;
unicode = 006B;
},
{
glyphname = l;
lastChange = "2015-06-14 21:07:22 +0000";
layers = (
{
layerId = "1FDD38BC-4CDE-4118-9AAB-E6BB464D5960";
name = Regular;
paths = (
{
closed = 1;
nodes = (
"81 0 LINE",
"149 0 LINE",
"149 730 LINE",
"81 730 LINE"
);
}
);
width = 229;
}
);
rightKerningGroup = numbersign;
unicode = 006C;
},
{
glyphname = m;
lastChange = "2015-06-14 21:07:22 +0000";
layers = (
{
layerId = "1FDD38BC-4CDE-4118-9AAB-E6BB464D5960";
name = Regular;
paths = (
{
closed = 1;
nodes = (
"850 305 LINE SMOOTH",
"850 441 OFFCURVE",
"808 530 OFFCURVE",
"691 530 CURVE SMOOTH",
"606 530 OFFCURVE",
"538 484 OFFCURVE",
"490 396 CURVE",
"478 475 OFFCURVE",
"423 530 OFFCURVE",
"336 530 CURVE SMOOTH",
"252 530 OFFCURVE",
"180 483 OFFCURVE",
"137 403 CURVE",
"137 521 LINE",
"75 521 LINE",
"75 0 LINE",
"143 0 LINE",
"143 319 LINE",
"169 408 OFFCURVE",
"236 468 OFFCURVE",
"314 468 CURVE SMOOTH",
"391 468 OFFCURVE",
"428 414 OFFCURVE",
"428 291 CURVE SMOOTH",
"428 0 LINE",
"496 0 LINE",
"496 318 LINE",
"521 406 OFFCURVE",
"588 468 OFFCURVE",
"667 468 CURVE SMOOTH",
"743 468 OFFCURVE",
"782 412 OFFCURVE",
"782 291 CURVE SMOOTH",
"782 0 LINE",
"850 0 LINE"
);
}
);
width = 919;
}
);
leftKerningGroup = m;
rightKerningGroup = m;
unicode = 006D;
},
{
glyphname = n;
lastChange = "2015-06-14 21:07:22 +0000";
layers = (
{
anchors = (
{
name = bottom;
position = "{292, 0}";
},
{
name = top;
position = "{292, 521}";
}
);
layerId = "1FDD38BC-4CDE-4118-9AAB-E6BB464D5960";
name = Regular;
paths = (
{
closed = 1;
nodes = (
"513 305 LINE SMOOTH",
"513 442 OFFCURVE",
"474 530 OFFCURVE",
"358 530 CURVE SMOOTH",
"265 530 OFFCURVE",
"179 479 OFFCURVE",
"137 403 CURVE",
"137 521 LINE",
"75 521 LINE",
"75 0 LINE",
"143 0 LINE",
"143 319 LINE",
"168 405 OFFCURVE",
"253 468 OFFCURVE",
"333 468 CURVE SMOOTH",
"409 468 OFFCURVE",
"445 414 OFFCURVE",
"445 291 CURVE SMOOTH",
"445 0 LINE",
"513 0 LINE"
);
}
);
width = 583;
}
);
leftKerningGroup = m;
rightKerningGroup = m;
unicode = 006E;
},
{
glyphname = o;
lastChange = "2015-06-14 21:07:22 +0000";
layers = (
{
anchors = (
{
name = top;
position = "{298, 521}";
}
);
layerId = "1FDD38BC-4CDE-4118-9AAB-E6BB464D5960";
name = Regular;
paths = (
{
closed = 1;
nodes = (
"448 -10 OFFCURVE",
"556 114 OFFCURVE",
"556 259 CURVE SMOOTH",
"556 405 OFFCURVE",
"447 530 OFFCURVE",
"297 530 CURVE SMOOTH",
"148 530 OFFCURVE",
"39 405 OFFCURVE",
"39 259 CURVE SMOOTH",
"39 114 OFFCURVE",
"146 -10 OFFCURVE",
"297 -10 CURVE SMOOTH"
);
},
{
closed = 1;
nodes = (
"108 375 OFFCURVE",
"194 470 OFFCURVE",
"297 470 CURVE SMOOTH",
"401 470 OFFCURVE",
"487 376 OFFCURVE",
"487 260 CURVE SMOOTH",
"487 144 OFFCURVE",
"401 50 OFFCURVE",
"297 50 CURVE SMOOTH",
"193 50 OFFCURVE",
"108 142 OFFCURVE",
"108 258 CURVE SMOOTH"
);
}
);
width = 595;
}
);
leftKerningGroup = c;
rightKerningGroup = o;
unicode = 006F;
},
{
glyphname = p;
lastChange = "2015-06-14 21:07:22 +0000";
layers = (
{
layerId = "1FDD38BC-4CDE-4118-9AAB-E6BB464D5960";
name = Regular;
paths = (
{
closed = 1;
nodes = (
"481 -10 OFFCURVE",
"577 113 OFFCURVE",
"577 260 CURVE SMOOTH",
"577 399 OFFCURVE",
"473 530 OFFCURVE",
"330 530 CURVE SMOOTH",
"251 530 OFFCURVE",
"178 485 OFFCURVE",
"136 420 CURVE",
"136 521 LINE",
"75 521 LINE",
"75 -213 LINE",
"143 -213 LINE",
"143 108 LINE",
"184 41 OFFCURVE",
"254 -10 OFFCURVE",
"341 -10 CURVE SMOOTH"
);
},
{
closed = 1;
nodes = (
"245 50 OFFCURVE",
"174 107 OFFCURVE",
"143 181 CURVE",
"143 341 LINE",
"153 411 OFFCURVE",
"246 470 OFFCURVE",
"314 470 CURVE SMOOTH",
"423 470 OFFCURVE",
"508 372 OFFCURVE",
"508 260 CURVE SMOOTH",
"508 154 OFFCURVE",
"435 50 OFFCURVE",
"322 50 CURVE SMOOTH"
);
}
);
width = 617;
}
);
leftKerningGroup = m;
rightKerningGroup = b;
unicode = 0070;
},
{
glyphname = q;
lastChange = "2015-06-14 21:07:22 +0000";
layers = (
{
layerId = "1FDD38BC-4CDE-4118-9AAB-E6BB464D5960";
name = Regular;
paths = (
{
closed = 1;
nodes = (
"355 -10 OFFCURVE",
"424 31 OFFCURVE",
"474 108 CURVE",
"474 -213 LINE",
"542 -213 LINE",
"542 521 LINE",
"481 521 LINE",
"481 419 LINE",
"442 483 OFFCURVE",
"369 530 OFFCURVE",
"288 530 CURVE SMOOTH",
"149 530 OFFCURVE",
"40 405 OFFCURVE",
"40 260 CURVE SMOOTH",
"40 119 OFFCURVE",
"135 -10 OFFCURVE",
"276 -10 CURVE SMOOTH"
);
},
{
closed = 1;
nodes = (
"187 50 OFFCURVE",
"109 146 OFFCURVE",
"109 259 CURVE SMOOTH",
"109 365 OFFCURVE",
"189 470 OFFCURVE",
"301 470 CURVE SMOOTH",
"376 470 OFFCURVE",
"463 406 OFFCURVE",
"474 334 CURVE",
"474 173 LINE",
"439 106 OFFCURVE",
"378 50 OFFCURVE",
"297 50 CURVE SMOOTH"
);
}
);
width = 617;
}
);
leftKerningGroup = d;
rightKerningGroup = g;
unicode = 0071;
},
{
glyphname = r;
lastChange = "2015-06-14 21:07:22 +0000";
layers = (
{
layerId = "1FDD38BC-4CDE-4118-9AAB-E6BB464D5960";
name = Regular;
paths = (
{
closed = 1;
nodes = (
"335 523 LINE",
"330 524 OFFCURVE",
"327 524 OFFCURVE",
"322 524 CURVE SMOOTH",
"248 524 OFFCURVE",
"178 476 OFFCURVE",
"139 396 CURVE",
"139 521 LINE",
"75 521 LINE",
"75 0 LINE",
"143 0 LINE",
"143 324 LINE",
"171 408 OFFCURVE",
"244 458 OFFCURVE",
"335 461 CURVE"
);
}
);
width = 351;
}
);
leftKerningGroup = m;
rightKerningGroup = r;
unicode = 0072;
},
{
glyphname = s;
lastChange = "2015-06-14 21:07:22 +0000";
layers = (
{
layerId = "1FDD38BC-4CDE-4118-9AAB-E6BB464D5960";
name = Regular;
paths = (
{
closed = 1;
nodes = (
"371 -10 OFFCURVE",
"451 51 OFFCURVE",
"451 146 CURVE SMOOTH",
"451 235 OFFCURVE",
"382 261 OFFCURVE",
"248 293 CURVE SMOOTH",
"155 315 OFFCURVE",
"118 327 OFFCURVE",
"118 382 CURVE SMOOTH",
"118 450 OFFCURVE",
"175 479 OFFCURVE",
"246 479 CURVE SMOOTH",
"305 479 OFFCURVE",
"364 459 OFFCURVE",
"403 419 CURVE",
"436 459 LINE",
"396 501 OFFCURVE",
"328 530 OFFCURVE",
"248 530 CURVE SMOOTH",
"141 530 OFFCURVE",
"53 477 OFFCURVE",
"53 372 CURVE SMOOTH",
"53 290 OFFCURVE",
"107 269 OFFCURVE",
"228 239 CURVE SMOOTH",
"333 214 OFFCURVE",
"385 198 OFFCURVE",
"385 140 CURVE SMOOTH",
"385 78 OFFCURVE",
"330 42 OFFCURVE",
"247 42 CURVE SMOOTH",
"178 42 OFFCURVE",
"118 66 OFFCURVE",
"60 114 CURVE",
"29 68 LINE",
"85 17 OFFCURVE",
"167 -10 OFFCURVE",
"248 -10 CURVE SMOOTH"
);
}
);
width = 487;
}
);
leftKerningGroup = s;
rightKerningGroup = s;
unicode = 0073;
},
{
glyphname = t;
lastChange = "2015-06-14 21:07:22 +0000";
layers = (
{
layerId = "1FDD38BC-4CDE-4118-9AAB-E6BB464D5960";
name = Regular;
paths = (
{
closed = 1;
nodes = (
"286 64 OFFCURVE",
"264 54 OFFCURVE",
"238 54 CURVE SMOOTH",
"207 54 OFFCURVE",
"178 61 OFFCURVE",
"175 109 CURVE",
"175 467 LINE",
"295 467 LINE",
"295 521 LINE",
"175 521 LINE",
"175 654 LINE",
"107 654 LINE",
"107 521 LINE",
"35 521 LINE",
"35 467 LINE",
"107 467 LINE",
"107 105 LINE SMOOTH",
"107 36 OFFCURVE",
"158 -6 OFFCURVE",
"217 -6 CURVE SMOOTH",
"260 -6 OFFCURVE",
"298 8 OFFCURVE",
"320 18 CURVE",
"300 72 LINE"
);
}
);
width = 335;
}
);
leftKerningGroup = t;
rightKerningGroup = t;
unicode = 0074;
},
{
glyphname = u;
lastChange = "2015-06-14 21:07:22 +0000";
layers = (
{
anchors = (
{
name = ogonek;
position = "{531, 10}";
},
{
name = top;
position = "{295, 521}";
}
);
layerId = "1FDD38BC-4CDE-4118-9AAB-E6BB464D5960";
name = Regular;
paths = (
{
closed = 1;
nodes = (
"515 0 LINE",
"515 521 LINE",
"447 521 LINE",
"447 193 LINE",
"420 115 OFFCURVE",
"346 50 OFFCURVE",
"263 50 CURVE SMOOTH",
"161 50 OFFCURVE",
"138 129 OFFCURVE",
"138 227 CURVE SMOOTH",
"138 521 LINE",
"70 521 LINE",
"70 215 LINE SMOOTH",
"70 95 OFFCURVE",
"104 -10 OFFCURVE",
"241 -10 CURVE SMOOTH",
"326 -10 OFFCURVE",
"408 37 OFFCURVE",
"449 114 CURVE",
"449 0 LINE"
);
}
);
width = 590;
}
);
leftKerningGroup = u;
rightKerningGroup = g;
unicode = 0075;
},
{
glyphname = v;
lastChange = "2015-06-14 21:07:22 +0000";
layers = (
{
layerId = "1FDD38BC-4CDE-4118-9AAB-E6BB464D5960";
name = Regular;
paths = (
{
closed = 1;
nodes = (
"302 0 LINE",
"514 521 LINE",
"448 521 LINE",
"268 63 LINE",
"89 521 LINE",
"19 521 LINE",
"231 0 LINE"
);
}
);
width = 533;
}
);
leftKerningGroup = v;
rightKerningGroup = v;
unicode = 0076;
},
{
glyphname = w;
lastChange = "2015-06-14 21:07:22 +0000";
layers = (
{
layerId = "1FDD38BC-4CDE-4118-9AAB-E6BB464D5960";
name = Regular;
paths = (
{
closed = 1;
nodes = (
"624 0 LINE",
"807 521 LINE",
"736 521 LINE",
"586 85 LINE",
"447 521 LINE",
"382 521 LINE",
"243 85 LINE",
"93 521 LINE",
"22 521 LINE",
"205 0 LINE",
"276 0 LINE",
"415 418 LINE",
"552 0 LINE"
);
}
);
width = 829;
}
);
leftKerningGroup = w.alt;
rightKerningGroup = w.alt;
unicode = 0077;
},
{
glyphname = x;
lastChange = "2015-06-14 21:07:22 +0000";
layers = (
{
layerId = "1FDD38BC-4CDE-4118-9AAB-E6BB464D5960";
name = Regular;
paths = (
{
closed = 1;
nodes = (
"15 521 LINE",
"214 259 LINE",
"15 0 LINE",
"88 0 LINE",
"244 203 LINE",
"252 217 LINE",
"260 203 LINE",
"416 0 LINE",
"489 0 LINE",
"290 259 LINE",
"489 521 LINE",
"416 521 LINE",
"260 317 LINE",
"252 302 LINE",
"244 317 LINE",
"88 521 LINE"
);
}
);
width = 504;
}
);
leftKerningGroup = x;
rightKerningGroup = x;
unicode = 0078;
},
{
glyphname = y;
lastChange = "2015-06-14 21:07:22 +0000";
layers = (
{
layerId = "1FDD38BC-4CDE-4118-9AAB-E6BB464D5960";
name = Regular;
paths = (
{
closed = 1;
nodes = (
"92 -220 LINE",
"102 -222 OFFCURVE",
"124 -223 OFFCURVE",
"137 -223 CURVE SMOOTH",
"194 -223 OFFCURVE",
"232 -194 OFFCURVE",
"249 -151 CURVE SMOOTH",
"520 521 LINE",
"455 521 LINE",
"277 63 LINE",
"84 521 LINE",
"13 521 LINE",
"240 0 LINE",
"181 -146 OFFCURVE",
"179 -161 OFFCURVE",
"123 -161 CURVE SMOOTH",
"116 -161 OFFCURVE",
"104 -160 OFFCURVE",
"98 -159 CURVE"
);
}
);
width = 542;
}
);
leftKerningGroup = y;
rightKerningGroup = y;
unicode = 0079;
},
{
glyphname = z;
lastChange = "2015-06-14 21:07:22 +0000";
layers = (
{
layerId = "1FDD38BC-4CDE-4118-9AAB-E6BB464D5960";
name = Regular;
paths = (
{
closed = 1;
nodes = (
"31 0 LINE",
"456 0 LINE",
"456 51 LINE",
"106 51 LINE",
"457 475 LINE",
"457 521 LINE",
"39 521 LINE",
"39 470 LINE",
"383 470 LINE",
"31 46 LINE"
);
}
);
width = 492;
}
);
leftKerningGroup = z;
rightKerningGroup = z;
unicode = 007A;
},
{
glyphname = braceleft;
lastChange = "2015-06-14 21:07:22 +0000";
layers = (
{
layerId = "1FDD38BC-4CDE-4118-9AAB-E6BB464D5960";
name = Regular;
paths = (
{
closed = 1;
nodes = (
"209 683 LINE",
"209 740 LINE",
"115 740 LINE SMOOTH",
"108 740 OFFCURVE",
"92 735 OFFCURVE",
"92 710 CURVE SMOOTH",
"92 440 LINE SMOOTH",
"92 423 OFFCURVE",
"81 387 OFFCURVE",
"53 387 CURVE",
"53 335 LINE",
"78 332 OFFCURVE",
"92 306 OFFCURVE",
"92 280 CURVE SMOOTH",
"92 -1 LINE SMOOTH",
"92 -24 OFFCURVE",
"104 -31 OFFCURVE",
"115 -31 CURVE SMOOTH",
"209 -31 LINE",
"209 26 LINE",
"154 26 LINE",
"154 298 LINE SMOOTH",
"154 313 OFFCURVE",
"148 342 OFFCURVE",
"127 360 CURVE",
"148 379 OFFCURVE",
"154 406 OFFCURVE",
"154 422 CURVE SMOOTH",
"154 683 LINE"
);
}
);
width = 259;
}
);
rightKerningGroup = braceleft;
unicode = 007B;
},
{
glyphname = bar;
lastChange = "2015-06-14 21:07:22 +0000";
layers = (
{
layerId = "1FDD38BC-4CDE-4118-9AAB-E6BB464D5960";
name = Regular;
paths = (
{
closed = 1;
nodes = (
"145 -130 LINE",
"145 775 LINE",
"86 775 LINE",
"86 -130 LINE"
);
}
);
width = 231;
}
);
rightKerningGroup = numbersign;
unicode = 007C;
},
{
glyphname = braceright;
lastChange = "2015-06-14 21:07:22 +0000";
layers = (
{
layerId = "1FDD38BC-4CDE-4118-9AAB-E6BB464D5960";
name = Regular;
paths = (
{
closed = 1;
nodes = (
"105 683 LINE",
"105 422 LINE SMOOTH",
"105 406 OFFCURVE",
"110 379 OFFCURVE",
"131 360 CURVE",
"110 342 OFFCURVE",
"105 313 OFFCURVE",
"105 298 CURVE SMOOTH",
"105 26 LINE",
"50 26 LINE",
"50 -31 LINE",
"144 -31 LINE SMOOTH",
"154 -31 OFFCURVE",
"167 -24 OFFCURVE",
"167 -1 CURVE SMOOTH",
"167 280 LINE SMOOTH",
"167 306 OFFCURVE",
"180 332 OFFCURVE",
"205 335 CURVE",
"205 387 LINE",
"177 387 OFFCURVE",
"167 423 OFFCURVE",
"167 440 CURVE SMOOTH",
"167 710 LINE SMOOTH",
"167 735 OFFCURVE",
"150 740 OFFCURVE",
"144 740 CURVE SMOOTH",
"50 740 LINE",
"50 683 LINE"
);
}
);
width = 259;
}
);
leftKerningGroup = braceright;
rightKerningGroup = numbersign;
unicode = 007D;
},
{
glyphname = asciitilde;
lastChange = "2015-06-14 21:07:22 +0000";
layers = (
{
layerId = "1FDD38BC-4CDE-4118-9AAB-E6BB464D5960";
name = Regular;
paths = (
{
closed = 1;
nodes = (
"109 241 LINE",
"109 243 OFFCURVE",
"126 299 OFFCURVE",
"173 299 CURVE SMOOTH",
"221 299 OFFCURVE",
"267 241 OFFCURVE",
"333 241 CURVE SMOOTH",
"419 241 OFFCURVE",
"446 332 OFFCURVE",
"446 338 CURVE",
"403 338 LINE",
"403 333 OFFCURVE",
"385 286 OFFCURVE",
"334 286 CURVE SMOOTH",
"278 286 OFFCURVE",
"235 344 OFFCURVE",
"174 344 CURVE SMOOTH",
"95 344 OFFCURVE",
"66 254 OFFCURVE",
"66 241 CURVE"
);
}
);
width = 511;
}
);
rightKerningGroup = numbersign;
unicode = 007E;
},
{
glyphname = exclamdown;
lastChange = "2015-06-14 21:07:22 +0000";
layers = (
{
layerId = "1FDD38BC-4CDE-4118-9AAB-E6BB464D5960";
name = Regular;
paths = (
{
closed = 1;
nodes = (
"108 487 LINE",
"108 -2 LINE",
"176 -2 LINE",
"176 487 LINE"
);
},
{
closed = 1;
nodes = (
"172 608 OFFCURVE",
"196 632 OFFCURVE",
"196 661 CURVE SMOOTH",
"196 691 OFFCURVE",
"172 715 OFFCURVE",
"142 715 CURVE SMOOTH",
"113 715 OFFCURVE",
"89 691 OFFCURVE",
"89 661 CURVE SMOOTH",
"89 632 OFFCURVE",
"113 608 OFFCURVE",
"142 608 CURVE SMOOTH"
);
}
);
width = 280;
}
);
rightKerningGroup = exclamdown;
unicode = 00A1;
},
{
glyphname = cent;
lastChange = "2015-06-14 21:07:22 +0000";
layers = (
{
layerId = "1FDD38BC-4CDE-4118-9AAB-E6BB464D5960";
name = Regular;
paths = (
{
closed = 1;
nodes = (
"313 -120 LINE",
"313 -10 LINE",
"385 -10 OFFCURVE",
"490 33 OFFCURVE",
"522 119 CURVE",
"455 139 LINE",
"441 88 OFFCURVE",
"365 54 OFFCURVE",
"313 51 CURVE",
"313 468 LINE",
"370 465 OFFCURVE",
"420 439 OFFCURVE",
"451 385 CURVE",
"516 406 LINE",
"479 480 OFFCURVE",
"412 526 OFFCURVE",
"313 529 CURVE",
"313 645 LINE",
"276 645 LINE",
"276 529 LINE",
"133 516 OFFCURVE",
"43 393 OFFCURVE",
"43 258 CURVE SMOOTH",
"43 131 OFFCURVE",
"140 2 OFFCURVE",
"276 -9 CURVE",
"276 -120 LINE"
);
},
{
closed = 1;
nodes = (
"113 355 OFFCURVE",
"172 456 OFFCURVE",
"276 466 CURVE",
"276 54 LINE",
"182 69 OFFCURVE",
"113 159 OFFCURVE",
"113 258 CURVE SMOOTH"
);
}
);
width = 561;
}
);
rightKerningGroup = numbersign;
unicode = 00A2;
},
{
glyphname = sterling;
lastChange = "2015-06-14 21:07:22 +0000";
layers = (
{
layerId = "1FDD38BC-4CDE-4118-9AAB-E6BB464D5960";
name = Regular;
paths = (
{
closed = 1;
nodes = (
"52 318 LINE",
"168 318 LINE",
"174 298 OFFCURVE",
"178 277 OFFCURVE",
"178 254 CURVE SMOOTH",
"178 189 OFFCURVE",
"146 133 OFFCURVE",
"54 42 CURVE",
"72 -8 LINE",
"106 2 OFFCURVE",
"149 9 OFFCURVE",
"180 9 CURVE SMOOTH",
"242 9 OFFCURVE",
"287 -15 OFFCURVE",
"347 -15 CURVE SMOOTH",
"383 -15 OFFCURVE",
"422 -6 OFFCURVE",
"456 11 CURVE",
"439 63 LINE",
"403 51 OFFCURVE",
"377 45 OFFCURVE",
"350 45 CURVE SMOOTH",
"302 45 OFFCURVE",
"264 63 OFFCURVE",
"208 63 CURVE SMOOTH",
"184 63 OFFCURVE",
"159 60 OFFCURVE",
"135 54 CURVE",
"211 136 OFFCURVE",
"238 191 OFFCURVE",
"238 258 CURVE SMOOTH",
"238 279 OFFCURVE",
"235 299 OFFCURVE",
"230 318 CURVE",
"388 318 LINE",
"388 372 LINE",
"210 372 LINE",
"182 433 OFFCURVE",
"141 481 OFFCURVE",
"141 540 CURVE SMOOTH",
"141 606 OFFCURVE",
"192 658 OFFCURVE",
"257 658 CURVE SMOOTH",
"312 658 OFFCURVE",
"368 623 OFFCURVE",
"400 568 CURVE",
"440 610 LINE",
"400 675 OFFCURVE",
"331 715 OFFCURVE",
"259 715 CURVE SMOOTH",
"159 715 OFFCURVE",
"78 639 OFFCURVE",
"78 544 CURVE SMOOTH",
"78 480 OFFCURVE",
"116 429 OFFCURVE",
"146 372 CURVE",
"52 372 LINE"
);
}
);
width = 499;
}
);
rightKerningGroup = numbersign;
unicode = 00A3;
},
{
glyphname = currency;
lastChange = "2015-06-14 21:07:22 +0000";
layers = (
{
layerId = "1FDD38BC-4CDE-4118-9AAB-E6BB464D5960";
name = Regular;
paths = (
{
closed = 1;
nodes = (
"86 551 LINE",
"53 518 LINE",
"123 447 LINE",
"100 416 OFFCURVE",
"88 378 OFFCURVE",
"88 336 CURVE SMOOTH",
"88 295 OFFCURVE",
"101 257 OFFCURVE",
"124 225 CURVE",
"53 154 LINE",
"83 125 LINE",
"154 194 LINE",
"185 170 OFFCURVE",
"223 155 OFFCURVE",
"268 155 CURVE SMOOTH",
"313 155 OFFCURVE",
"352 170 OFFCURVE",
"381 194 CURVE",
"455 125 LINE",
"485 154 LINE",
"412 226 LINE",
"435 257 OFFCURVE",
"448 296 OFFCURVE",
"448 336 CURVE SMOOTH",
"448 377 OFFCURVE",
"435 416 OFFCURVE",
"413 446 CURVE",
"485 518 LINE",
"451 551 LINE",
"381 480 LINE",
"350 504 OFFCURVE",
"312 519 OFFCURVE",
"268 519 CURVE SMOOTH",
"224 519 OFFCURVE",
"185 505 OFFCURVE",
"156 480 CURVE"
);
},
{
closed = 1;
nodes = (
"145 411 OFFCURVE",
"200 470 OFFCURVE",
"268 470 CURVE SMOOTH",
"336 470 OFFCURVE",
"391 412 OFFCURVE",
"391 337 CURVE SMOOTH",
"391 263 OFFCURVE",
"336 203 OFFCURVE",
"268 203 CURVE SMOOTH",
"200 203 OFFCURVE",
"145 262 OFFCURVE",
"145 335 CURVE SMOOTH"
);
}
);
width = 537;
}
);
rightKerningGroup = numbersign;
unicode = 00A4;
},
{
glyphname = yen;
lastChange = "2015-06-14 21:07:22 +0000";
layers = (
{
layerId = "1FDD38BC-4CDE-4118-9AAB-E6BB464D5960";
name = Regular;
paths = (
{
closed = 1;
nodes = (
"648 710 LINE",
"571 710 LINE",
"337 328 LINE",
"105 710 LINE",
"29 710 LINE",
"245 366 LINE",
"159 366 LINE",
"159 318 LINE",
"271 318 LINE",
"302 266 LINE",
"302 237 LINE",
"159 237 LINE",
"159 189 LINE",
"302 189 LINE",
"302 0 LINE",
"372 0 LINE",
"372 189 LINE",
"517 189 LINE",
"517 237 LINE",
"372 237 LINE",
"372 264 LINE",
"405 318 LINE",
"516 318 LINE",
"516 366 LINE",
"432 366 LINE"
);
}
);
width = 676;
}
);
rightKerningGroup = numbersign;
unicode = 00A5;
},
{
glyphname = brokenbar;
lastChange = "2015-06-14 21:07:22 +0000";
layers = (
{
layerId = "1FDD38BC-4CDE-4118-9AAB-E6BB464D5960";
name = Regular;
paths = (
{
closed = 1;
nodes = (
"87 277 LINE",
"87 -130 LINE",
"147 -130 LINE",
"147 277 LINE"
);
},
{
closed = 1;
nodes = (
"87 775 LINE",
"87 368 LINE",
"147 368 LINE",
"147 775 LINE"
);
}
);
width = 234;
}
);
rightKerningGroup = numbersign;
unicode = 00A6;
},
{
glyphname = section;
lastChange = "2015-06-14 21:07:22 +0000";
layers = (
{
layerId = "1FDD38BC-4CDE-4118-9AAB-E6BB464D5960";
name = Regular;
paths = (
{
closed = 1;
nodes = (
"434 214 OFFCURVE",
"447 248 OFFCURVE",
"447 289 CURVE SMOOTH",
"447 406 OFFCURVE",
"340 434 OFFCURVE",
"247 442 CURVE SMOOTH",
"195 446 OFFCURVE",
"115 456 OFFCURVE",
"115 540 CURVE SMOOTH",
"115 615 OFFCURVE",
"179 653 OFFCURVE",
"249 653 CURVE SMOOTH",
"295 653 OFFCURVE",
"352 637 OFFCURVE",
"373 595 CURVE",
"427 620 LINE",
"393 671 OFFCURVE",
"334 715 OFFCURVE",
"249 715 CURVE SMOOTH",
"141 715 OFFCURVE",
"47 645 OFFCURVE",
"47 542 CURVE SMOOTH",
"47 491 OFFCURVE",
"70 447 OFFCURVE",
"98 427 CURVE",
"84 409 OFFCURVE",
"72 378 OFFCURVE",
"72 338 CURVE SMOOTH",
"72 240 OFFCURVE",
"143 190 OFFCURVE",
"267 179 CURVE SMOOTH",
"318 175 OFFCURVE",
"393 168 OFFCURVE",
"393 90 CURVE SMOOTH",
"393 16 OFFCURVE",
"324 -23 OFFCURVE",
"255 -23 CURVE SMOOTH",
"204 -23 OFFCURVE",
"155 -1 OFFCURVE",
"107 45 CURVE",
"62 3 LINE",
"103 -39 OFFCURVE",
"170 -88 OFFCURVE",
"258 -88 CURVE SMOOTH",
"349 -88 OFFCURVE",
"463 -35 OFFCURVE",
"463 93 CURVE SMOOTH",
"463 140 OFFCURVE",
"448 176 OFFCURVE",
"417 195 CURVE"
);
},
{
closed = 1;
nodes = (
"138 360 OFFCURVE",
"148 386 OFFCURVE",
"163 400 CURVE",
"194 388 OFFCURVE",
"218 387 OFFCURVE",
"249 386 CURVE SMOOTH",
"307 384 OFFCURVE",
"382 364 OFFCURVE",
"382 287 CURVE SMOOTH",
"382 259 OFFCURVE",
"372 230 OFFCURVE",
"353 215 CURVE",
"289 240 OFFCURVE",
"138 210 OFFCURVE",
"138 329 CURVE SMOOTH"
);
}
);
width = 506;
}
);
rightKerningGroup = numbersign;
unicode = 00A7;
},
{
glyphname = dieresis;
lastChange = "2015-06-14 21:07:22 +0000";
layers = (
{
anchors = (
{
name = _top;
position = "{165, 521}";
}
);
layerId = "1FDD38BC-4CDE-4118-9AAB-E6BB464D5960";
name = Regular;
paths = (
{
closed = 1;
nodes = (
"98 636 OFFCURVE",
"118 656 OFFCURVE",
"118 681 CURVE SMOOTH",
"118 706 OFFCURVE",
"98 726 OFFCURVE",
"73 726 CURVE SMOOTH",
"48 726 OFFCURVE",
"28 706 OFFCURVE",
"28 681 CURVE SMOOTH",
"28 656 OFFCURVE",
"48 636 OFFCURVE",
"73 636 CURVE SMOOTH"
);
},
{
closed = 1;
nodes = (
"281 636 OFFCURVE",
"301 656 OFFCURVE",
"301 681 CURVE SMOOTH",
"301 706 OFFCURVE",
"281 726 OFFCURVE",
"256 726 CURVE SMOOTH",
"231 726 OFFCURVE",
"211 706 OFFCURVE",
"211 681 CURVE SMOOTH",
"211 656 OFFCURVE",
"231 636 OFFCURVE",
"256 636 CURVE SMOOTH"
);
}
);
width = 329;
}
);
rightKerningGroup = numbersign;
unicode = 00A8;
},
{
glyphname = copyright;
lastChange = "2015-06-14 21:07:22 +0000";
layers = (
{
layerId = "1FDD38BC-4CDE-4118-9AAB-E6BB464D5960";
name = Regular;
paths = (
{
closed = 1;
nodes = (
"627 -7 OFFCURVE",
"784 148 OFFCURVE",
"784 355 CURVE SMOOTH",
"784 561 OFFCURVE",
"627 715 OFFCURVE",
"415 715 CURVE SMOOTH",
"204 715 OFFCURVE",
"48 561 OFFCURVE",
"48 355 CURVE SMOOTH",
"48 148 OFFCURVE",
"204 -7 OFFCURVE",
"415 -7 CURVE SMOOTH"
);
},
{
closed = 1;
nodes = (
"224 26 OFFCURVE",
"83 167 OFFCURVE",
"83 354 CURVE SMOOTH",
"83 542 OFFCURVE",
"225 682 OFFCURVE",
"415 682 CURVE SMOOTH",
"607 682 OFFCURVE",
"749 542 OFFCURVE",
"749 353 CURVE SMOOTH",
"749 159 OFFCURVE",
"603 26 OFFCURVE",
"415 26 CURVE SMOOTH"
);
},
{
closed = 1;
nodes = (
"524 123 OFFCURVE",
"597 190 OFFCURVE",
"616 239 CURVE",
"550 258 LINE",
"528 211 OFFCURVE",
"469 182 OFFCURVE",
"419 182 CURVE SMOOTH",
"347 182 OFFCURVE",
"259 245 OFFCURVE",
"259 355 CURVE SMOOTH",
"259 439 OFFCURVE",
"311 529 OFFCURVE",
"417 529 CURVE SMOOTH",
"456 529 OFFCURVE",
"516 516 OFFCURVE",
"543 457 CURVE",
"609 478 LINE",
"578 550 OFFCURVE",
"504 589 OFFCURVE",
"417 589 CURVE SMOOTH",
"262 589 OFFCURVE",
"189 467 OFFCURVE",
"189 355 CURVE SMOOTH",
"189 214 OFFCURVE",
"301 123 OFFCURVE",
"423 123 CURVE SMOOTH"
);
}
);
width = 832;
}
);
leftKerningGroup = copyright;
rightKerningGroup = numbersign;
unicode = 00A9;
},
{
glyphname = ordfeminine;
lastChange = "2015-06-14 21:07:22 +0000";
layers = (
{
layerId = "1FDD38BC-4CDE-4118-9AAB-E6BB464D5960";
name = Regular;
paths = (
{
closed = 1;
nodes = (
"222 346 OFFCURVE",
"274 369 OFFCURVE",
"307 411 CURVE",
"308 352 LINE",
"358 352 LINE",
"358 569 LINE SMOOTH",
"358 659 OFFCURVE",
"301 710 OFFCURVE",
"208 710 CURVE SMOOTH",
"161 710 OFFCURVE",
"116 695 OFFCURVE",
"69 664 CURVE",
"89 627 LINE",
"129 654 OFFCURVE",
"166 668 OFFCURVE",
"203 668 CURVE SMOOTH",
"263 668 OFFCURVE",
"298 632 OFFCURVE",
"298 575 CURVE SMOOTH",
"298 547 LINE",
"271 559 OFFCURVE",
"233 565 OFFCURVE",
"197 565 CURVE SMOOTH",
"110 565 OFFCURVE",
"48 520 OFFCURVE",
"48 456 CURVE SMOOTH",
"48 394 OFFCURVE",
"100 346 OFFCURVE",
"166 346 CURVE SMOOTH"
);
},
{
closed = 1;
nodes = (
"138 391 OFFCURVE",
"104 421 OFFCURVE",
"104 460 CURVE SMOOTH",
"104 501 OFFCURVE",
"145 528 OFFCURVE",
"206 528 CURVE SMOOTH",
"238 528 OFFCURVE",
"271 524 OFFCURVE",
"298 512 CURVE",
"298 460 LINE SMOOTH",
"298 452 OFFCURVE",
"294 442 OFFCURVE",
"286 434 CURVE",
"266 408 OFFCURVE",
"225 391 OFFCURVE",
"182 391 CURVE SMOOTH"
);
}
);
width = 434;
}
);
leftKerningGroup = ordfeminine;
rightKerningGroup = numbersign;
unicode = 00AA;
},
{
glyphname = guillemotleft;
lastChange = "2015-06-14 21:07:22 +0000";
layers = (
{
layerId = "1FDD38BC-4CDE-4118-9AAB-E6BB464D5960";
name = Regular;
paths = (
{
closed = 1;
nodes = (
"41 239 LINE",
"289 66 LINE",
"289 125 LINE",
"96 259 LINE",
"289 395 LINE",
"289 454 LINE",
"41 276 LINE"
);
},
{
closed = 1;
nodes = (
"261 239 LINE",
"510 66 LINE",
"510 125 LINE",
"317 259 LINE",
"510 395 LINE",
"510 454 LINE",
"261 276 LINE"
);
}
);
width = 573;
}
);
leftKerningGroup = guillemotleft;
rightKerningGroup = guillemotleft;
unicode = 00AB;
},
{
glyphname = logicalnot;
lastChange = "2015-06-14 21:07:22 +0000";
layers = (
{
layerId = "1FDD38BC-4CDE-4118-9AAB-E6BB464D5960";
name = Regular;
paths = (
{
closed = 1;
nodes = (
"73 364 LINE",
"73 302 LINE",
"452 302 LINE",
"452 126 LINE",
"512 126 LINE",
"512 364 LINE"
);
}
);
width = 582;
}
);
rightKerningGroup = numbersign;
unicode = 00AC;
},
{
glyphname = uni00AD;
lastChange = "2015-06-14 21:07:22 +0000";
layers = (
{
layerId = "1FDD38BC-4CDE-4118-9AAB-E6BB464D5960";
name = Regular;
paths = (
{
closed = 1;
nodes = (
"504 241 LINE",
"504 304 LINE",
"65 304 LINE",
"65 241 LINE"
);
}
);
width = 570;
}
);
leftKerningGroup = hyphen;
rightKerningGroup = hyphen;
unicode = 00AD;
},
{
glyphname = registered;
lastChange = "2015-06-14 21:07:22 +0000";
layers = (
{
layerId = "1FDD38BC-4CDE-4118-9AAB-E6BB464D5960";
name = Regular;
paths = (
{
closed = 1;
nodes = (
"627 -7 OFFCURVE",
"784 148 OFFCURVE",
"784 355 CURVE SMOOTH",
"784 561 OFFCURVE",
"627 715 OFFCURVE",
"416 715 CURVE SMOOTH",
"204 715 OFFCURVE",
"48 561 OFFCURVE",
"48 355 CURVE SMOOTH",
"48 148 OFFCURVE",
"204 -7 OFFCURVE",
"416 -7 CURVE SMOOTH"
);
},
{
closed = 1;
nodes = (
"224 25 OFFCURVE",
"84 167 OFFCURVE",
"84 355 CURVE SMOOTH",
"84 541 OFFCURVE",
"224 682 OFFCURVE",
"416 682 CURVE SMOOTH",
"607 682 OFFCURVE",
"748 541 OFFCURVE",
"748 354 CURVE SMOOTH",
"748 158 OFFCURVE",
"603 25 OFFCURVE",
"416 25 CURVE SMOOTH"
);
},
{
closed = 1;
nodes = (
"263 127 LINE",
"316 127 LINE",
"316 295 LINE",
"433 295 LINE",
"539 127 LINE",
"597 127 LINE",
"486 302 LINE",
"547 314 OFFCURVE",
"589 372 OFFCURVE",
"589 437 CURVE SMOOTH",
"589 507 OFFCURVE",
"532 580 OFFCURVE",
"454 580 CURVE SMOOTH",
"263 580 LINE"
);
},
{
closed = 1;
nodes = (
"316 341 LINE",
"316 532 LINE",
"450 532 LINE SMOOTH",
"500 532 OFFCURVE",
"537 492 OFFCURVE",
"537 437 CURVE SMOOTH",
"537 383 OFFCURVE",
"508 341 OFFCURVE",
"454 341 CURVE SMOOTH"
);
}
);
width = 832;
}
);
leftKerningGroup = registered;
rightKerningGroup = numbersign;
unicode = 00AE;
},
{
glyphname = macron;
lastChange = "2015-06-14 21:07:22 +0000";
layers = (
{
anchors = (
{
name = _top;
position = "{199, 521}";
}
);
layerId = "1FDD38BC-4CDE-4118-9AAB-E6BB464D5960";
name = Regular;
paths = (
{
closed = 1;
nodes = (
"343 663 LINE",
"343 710 LINE",
"54 710 LINE",
"54 663 LINE"
);
}
);
width = 396;
}
);
rightKerningGroup = numbersign;
unicode = 00AF;
},
{
glyphname = degree;
lastChange = "2015-06-14 21:07:22 +0000";
layers = (
{
layerId = "1FDD38BC-4CDE-4118-9AAB-E6BB464D5960";
name = Regular;
paths = (
{
closed = 1;
nodes = (
"50 594 OFFCURVE",
"87 558 OFFCURVE",
"133 558 CURVE SMOOTH",
"180 558 OFFCURVE",
"216 594 OFFCURVE",
"216 642 CURVE SMOOTH",
"216 688 OFFCURVE",
"180 724 OFFCURVE",
"133 724 CURVE SMOOTH",
"87 724 OFFCURVE",
"50 688 OFFCURVE",
"50 642 CURVE SMOOTH"
);
},
{
closed = 1;
nodes = (
"110 681 OFFCURVE",
"120 685 OFFCURVE",
"133 685 CURVE SMOOTH",
"145 685 OFFCURVE",
"157 681 OFFCURVE",
"165 672 CURVE SMOOTH",
"172 664 OFFCURVE",
"177 653 OFFCURVE",
"177 641 CURVE SMOOTH",
"177 629 OFFCURVE",
"172 618 OFFCURVE",
"165 610 CURVE",
"157 602 OFFCURVE",
"145 597 OFFCURVE",
"133 597 CURVE SMOOTH",
"120 597 OFFCURVE",
"110 602 OFFCURVE",
"102 610 CURVE SMOOTH",
"94 618 OFFCURVE",
"89 629 OFFCURVE",
"89 641 CURVE SMOOTH",
"89 653 OFFCURVE",
"94 664 OFFCURVE",
"102 672 CURVE"
);
}
);
width = 266;
}
);
rightKerningGroup = numbersign;
unicode = 00B0;
},
{
glyphname = plusminus;
lastChange = "2015-06-14 21:07:22 +0000";
layers = (
{
layerId = "1FDD38BC-4CDE-4118-9AAB-E6BB464D5960";
name = Regular;
paths = (
{
closed = 1;
nodes = (
"395 61 LINE",
"395 118 LINE",
"72 118 LINE",
"72 61 LINE"
);
},
{
closed = 1;
nodes = (
"265 393 LINE",
"265 533 LINE",
"202 533 LINE",
"202 393 LINE",
"72 393 LINE",
"72 336 LINE",
"202 336 LINE",
"202 196 LINE",
"265 196 LINE",
"265 336 LINE",
"395 336 LINE",
"395 393 LINE"
);
}
);
width = 467;
}
);
rightKerningGroup = numbersign;
unicode = 00B1;
},
{
glyphname = twosuperior;
lastChange = "2015-06-14 21:07:22 +0000";
layers = (
{
layerId = "1FDD38BC-4CDE-4118-9AAB-E6BB464D5960";
name = Regular;
paths = (
{
closed = 1;
nodes = (
"344 407 LINE",
"344 450 LINE",
"91 450 LINE",
"91 487 OFFCURVE",
"119 534 OFFCURVE",
"208 563 CURVE SMOOTH",
"263 581 OFFCURVE",
"349 609 OFFCURVE",
"349 692 CURVE SMOOTH",
"349 760 OFFCURVE",
"300 811 OFFCURVE",
"203 811 CURVE SMOOTH",
"105 811 OFFCURVE",
"50 757 OFFCURVE",
"40 743 CURVE",
"70 712 LINE",
"90 734 OFFCURVE",
"130 767 OFFCURVE",
"197 767 CURVE SMOOTH",
"265 767 OFFCURVE",
"299 734 OFFCURVE",
"299 693 CURVE SMOOTH",
"299 631 OFFCURVE",
"223 614 OFFCURVE",
"162 590 CURVE SMOOTH",
"77 557 OFFCURVE",
"36 510 OFFCURVE",
"36 407 CURVE"
);
}
);
width = 388;
}
);
rightKerningGroup = numbersign;
unicode = 00B2;
},
{
glyphname = threesuperior;
lastChange = "2015-06-14 21:07:22 +0000";
layers = (
{
layerId = "1FDD38BC-4CDE-4118-9AAB-E6BB464D5960";
name = Regular;
paths = (
{
closed = 1;
nodes = (
"276 401 OFFCURVE",
"351 442 OFFCURVE",
"351 511 CURVE SMOOTH",
"351 562 OFFCURVE",
"311 604 OFFCURVE",
"249 613 CURVE",
"308 625 OFFCURVE",
"340 655 OFFCURVE",
"340 701 CURVE SMOOTH",
"340 764 OFFCURVE",
"274 811 OFFCURVE",
"186 811 CURVE SMOOTH",
"122 811 OFFCURVE",
"63 787 OFFCURVE",
"39 748 CURVE",
"69 714 LINE",
"89 747 OFFCURVE",
"131 770 OFFCURVE",
"186 770 CURVE SMOOTH",
"243 770 OFFCURVE",
"292 742 OFFCURVE",
"292 698 CURVE SMOOTH",
"292 654 OFFCURVE",
"241 632 OFFCURVE",
"157 632 CURVE SMOOTH",
"134 632 LINE",
"134 591 LINE",
"157 591 LINE SMOOTH",
"247 591 OFFCURVE",
"306 564 OFFCURVE",
"306 517 CURVE SMOOTH",
"306 474 OFFCURVE",
"254 446 OFFCURVE",
"189 446 CURVE SMOOTH",
"116 446 OFFCURVE",
"66 486 OFFCURVE",
"62 519 CURVE",
"35 490 LINE",
"45 436 OFFCURVE",
"107 401 OFFCURVE",
"190 401 CURVE SMOOTH"
);
}
);
width = 390;
}
);
rightKerningGroup = numbersign;
unicode = 00B3;
},
{
glyphname = acute;
lastChange = "2015-06-14 21:07:22 +0000";
layers = (
{
anchors = (
{
name = _top;
position = "{55, 521}";
}
);
layerId = "1FDD38BC-4CDE-4118-9AAB-E6BB464D5960";
name = Regular;
paths = (
{
closed = 1;
nodes = (
"215 751 LINE",
"121 751 LINE",
"32 596 LINE",
"72 596 LINE"
);
}
);
width = 222;
}
);
rightKerningGroup = numbersign;
unicode = 00B4;
},
{
glyphname = mu;
lastChange = "2015-06-14 21:07:22 +0000";
layers = (
{
layerId = "1FDD38BC-4CDE-4118-9AAB-E6BB464D5960";
name = Regular;
paths = (
{
closed = 1;
nodes = (
"528 521 LINE",
"460 521 LINE",
"460 193 LINE",
"429 106 OFFCURVE",
"352 50 OFFCURVE",
"273 50 CURVE SMOOTH",
"190 50 OFFCURVE",
"150 108 OFFCURVE",
"150 227 CURVE SMOOTH",
"150 521 LINE",
"82 521 LINE",
"82 -212 LINE",
"146 -212 LINE",
"146 75 LINE",
"164 25 OFFCURVE",
"205 -10 OFFCURVE",
"269 -10 CURVE SMOOTH",
"352 -10 OFFCURVE",
"433 47 OFFCURVE",
"468 118 CURVE",
"468 0 LINE",
"528 0 LINE"
);
}
);
width = 620;
}
);
rightKerningGroup = numbersign;
unicode = 00B5;
},
{
glyphname = paragraph;
lastChange = "2015-06-14 21:07:22 +0000";
layers = (
{
layerId = "1FDD38BC-4CDE-4118-9AAB-E6BB464D5960";
name = Regular;
paths = (
{
closed = 1;
nodes = (
"34 323 OFFCURVE",
"134 233 OFFCURVE",
"294 231 CURVE",
"294 -80 LINE",
"353 -80 LINE",
"353 231 LINE",
"427 231 LINE",
"427 -80 LINE",
"487 -80 LINE",
"487 656 LINE",
"557 656 LINE",
"557 710 LINE",
"316 710 LINE SMOOTH",
"138 710 OFFCURVE",
"34 620 OFFCURVE",
"34 469 CURVE SMOOTH"
);
},
{
closed = 1;
nodes = (
"93 584 OFFCURVE",
"164 655 OFFCURVE",
"294 656 CURVE",
"294 285 LINE",
"185 291 OFFCURVE",
"93 347 OFFCURVE",
"93 471 CURVE SMOOTH"
);
},
{
closed = 1;
nodes = (
"427 285 LINE",
"353 285 LINE",
"353 656 LINE",
"427 656 LINE"
);
}
);
width = 602;
}
);
rightKerningGroup = numbersign;
unicode = 00B6;
},
{
glyphname = periodcentered;
lastChange = "2015-06-14 21:07:22 +0000";
layers = (
{
layerId = "1FDD38BC-4CDE-4118-9AAB-E6BB464D5960";
name = Regular;
paths = (
{
closed = 1;
nodes = (
"125 252 OFFCURVE",
"147 274 OFFCURVE",
"147 302 CURVE SMOOTH",
"147 329 OFFCURVE",
"125 352 OFFCURVE",
"97 352 CURVE SMOOTH",
"69 352 OFFCURVE",
"47 329 OFFCURVE",
"47 302 CURVE SMOOTH",
"47 274 OFFCURVE",
"69 252 OFFCURVE",
"97 252 CURVE SMOOTH"
);
}
);
width = 189;
}
);
leftKerningGroup = periodcentered;
rightKerningGroup = periodcentered;
unicode = 00B7;
},
{
glyphname = cedilla;
lastChange = "2015-06-14 21:07:22 +0000";
layers = (
{
layerId = "1FDD38BC-4CDE-4118-9AAB-E6BB464D5960";
name = Regular;
paths = (
{
closed = 1;
nodes = (
"22 -157 LINE",
"48 -167 OFFCURVE",
"83 -176 OFFCURVE",
"121 -176 CURVE SMOOTH",
"187 -176 OFFCURVE",
"223 -151 OFFCURVE",
"223 -106 CURVE SMOOTH",
"223 -66 OFFCURVE",
"193 -45 OFFCURVE",
"147 -45 CURVE SMOOTH",
"137 -45 OFFCURVE",
"121 -46 OFFCURVE",
"109 -51 CURVE",
"144 5 LINE",
"111 18 LINE",
"54 -87 LINE",
"71 -81 OFFCURVE",
"106 -73 OFFCURVE",
"134 -73 CURVE SMOOTH",
"164 -73 OFFCURVE",
"184 -82 OFFCURVE",
"184 -109 CURVE SMOOTH",
"184 -134 OFFCURVE",
"164 -144 OFFCURVE",
"127 -144 CURVE SMOOTH",
"92 -144 OFFCURVE",
"57 -135 OFFCURVE",
"39 -126 CURVE"
);
}
);
width = 283;
}
);
rightKerningGroup = numbersign;
unicode = 00B8;
},
{
glyphname = onesuperior;
lastChange = "2015-06-14 21:07:22 +0000";
layers = (
{
layerId = "1FDD38BC-4CDE-4118-9AAB-E6BB464D5960";
name = Regular;
paths = (
{
closed = 1;
nodes = (
"175 406 LINE",
"175 811 LINE",
"130 811 LINE",
"34 756 LINE",
"56 720 LINE",
"130 760 LINE",
"130 406 LINE"
);
}
);
width = 272;
}
);
rightKerningGroup = numbersign;
unicode = 00B9;
},
{
glyphname = ordmasculine;
lastChange = "2015-06-14 21:07:22 +0000";
layers = (
{
layerId = "1FDD38BC-4CDE-4118-9AAB-E6BB464D5960";
name = Regular;
paths = (
{
closed = 1;
nodes = (
"331 346 OFFCURVE",
"405 431 OFFCURVE",
"405 528 CURVE SMOOTH",
"405 627 OFFCURVE",
"330 710 OFFCURVE",
"224 710 CURVE SMOOTH",
"118 710 OFFCURVE",
"44 627 OFFCURVE",
"44 528 CURVE SMOOTH",
"44 431 OFFCURVE",
"117 346 OFFCURVE",
"224 346 CURVE SMOOTH"
);
},
{
closed = 1;
nodes = (
"101 602 OFFCURVE",
"157 661 OFFCURVE",
"224 661 CURVE SMOOTH",
"292 661 OFFCURVE",
"347 603 OFFCURVE",
"347 529 CURVE SMOOTH",
"347 454 OFFCURVE",
"292 395 OFFCURVE",
"224 395 CURVE SMOOTH",
"156 395 OFFCURVE",
"101 453 OFFCURVE",
"101 527 CURVE SMOOTH"
);
}
);
width = 449;
}
);
leftKerningGroup = ordmasculine;
rightKerningGroup = numbersign;
unicode = 00BA;
},
{
glyphname = guillemotright;
lastChange = "2015-06-14 21:07:22 +0000";
layers = (
{
layerId = "1FDD38BC-4CDE-4118-9AAB-E6BB464D5960";
name = Regular;
paths = (
{
closed = 1;
nodes = (
"532 276 LINE",
"284 454 LINE",
"284 395 LINE",
"477 259 LINE",
"284 125 LINE",
"284 66 LINE",
"532 239 LINE"
);
},
{
closed = 1;
nodes = (
"312 276 LINE",
"63 454 LINE",
"63 395 LINE",
"256 259 LINE",
"63 125 LINE",
"63 66 LINE",
"312 239 LINE"
);
}
);
width = 573;
}
);
leftKerningGroup = guillemotright;
rightKerningGroup = guillemotright;
unicode = 00BB;
},
{
glyphname = onequarter;
lastChange = "2015-06-14 21:07:22 +0000";
layers = (
{
layerId = "1FDD38BC-4CDE-4118-9AAB-E6BB464D5960";
name = Regular;
paths = (
{
closed = 1;
nodes = (
"732 0 LINE",
"732 103 LINE",
"789 103 LINE",
"789 147 LINE",
"732 147 LINE",
"732 399 LINE",
"701 399 LINE",
"459 145 LINE",
"459 103 LINE",
"687 103 LINE",
"687 0 LINE"
);
},
{
closed = 1;
nodes = (
"688 338 LINE",
"688 147 LINE",
"507 147 LINE"
);
},
{
closed = 1;
nodes = (
"167 -4 LINE",
"440 344 LINE",
"719 684 LINE",
"684 714 LINE",
"412 367 LINE",
"133 27 LINE"
);
},
{
closed = 1;
nodes = (
"185 326 LINE",
"185 731 LINE",
"140 731 LINE",
"44 676 LINE",
"64 635 LINE",
"140 680 LINE",
"140 326 LINE"
);
}
);
width = 825;
}
);
rightKerningGroup = numbersign;
unicode = 00BC;
},
{
glyphname = four.denominator;
lastChange = "2015-06-14 21:07:22 +0000";
layers = (
{
layerId = "1FDD38BC-4CDE-4118-9AAB-E6BB464D5960";
name = Regular;
paths = (
{
closed = 1;
nodes = (
"297 0 LINE",
"297 103 LINE",
"354 103 LINE",
"354 147 LINE",
"297 147 LINE",
"297 399 LINE",
"266 399 LINE",
"24 145 LINE",
"24 103 LINE",
"252 103 LINE",
"252 0 LINE"
);
},
{
closed = 1;
nodes = (
"253 338 LINE",
"253 147 LINE",
"72 147 LINE"
);
}
);
width = 384;
}
);
rightKerningGroup = numbersign;
},
{
glyphname = one.numerator;
lastChange = "2015-06-14 21:07:22 +0000";
layers = (
{
layerId = "1FDD38BC-4CDE-4118-9AAB-E6BB464D5960";
name = Regular;
paths = (
{
closed = 1;
nodes = (
"175 326 LINE",
"175 731 LINE",
"130 731 LINE",
"34 676 LINE",
"57 637 LINE",
"130 680 LINE",
"130 326 LINE"
);
}
);
width = 272;
}
);
rightKerningGroup = numbersign;
},
{
glyphname = onehalf;
lastChange = "2015-06-14 21:07:22 +0000";
layers = (
{
layerId = "1FDD38BC-4CDE-4118-9AAB-E6BB464D5960";
name = Regular;
paths = (
{
closed = 1;
nodes = (
"822 0 LINE",
"822 44 LINE",
"574 44 LINE",
"574 80 OFFCURVE",
"597 128 OFFCURVE",
"685 158 CURVE SMOOTH",
"738 176 OFFCURVE",
"821 202 OFFCURVE",
"821 285 CURVE SMOOTH",
"821 353 OFFCURVE",
"773 404 OFFCURVE",
"679 404 CURVE SMOOTH",
"583 404 OFFCURVE",
"531 351 OFFCURVE",
"520 337 CURVE",
"549 305 LINE",
"569 327 OFFCURVE",
"608 361 OFFCURVE",
"673 361 CURVE SMOOTH",
"739 361 OFFCURVE",
"772 327 OFFCURVE",
"772 286 CURVE SMOOTH",
"772 224 OFFCURVE",
"698 207 OFFCURVE",
"639 184 CURVE SMOOTH",
"556 151 OFFCURVE",
"516 103 OFFCURVE",
"516 0 CURVE"
);
},
{
closed = 1;
nodes = (
"133 -4 LINE",
"406 344 LINE",
"685 684 LINE",
"650 714 LINE",
"378 367 LINE",
"99 27 LINE"
);
},
{
closed = 1;
nodes = (
"185 326 LINE",
"185 731 LINE",
"140 731 LINE",
"44 676 LINE",
"64 635 LINE",
"140 680 LINE",
"140 326 LINE"
);
}
);
width = 864;
}
);
rightKerningGroup = numbersign;
unicode = 00BD;
},
{
glyphname = two.denominator;
lastChange = "2015-06-14 21:07:22 +0000";
layers = (
{
layerId = "1FDD38BC-4CDE-4118-9AAB-E6BB464D5960";
name = Regular;
paths = (
{
closed = 1;
nodes = (
"350 0 LINE",
"350 44 LINE",
"95 44 LINE",
"95 80 OFFCURVE",
"119 128 OFFCURVE",
"209 158 CURVE SMOOTH",
"264 176 OFFCURVE",
"349 202 OFFCURVE",
"349 285 CURVE SMOOTH",
"349 353 OFFCURVE",
"300 404 OFFCURVE",
"203 404 CURVE SMOOTH",
"105 404 OFFCURVE",
"51 351 OFFCURVE",
"40 337 CURVE",
"70 305 LINE",
"90 327 OFFCURVE",
"130 361 OFFCURVE",
"197 361 CURVE SMOOTH",
"265 361 OFFCURVE",
"299 327 OFFCURVE",
"299 286 CURVE SMOOTH",
"299 224 OFFCURVE",
"223 207 OFFCURVE",
"162 184 CURVE SMOOTH",
"77 151 OFFCURVE",
"36 103 OFFCURVE",
"36 0 CURVE"
);
}
);
width = 391;
}
);
rightKerningGroup = numbersign;
},
{
glyphname = threequarters;
lastChange = "2015-06-14 21:07:22 +0000";
layers = (
{
layerId = "1FDD38BC-4CDE-4118-9AAB-E6BB464D5960";
name = Regular;
paths = (
{
closed = 1;
nodes = (
"283 321 OFFCURVE",
"358 362 OFFCURVE",
"358 431 CURVE SMOOTH",
"358 482 OFFCURVE",
"318 524 OFFCURVE",
"256 533 CURVE",
"315 545 OFFCURVE",
"347 575 OFFCURVE",
"347 621 CURVE SMOOTH",
"347 684 OFFCURVE",
"281 731 OFFCURVE",
"193 731 CURVE SMOOTH",
"129 731 OFFCURVE",
"70 707 OFFCURVE",
"46 668 CURVE",
"76 634 LINE",
"96 667 OFFCURVE",
"138 690 OFFCURVE",
"193 690 CURVE SMOOTH",
"250 690 OFFCURVE",
"299 662 OFFCURVE",
"299 618 CURVE SMOOTH",
"299 574 OFFCURVE",
"248 552 OFFCURVE",
"164 552 CURVE SMOOTH",
"141 552 LINE",
"141 511 LINE",
"164 511 LINE SMOOTH",
"254 511 OFFCURVE",
"313 484 OFFCURVE",
"313 437 CURVE SMOOTH",
"313 394 OFFCURVE",
"261 366 OFFCURVE",
"196 366 CURVE SMOOTH",
"123 366 OFFCURVE",
"73 406 OFFCURVE",
"69 439 CURVE",
"42 410 LINE",
"52 356 OFFCURVE",
"114 321 OFFCURVE",
"197 321 CURVE SMOOTH"
);
},
{
closed = 1;
nodes = (
"741 0 LINE",
"741 103 LINE",
"798 103 LINE",
"798 147 LINE",
"741 147 LINE",
"741 399 LINE",
"710 399 LINE",
"468 145 LINE",
"468 103 LINE",
"696 103 LINE",
"696 0 LINE"
);
},
{
closed = 1;
nodes = (
"697 338 LINE",
"697 147 LINE",
"516 147 LINE"
);
},
{
closed = 1;
nodes = (
"200 -4 LINE",
"473 344 LINE",
"752 684 LINE",
"717 714 LINE",
"445 367 LINE",
"166 27 LINE"
);
}
);
width = 837;
}
);
rightKerningGroup = numbersign;
unicode = 00BE;
},
{
glyphname = three.numerator;
lastChange = "2015-06-14 21:07:22 +0000";
layers = (
{
layerId = "1FDD38BC-4CDE-4118-9AAB-E6BB464D5960";
name = Regular;
paths = (
{
closed = 1;
nodes = (
"276 321 OFFCURVE",
"351 362 OFFCURVE",
"351 431 CURVE SMOOTH",
"351 482 OFFCURVE",
"311 524 OFFCURVE",
"249 533 CURVE",
"308 545 OFFCURVE",
"340 575 OFFCURVE",
"340 621 CURVE SMOOTH",
"340 684 OFFCURVE",
"274 731 OFFCURVE",
"186 731 CURVE SMOOTH",
"122 731 OFFCURVE",
"63 707 OFFCURVE",
"39 668 CURVE",
"69 634 LINE",
"89 667 OFFCURVE",
"131 690 OFFCURVE",
"186 690 CURVE SMOOTH",
"243 690 OFFCURVE",
"292 662 OFFCURVE",
"292 618 CURVE SMOOTH",
"292 574 OFFCURVE",
"241 552 OFFCURVE",
"157 552 CURVE SMOOTH",
"134 552 LINE",
"134 511 LINE",
"157 511 LINE SMOOTH",
"247 511 OFFCURVE",
"306 484 OFFCURVE",
"306 437 CURVE SMOOTH",
"306 394 OFFCURVE",
"254 366 OFFCURVE",
"189 366 CURVE SMOOTH",
"116 366 OFFCURVE",
"66 406 OFFCURVE",
"62 439 CURVE",
"35 410 LINE",
"45 356 OFFCURVE",
"107 321 OFFCURVE",
"190 321 CURVE SMOOTH"
);
}
);
width = 390;
}
);
rightKerningGroup = numbersign;
},
{
glyphname = questiondown;
lastChange = "2015-06-14 21:07:22 +0000";
layers = (
{
layerId = "1FDD38BC-4CDE-4118-9AAB-E6BB464D5960";
name = Regular;
paths = (
{
closed = 1;
nodes = (
"262 304 LINE",
"262 208 OFFCURVE",
"218 182 OFFCURVE",
"171 156 CURVE SMOOTH",
"103 119 OFFCURVE",
"36 84 OFFCURVE",
"36 -22 CURVE SMOOTH",
"36 -151 OFFCURVE",
"133 -213 OFFCURVE",
"231 -213 CURVE SMOOTH",
"318 -213 OFFCURVE",
"403 -166 OFFCURVE",
"440 -84 CURVE",
"393 -54 LINE",
"364 -111 OFFCURVE",
"303 -156 OFFCURVE",
"232 -156 CURVE SMOOTH",
"163 -156 OFFCURVE",
"96 -113 OFFCURVE",
"96 -26 CURVE SMOOTH",
"96 72 OFFCURVE",
"182 102 OFFCURVE",
"235 134 CURVE SMOOTH",
"293 169 OFFCURVE",
"320 216 OFFCURVE",
"320 304 CURVE"
);
},
{
closed = 1;
nodes = (
"319 401 OFFCURVE",
"343 425 OFFCURVE",
"343 454 CURVE SMOOTH",
"343 484 OFFCURVE",
"319 508 OFFCURVE",
"289 508 CURVE SMOOTH",
"260 508 OFFCURVE",
"236 484 OFFCURVE",
"236 454 CURVE SMOOTH",
"236 425 OFFCURVE",
"260 401 OFFCURVE",
"289 401 CURVE SMOOTH"
);
}
);
width = 469;
}
);
rightKerningGroup = questiondown;
unicode = 00BF;
},
{
glyphname = circumflex;
lastChange = "2015-06-14 21:07:22 +0000";
layers = (
{
anchors = (
{
name = _top;
position = "{166, 521}";
}
);
layerId = "1FDD38BC-4CDE-4118-9AAB-E6BB464D5960";
name = Regular;
paths = (
{
closed = 1;
nodes = (
"188 751 LINE",
"143 751 LINE",
"0 596 LINE",
"94 596 LINE",
"166 711 LINE",
"237 596 LINE",
"331 596 LINE"
);
}
);
width = 330;
}
);
rightKerningGroup = numbersign;
unicode = 02C6;
},
{
glyphname = tilde;
lastChange = "2015-06-14 21:07:22 +0000";
layers = (
{
anchors = (
{
name = _top;
position = "{203, 521}";
}
);
layerId = "1FDD38BC-4CDE-4118-9AAB-E6BB464D5960";
name = Regular;
paths = (
{
closed = 1;
nodes = (
"345 638 OFFCURVE",
"362 717 OFFCURVE",
"362 730 CURVE",
"320 730 LINE",
"320 726 OFFCURVE",
"315 681 OFFCURVE",
"263 681 CURVE SMOOTH",
"213 681 OFFCURVE",
"191 723 OFFCURVE",
"135 723 CURVE SMOOTH",
"60 723 OFFCURVE",
"44 644 OFFCURVE",
"44 630 CURVE",
"86 630 LINE",
"86 635 OFFCURVE",
"92 678 OFFCURVE",
"136 678 CURVE SMOOTH",
"178 678 OFFCURVE",
"204 638 OFFCURVE",
"264 638 CURVE SMOOTH"
);
}
);
width = 406;
}
);
rightKerningGroup = numbersign;
unicode = 02DC;
},
{
glyphname = ring;
lastChange = "2015-06-14 21:07:22 +0000";
layers = (
{
anchors = (
{
name = _top;
position = "{124, 521}";
}
);
layerId = "1FDD38BC-4CDE-4118-9AAB-E6BB464D5960";
name = Regular;
paths = (
{
closed = 1;
nodes = (
"38 629 OFFCURVE",
"74 599 OFFCURVE",
"124 599 CURVE SMOOTH",
"174 599 OFFCURVE",
"209 629 OFFCURVE",
"209 675 CURVE SMOOTH",
"209 721 OFFCURVE",
"174 751 OFFCURVE",
"124 751 CURVE SMOOTH",
"74 751 OFFCURVE",
"38 721 OFFCURVE",
"38 675 CURVE SMOOTH"
);
},
{
closed = 1;
nodes = (
"150 720 OFFCURVE",
"171 702 OFFCURVE",
"171 675 CURVE SMOOTH",
"171 649 OFFCURVE",
"148 630 OFFCURVE",
"124 630 CURVE SMOOTH",
"97 630 OFFCURVE",
"77 650 OFFCURVE",
"77 675 CURVE SMOOTH",
"77 702 OFFCURVE",
"98 720 OFFCURVE",
"124 720 CURVE SMOOTH"
);
}
);
width = 248;
}
);
rightKerningGroup = numbersign;
unicode = 02DA;
},
{
glyphname = AE;
lastChange = "2015-06-14 21:07:22 +0000";
layers = (
{
layerId = "1FDD38BC-4CDE-4118-9AAB-E6BB464D5960";
name = Regular;
paths = (
{
closed = 1;
nodes = (
"-26 0 LINE",
"50 0 LINE",
"191 222 LINE",
"450 222 LINE",
"450 0 LINE",
"921 0 LINE",
"921 62 LINE",
"518 62 LINE",
"518 331 LINE",
"858 331 LINE",
"858 393 LINE",
"518 393 LINE",
"518 648 LINE",
"912 648 LINE",
"912 710 LINE",
"431 710 LINE"
);
},
{
closed = 1;
nodes = (
"223 284 LINE",
"445 626 LINE",
"445 284 LINE"
);
}
);
width = 961;
}
);
leftKerningGroup = AE;
rightKerningGroup = E;
unicode = 00C6;
},
{
glyphname = Eth;
lastChange = "2015-06-14 21:07:22 +0000";
layers = (
{
layerId = "1FDD38BC-4CDE-4118-9AAB-E6BB464D5960";
name = Regular;
paths = (
{
closed = 1;
nodes = (
"336 0 LINE SMOOTH",
"543 0 OFFCURVE",
"676 141 OFFCURVE",
"676 356 CURVE SMOOTH",
"676 552 OFFCURVE",
"562 710 OFFCURVE",
"336 710 CURVE SMOOTH",
"95 710 LINE",
"95 384 LINE",
"34 384 LINE",
"34 330 LINE",
"95 330 LINE",
"95 0 LINE"
);
},
{
closed = 1;
nodes = (
"606 189 OFFCURVE",
"512 62 OFFCURVE",
"336 62 CURVE SMOOTH",
"165 62 LINE",
"165 330 LINE",
"335 330 LINE",
"335 384 LINE",
"165 384 LINE",
"165 648 LINE",
"336 648 LINE SMOOTH",
"509 648 OFFCURVE",
"606 526 OFFCURVE",
"606 356 CURVE SMOOTH"
);
}
);
width = 721;
}
);
leftKerningGroup = B;
rightKerningGroup = D;
unicode = 00D0;
},
{
glyphname = multiply;
lastChange = "2015-06-14 21:07:22 +0000";
layers = (
{
layerId = "1FDD38BC-4CDE-4118-9AAB-E6BB464D5960";
name = Regular;
paths = (
{
closed = 1;
nodes = (
"272 272 LINE",
"392 393 LINE",
"349 437 LINE",
"228 316 LINE",
"109 436 LINE",
"65 393 LINE",
"185 272 LINE",
"64 152 LINE",
"107 108 LINE",
"228 229 LINE",
"350 108 LINE",
"394 151 LINE"
);
}
);
width = 457;
}
);
rightKerningGroup = numbersign;
unicode = 00D7;
},
{
glyphname = Oslash;
lastChange = "2015-06-14 21:07:22 +0000";
layers = (
{
layerId = "1FDD38BC-4CDE-4118-9AAB-E6BB464D5960";
name = Regular;
paths = (
{
closed = 1;
nodes = (
"573 710 LINE",
"543 665 LINE",
"495 696 OFFCURVE",
"439 715 OFFCURVE",
"376 715 CURVE SMOOTH",
"186 715 OFFCURVE",
"42 544 OFFCURVE",
"42 355 CURVE SMOOTH",
"42 253 OFFCURVE",
"84 152 OFFCURVE",
"156 83 CURVE",
"101 0 LINE",
"178 0 LINE",
"207 44 LINE",
"255 13 OFFCURVE",
"311 -5 OFFCURVE",
"375 -5 CURVE SMOOTH",
"565 -5 OFFCURVE",
"708 165 OFFCURVE",
"708 354 CURVE SMOOTH",
"708 454 OFFCURVE",
"665 555 OFFCURVE",
"593 625 CURVE",
"650 710 LINE"
);
},
{
closed = 1;
nodes = (
"112 502 OFFCURVE",
"214 651 OFFCURVE",
"375 651 CURVE SMOOTH",
"424 651 OFFCURVE",
"469 636 OFFCURVE",
"507 611 CURVE",
"193 139 LINE",
"142 195 OFFCURVE",
"112 273 OFFCURVE",
"112 355 CURVE SMOOTH"
);
},
{
closed = 1;
nodes = (
"638 209 OFFCURVE",
"536 58 OFFCURVE",
"375 58 CURVE SMOOTH",
"325 58 OFFCURVE",
"280 72 OFFCURVE",
"242 97 CURVE",
"556 569 LINE",
"607 514 OFFCURVE",
"638 436 OFFCURVE",
"638 355 CURVE SMOOTH"
);
}
);
width = 751;
}
);
leftKerningGroup = C;
rightKerningGroup = O;
unicode = 00D8;
},
{
glyphname = Thorn;
lastChange = "2015-06-14 21:07:22 +0000";
layers = (
{
layerId = "1FDD38BC-4CDE-4118-9AAB-E6BB464D5960";
name = Regular;
paths = (
{
closed = 1;
nodes = (
"159 569 LINE",
"159 710 LINE",
"89 710 LINE",
"89 0 LINE",
"159 0 LINE",
"159 121 LINE",
"371 121 LINE SMOOTH",
"493 121 OFFCURVE",
"575 230 OFFCURVE",
"575 346 CURVE SMOOTH",
"575 456 OFFCURVE",
"487 569 OFFCURVE",
"364 569 CURVE SMOOTH"
);
},
{
closed = 1;
nodes = (
"159 184 LINE",
"159 507 LINE",
"362 507 LINE SMOOTH",
"440 507 OFFCURVE",
"506 432 OFFCURVE",
"506 346 CURVE SMOOTH",
"506 263 OFFCURVE",
"453 184 OFFCURVE",
"368 184 CURVE SMOOTH"
);
}
);
width = 603;
}
);
leftKerningGroup = B;
rightKerningGroup = Thorn;
unicode = 00DE;
},
{
glyphname = germandbls;
lastChange = "2015-06-14 21:07:22 +0000";
layers = (
{
layerId = "1FDD38BC-4CDE-4118-9AAB-E6BB464D5960";
name = Regular;
paths = (
{
closed = 1;
nodes = (
"238 -6 LINE",
"403 -1 OFFCURVE",
"513 72 OFFCURVE",
"513 207 CURVE SMOOTH",
"513 304 OFFCURVE",
"455 382 OFFCURVE",
"356 403 CURVE",
"414 417 OFFCURVE",
"461 483 OFFCURVE",
"461 554 CURVE SMOOTH",
"461 648 OFFCURVE",
"381 714 OFFCURVE",
"275 714 CURVE SMOOTH",
"158 714 OFFCURVE",
"75 633 OFFCURVE",
"75 515 CURVE SMOOTH",
"75 0 LINE",
"140 0 LINE",
"140 505 LINE SMOOTH",
"140 588 OFFCURVE",
"185 654 OFFCURVE",
"273 654 CURVE SMOOTH",
"340 654 OFFCURVE",
"396 615 OFFCURVE",
"396 544 CURVE SMOOTH",
"396 477 OFFCURVE",
"346 430 OFFCURVE",
"275 430 CURVE SMOOTH",
"257 430 LINE",
"257 368 LINE",
"276 368 LINE SMOOTH",
"375 368 OFFCURVE",
"443 305 OFFCURVE",
"443 211 CURVE SMOOTH",
"443 108 OFFCURVE",
"362 59 OFFCURVE",
"238 57 CURVE"
);
}
);
width = 551;
}
);
leftKerningGroup = b;
rightKerningGroup = germandbls;
unicode = 00DF;
},
{
glyphname = ae;
lastChange = "2015-06-14 21:07:22 +0000";
layers = (
{
layerId = "1FDD38BC-4CDE-4118-9AAB-E6BB464D5960";
name = Regular;
paths = (
{
closed = 1;
nodes = (
"285 -10 OFFCURVE",
"386 24 OFFCURVE",
"430 105 CURVE",
"476 36 OFFCURVE",
"554 -10 OFFCURVE",
"645 -10 CURVE SMOOTH",
"746 -10 OFFCURVE",
"834 44 OFFCURVE",
"867 120 CURVE",
"807 136 LINE",
"783 80 OFFCURVE",
"716 42 OFFCURVE",
"648 42 CURVE SMOOTH",
"544 42 OFFCURVE",
"457 124 OFFCURVE",
"448 236 CURVE",
"901 236 LINE",
"901 240 OFFCURVE",
"902 255 OFFCURVE",
"902 260 CURVE",
"901 408 OFFCURVE",
"794 530 OFFCURVE",
"642 530 CURVE SMOOTH",
"558 530 OFFCURVE",
"486 488 OFFCURVE",
"443 426 CURVE",
"412 492 OFFCURVE",
"349 530 OFFCURVE",
"263 530 CURVE SMOOTH",
"199 530 OFFCURVE",
"134 507 OFFCURVE",
"66 462 CURVE",
"90 417 LINE",
"148 457 OFFCURVE",
"205 479 OFFCURVE",
"257 479 CURVE SMOOTH",
"336 479 OFFCURVE",
"388 436 OFFCURVE",
"401 365 CURVE",
"391 342 OFFCURVE",
"386 314 OFFCURVE",
"384 289 CURVE",
"345 301 OFFCURVE",
"296 309 OFFCURVE",
"250 309 CURVE SMOOTH",
"122 309 OFFCURVE",
"33 244 OFFCURVE",
"33 152 CURVE SMOOTH",
"33 61 OFFCURVE",
"108 -10 OFFCURVE",
"205 -10 CURVE SMOOTH"
);
},
{
closed = 1;
nodes = (
"152 42 OFFCURVE",
"97 92 OFFCURVE",
"97 157 CURVE SMOOTH",
"97 222 OFFCURVE",
"163 266 OFFCURVE",
"259 266 CURVE SMOOTH",
"302 266 OFFCURVE",
"345 259 OFFCURVE",
"384 246 CURVE",
"385 216 OFFCURVE",
"392 176 OFFCURVE",
"405 150 CURVE",
"404 139 OFFCURVE",
"397 126 OFFCURVE",
"387 115 CURVE",
"356 71 OFFCURVE",
"292 42 OFFCURVE",
"221 42 CURVE SMOOTH"
);
},
{
closed = 1;
nodes = (
"448 282 LINE",
"454 395 OFFCURVE",
"535 477 OFFCURVE",
"641 477 CURVE SMOOTH",
"747 477 OFFCURVE",
"828 396 OFFCURVE",
"837 282 CURVE"
);
}
);
width = 932;
}
);
leftKerningGroup = a;
rightKerningGroup = e;
unicode = 00E6;
},
{
glyphname = dotlessi;
lastChange = "2015-06-14 21:07:22 +0000";
layers = (
{
anchors = (
{
name = ogonek;
position = "{196, 10}";
},
{
name = top;
position = "{109, 521}";
}
);
layerId = "1FDD38BC-4CDE-4118-9AAB-E6BB464D5960";
name = Regular;
paths = (
{
closed = 1;
nodes = (
"143 0 LINE",
"143 521 LINE",
"75 521 LINE",
"75 0 LINE"
);
}
);
width = 218;
}
);
leftKerningGroup = i;
rightKerningGroup = i;
unicode = 0131;
},
{
glyphname = eth;
lastChange = "2015-06-14 21:07:22 +0000";
layers = (
{
layerId = "1FDD38BC-4CDE-4118-9AAB-E6BB464D5960";
name = Regular;
paths = (
{
closed = 1;
nodes = (
"473 713 LINE",
"386 658 LINE",
"357 683 OFFCURVE",
"324 707 OFFCURVE",
"286 730 CURVE",
"190 730 LINE",
"248 697 OFFCURVE",
"295 665 OFFCURVE",
"333 632 CURVE",
"227 567 LINE",
"249 536 LINE",
"361 606 LINE",
"445 524 OFFCURVE",
"477 441 OFFCURVE",
"490 357 CURVE",
"454 426 OFFCURVE",
"376 474 OFFCURVE",
"287 474 CURVE SMOOTH",
"152 474 OFFCURVE",
"42 364 OFFCURVE",
"42 233 CURVE SMOOTH",
"42 98 OFFCURVE",
"157 -10 OFFCURVE",
"296 -10 CURVE SMOOTH",
"439 -10 OFFCURVE",
"559 105 OFFCURVE",
"559 277 CURVE SMOOTH",
"559 388 OFFCURVE",
"527 519 OFFCURVE",
"413 632 CURVE",
"495 683 LINE"
);
},
{
closed = 1;
nodes = (
"111 334 OFFCURVE",
"196 417 OFFCURVE",
"301 417 CURVE SMOOTH",
"405 417 OFFCURVE",
"490 340 OFFCURVE",
"490 241 CURVE SMOOTH",
"490 138 OFFCURVE",
"405 50 OFFCURVE",
"298 50 CURVE SMOOTH",
"195 50 OFFCURVE",
"111 131 OFFCURVE",
"111 232 CURVE SMOOTH"
);
}
);
width = 602;
}
);
leftKerningGroup = eth;
rightKerningGroup = eth;
unicode = 00F0;
},
{
glyphname = divide;
lastChange = "2015-06-14 21:07:22 +0000";
layers = (
{
layerId = "1FDD38BC-4CDE-4118-9AAB-E6BB464D5960";
name = Regular;
paths = (
{
closed = 1;
nodes = (
"469 254 LINE",
"469 311 LINE",
"66 311 LINE",
"66 254 LINE"
);
},
{
closed = 1;
nodes = (
"292 73 OFFCURVE",
"312 93 OFFCURVE",
"312 118 CURVE SMOOTH",
"312 143 OFFCURVE",
"292 163 OFFCURVE",
"267 163 CURVE SMOOTH",
"242 163 OFFCURVE",
"222 143 OFFCURVE",
"222 118 CURVE SMOOTH",
"222 93 OFFCURVE",
"242 73 OFFCURVE",
"267 73 CURVE SMOOTH"
);
},
{
closed = 1;
nodes = (
"291 399 OFFCURVE",
"311 419 OFFCURVE",
"311 444 CURVE SMOOTH",
"311 469 OFFCURVE",
"291 489 OFFCURVE",
"266 489 CURVE SMOOTH",
"241 489 OFFCURVE",
"221 469 OFFCURVE",
"221 444 CURVE SMOOTH",
"221 419 OFFCURVE",
"241 399 OFFCURVE",
"266 399 CURVE SMOOTH"
);
}
);
width = 537;
}
);
rightKerningGroup = numbersign;
unicode = 00F7;
},
{
glyphname = oslash;
lastChange = "2015-06-14 21:07:22 +0000";
layers = (
{
layerId = "1FDD38BC-4CDE-4118-9AAB-E6BB464D5960";
name = Regular;
paths = (
{
closed = 1;
nodes = (
"139 -1 LINE",
"161 28 LINE",
"200 4 OFFCURVE",
"246 -10 OFFCURVE",
"297 -10 CURVE SMOOTH",
"448 -10 OFFCURVE",
"556 114 OFFCURVE",
"556 259 CURVE SMOOTH",
"556 342 OFFCURVE",
"520 419 OFFCURVE",
"461 469 CURVE",
"502 523 LINE",
"455 523 LINE",
"432 491 LINE",
"393 516 OFFCURVE",
"347 530 OFFCURVE",
"297 530 CURVE SMOOTH",
"148 530 OFFCURVE",
"39 405 OFFCURVE",
"39 259 CURVE SMOOTH",
"39 176 OFFCURVE",
"74 100 OFFCURVE",
"132 50 CURVE",
"93 -1 LINE"
);
},
{
closed = 1;
nodes = (
"261 50 OFFCURVE",
"227 61 OFFCURVE",
"199 80 CURVE",
"423 416 LINE",
"462 378 OFFCURVE",
"487 322 OFFCURVE",
"487 260 CURVE SMOOTH",
"487 144 OFFCURVE",
"401 50 OFFCURVE",
"297 50 CURVE SMOOTH"
);
},
{
closed = 1;
nodes = (
"108 375 OFFCURVE",
"194 470 OFFCURVE",
"297 470 CURVE SMOOTH",
"332 470 OFFCURVE",
"366 459 OFFCURVE",
"395 439 CURVE",
"171 102 LINE",
"132 140 OFFCURVE",
"108 195 OFFCURVE",
"108 258 CURVE SMOOTH"
);
}
);
width = 595;
}
);
leftKerningGroup = c;
rightKerningGroup = o;
unicode = 00F8;
},
{
glyphname = thorn;
lastChange = "2015-06-14 21:07:22 +0000";
layers = (
{
layerId = "1FDD38BC-4CDE-4118-9AAB-E6BB464D5960";
name = Regular;
paths = (
{
closed = 1;
nodes = (
"565 388 OFFCURVE",
"472 532 OFFCURVE",
"318 532 CURVE SMOOTH",
"236 532 OFFCURVE",
"182 488 OFFCURVE",
"144 434 CURVE",
"144 710 LINE",
"75 710 LINE",
"75 -213 LINE",
"144 -213 LINE",
"144 74 LINE",
"174 26 OFFCURVE",
"236 -16 OFFCURVE",
"309 -16 CURVE SMOOTH",
"452 -16 OFFCURVE",
"562 113 OFFCURVE",
"565 257 CURVE SMOOTH"
);
},
{
closed = 1;
nodes = (
"495 150 OFFCURVE",
"417 47 OFFCURVE",
"308 47 CURVE SMOOTH",
"239 47 OFFCURVE",
"144 107 OFFCURVE",
"144 172 CURVE SMOOTH",
"144 348 LINE",
"177 412 OFFCURVE",
"235 470 OFFCURVE",
"315 470 CURVE SMOOTH",
"423 470 OFFCURVE",
"495 368 OFFCURVE",
"495 258 CURVE SMOOTH"
);
}
);
width = 603;
}
);
leftKerningGroup = b;
rightKerningGroup = b;
unicode = 00FE;
},
{
glyphname = Amacron;
lastChange = "2015-06-14 21:07:22 +0000";
layers = (
{
layerId = "1FDD38BC-4CDE-4118-9AAB-E6BB464D5960";
name = Regular;
paths = (
{
closed = 1;
nodes = (
"12 0 LINE",
"87 0 LINE",
"178 222 LINE",
"497 222 LINE",
"589 0 LINE",
"663 0 LINE",
"368 710 LINE",
"309 710 LINE"
);
},
{
closed = 1;
nodes = (
"193 277 LINE",
"338 628 LINE",
"481 277 LINE"
);
},
{
closed = 1;
nodes = (
"483 850 LINE",
"483 897 LINE",
"194 897 LINE",
"194 850 LINE"
);
}
);
width = 676;
}
);
leftKerningGroup = A;
rightKerningGroup = A;
unicode = 0100;
},
{
glyphname = breve;
lastChange = "2015-06-14 21:07:22 +0000";
layers = (
{
anchors = (
{
name = _top;
position = "{144, 521}";
}
);
layerId = "1FDD38BC-4CDE-4118-9AAB-E6BB464D5960";
name = Regular;
paths = (
{
closed = 1;
nodes = (
"106 671 OFFCURVE",
"73 710 OFFCURVE",
"73 751 CURVE",
"22 751 LINE",
"22 682 OFFCURVE",
"74 629 OFFCURVE",
"141 629 CURVE SMOOTH",
"206 629 OFFCURVE",
"260 682 OFFCURVE",
"260 751 CURVE",
"210 751 LINE",
"205 707 OFFCURVE",
"175 671 OFFCURVE",
"141 671 CURVE SMOOTH"
);
}
);
width = 282;
}
);
rightKerningGroup = numbersign;
unicode = 02D8;
},
{
glyphname = ogonek;
lastChange = "2015-06-14 21:07:22 +0000";
layers = (
{
layerId = "1FDD38BC-4CDE-4118-9AAB-E6BB464D5960";
name = Regular;
paths = (
{
closed = 1;
nodes = (
"149 -137 LINE",
"114 -132 OFFCURVE",
"97 -117 OFFCURVE",
"97 -93 CURVE SMOOTH",
"97 -64 OFFCURVE",
"120 -37 OFFCURVE",
"179 0 CURVE",
"157 17 LINE",
"86 -26 OFFCURVE",
"55 -64 OFFCURVE",
"55 -102 CURVE SMOOTH",
"55 -137 OFFCURVE",
"81 -165 OFFCURVE",
"130 -175 CURVE"
);
}
);
width = 240;
}
);
rightKerningGroup = numbersign;
unicode = 02DB;
},
{
glyphname = Cacute;
lastChange = "2015-06-14 21:07:22 +0000";
layers = (
{
components = (
{
name = acute;
transform = "{1, 0, 0, 1, 330, 186}";
}
);
layerId = "1FDD38BC-4CDE-4118-9AAB-E6BB464D5960";
name = Regular;
paths = (
{
closed = 1;
nodes = (
"42 180 OFFCURVE",
"179 -6 OFFCURVE",
"374 -6 CURVE SMOOTH",
"483 -6 OFFCURVE",
"609 53 OFFCURVE",
"655 159 CURVE",
"597 189 LINE",
"552 97 OFFCURVE",
"458 57 OFFCURVE",
"378 57 CURVE SMOOTH",
"227 57 OFFCURVE",
"112 199 OFFCURVE",
"112 356 CURVE SMOOTH",
"112 499 OFFCURVE",
"205 651 OFFCURVE",
"375 651 CURVE SMOOTH",
"452 651 OFFCURVE",
"540 619 OFFCURVE",
"586 525 CURVE",
"641 559 LINE",
"598 650 OFFCURVE",
"505 714 OFFCURVE",
"379 714 CURVE SMOOTH",
"165 714 OFFCURVE",
"42 531 OFFCURVE",
"42 360 CURVE SMOOTH"
);
}
);
width = 686;
}
);
leftKerningGroup = C;
rightKerningGroup = C;
unicode = 0106;
},
{
glyphname = cacute;
lastChange = "2015-06-14 21:07:22 +0000";
layers = (
{
components = (
{
name = acute;
transform = "{1, 0, 0, 1, 251, 0}";
}
);
layerId = "1FDD38BC-4CDE-4118-9AAB-E6BB464D5960";
name = Regular;
paths = (
{
closed = 1;
nodes = (
"39 114 OFFCURVE",
"149 -10 OFFCURVE",
"301 -10 CURVE SMOOTH",
"401 -10 OFFCURVE",
"488 44 OFFCURVE",
"517 119 CURVE",
"450 139 LINE",
"434 91 OFFCURVE",
"365 50 OFFCURVE",
"298 50 CURVE SMOOTH",
"195 50 OFFCURVE",
"108 144 OFFCURVE",
"108 262 CURVE SMOOTH",
"108 381 OFFCURVE",
"191 470 OFFCURVE",
"297 470 CURVE SMOOTH",
"361 470 OFFCURVE",
"417 438 OFFCURVE",
"446 385 CURVE",
"512 406 LINE",
"475 482 OFFCURVE",
"398 530 OFFCURVE",
"300 530 CURVE SMOOTH",
"146 530 OFFCURVE",
"39 410 OFFCURVE",
"39 262 CURVE SMOOTH"
);
}
);
width = 549;
}
);
leftKerningGroup = c;
rightKerningGroup = c;
unicode = 0107;
},
{
glyphname = dotaccent;
lastChange = "2015-06-14 21:07:22 +0000";
layers = (
{
anchors = (
{
name = _top;
position = "{81, 521}";
}
);
layerId = "1FDD38BC-4CDE-4118-9AAB-E6BB464D5960";
name = Regular;
paths = (
{
closed = 1;
nodes = (
"106 640 OFFCURVE",
"126 660 OFFCURVE",
"126 685 CURVE",
"126 710 OFFCURVE",
"106 730 OFFCURVE",
"81 730 CURVE SMOOTH",
"56 730 OFFCURVE",
"36 710 OFFCURVE",
"36 685 CURVE SMOOTH",
"36 660 OFFCURVE",
"56 640 OFFCURVE",
"81 640 CURVE SMOOTH"
);
}
);
width = 162;
}
);
rightKerningGroup = numbersign;
unicode = 02D9;
},
{
glyphname = caron;
lastChange = "2015-06-14 21:07:22 +0000";
layers = (
{
anchors = (
{
name = _top;
position = "{166, 521}";
}
);
layerId = "1FDD38BC-4CDE-4118-9AAB-E6BB464D5960";
name = Regular;
paths = (
{
closed = 1;
nodes = (
"237 751 LINE",
"166 636 LINE",
"94 751 LINE",
"0 751 LINE",
"143 596 LINE",
"188 596 LINE",
"331 751 LINE"
);
}
);
width = 330;
}
);
rightKerningGroup = numbersign;
unicode = 02C7;
},
{
glyphname = caron.alt;
lastChange = "2015-06-14 21:07:22 +0000";
layers = (
{
layerId = "1FDD38BC-4CDE-4118-9AAB-E6BB464D5960";
name = Regular;
paths = (
{
closed = 1;
nodes = (
"193 711 LINE",
"129 711 LINE",
"94 557 LINE",
"140 557 LINE"
);
}
);
width = 222;
}
);
rightKerningGroup = numbersign;
},
{
glyphname = Dcroat;
lastChange = "2015-06-14 21:07:22 +0000";
layers = (
{
layerId = "1FDD38BC-4CDE-4118-9AAB-E6BB464D5960";
name = Regular;
paths = (
{
closed = 1;
nodes = (
"336 0 LINE SMOOTH",
"543 0 OFFCURVE",
"676 141 OFFCURVE",
"676 356 CURVE SMOOTH",
"676 552 OFFCURVE",
"562 710 OFFCURVE",
"336 710 CURVE SMOOTH",
"95 710 LINE",
"95 384 LINE",
"34 384 LINE",
"34 330 LINE",
"95 330 LINE",
"95 0 LINE"
);
},
{
closed = 1;
nodes = (
"606 189 OFFCURVE",
"512 62 OFFCURVE",
"336 62 CURVE SMOOTH",
"165 62 LINE",
"165 330 LINE",
"335 330 LINE",
"335 384 LINE",
"165 384 LINE",
"165 648 LINE",
"336 648 LINE SMOOTH",
"509 648 OFFCURVE",
"606 526 OFFCURVE",
"606 356 CURVE SMOOTH"
);
}
);
width = 721;
}
);
leftKerningGroup = B;
rightKerningGroup = D;
unicode = 0110;
},
{
glyphname = dcroat;
lastChange = "2015-06-14 21:07:22 +0000";
layers = (
{
components = (
{
name = d;
}
);
layerId = "1FDD38BC-4CDE-4118-9AAB-E6BB464D5960";
name = Regular;
paths = (
{
closed = 1;
nodes = (
"360 617 LINE",
"613 617 LINE",
"613 663 LINE",
"360 663 LINE"
);
}
);
width = 618;
}
);
leftKerningGroup = d;
rightKerningGroup = d;
unicode = 0111;
},
{
glyphname = commaaccent;
lastChange = "2015-06-14 21:07:22 +0000";
layers = (
{
anchors = (
{
name = _bottom;
position = "{87, 0}";
}
);
layerId = "1FDD38BC-4CDE-4118-9AAB-E6BB464D5960";
name = Regular;
paths = (
{
closed = 1;
nodes = (
"57 -214 LINE",
"13 -214 LINE",
"61 -49 LINE",
"125 -49 LINE"
);
}
);
width = 154;
}
);
rightKerningGroup = numbersign;
unicode = F6C3;
},
{
glyphname = gcommaaccent;
lastChange = "2015-06-14 21:07:22 +0000";
layers = (
{
components = (
{
name = g;
}
);
layerId = "1FDD38BC-4CDE-4118-9AAB-E6BB464D5960";
name = Regular;
paths = (
{
closed = 1;
nodes = (
"342 761 LINE",
"386 761 LINE",
"338 596 LINE",
"274 596 LINE"
);
}
);
width = 617;
}
);
leftKerningGroup = d;
rightKerningGroup = g;
unicode = 0123;
},
{
glyphname = Hbar;
lastChange = "2015-06-14 21:07:22 +0000";
layers = (
{
layerId = "1FDD38BC-4CDE-4118-9AAB-E6BB464D5960";
name = Regular;
paths = (
{
closed = 1;
nodes = (
"585 710 LINE",
"585 589 LINE",
"164 589 LINE",
"164 710 LINE",
"94 710 LINE",
"94 589 LINE",
"44 589 LINE",
"44 550 LINE",
"94 550 LINE",
"94 0 LINE",
"164 0 LINE",
"164 332 LINE",
"585 332 LINE",
"585 0 LINE",
"654 0 LINE",
"654 550 LINE",
"704 550 LINE",
"704 589 LINE",
"654 589 LINE",
"654 710 LINE"
);
},
{
closed = 1;
nodes = (
"164 394 LINE",
"164 550 LINE",
"585 550 LINE",
"585 394 LINE"
);
}
);
width = 748;
}
);
leftKerningGroup = B;
rightKerningGroup = H;
unicode = 0126;
},
{
glyphname = hbar;
lastChange = "2015-06-14 21:07:22 +0000";
layers = (
{
layerId = "1FDD38BC-4CDE-4118-9AAB-E6BB464D5960";
name = Regular;
paths = (
{
closed = 1;
nodes = (
"513 305 LINE SMOOTH",
"513 439 OFFCURVE",
"467 530 OFFCURVE",
"348 530 CURVE SMOOTH",
"263 530 OFFCURVE",
"184 481 OFFCURVE",
"143 403 CURVE",
"143 617 LINE",
"266 617 LINE",
"266 663 LINE",
"143 663 LINE",
"143 730 LINE",
"75 730 LINE",
"75 663 LINE",
"14 663 LINE",
"14 617 LINE",
"75 617 LINE",
"75 0 LINE",
"143 0 LINE",
"143 319 LINE",
"167 404 OFFCURVE",
"248 468 OFFCURVE",
"325 468 CURVE SMOOTH",
"403 468 OFFCURVE",
"445 409 OFFCURVE",
"445 291 CURVE SMOOTH",
"445 0 LINE",
"513 0 LINE"
);
}
);
width = 583;
}
);
leftKerningGroup = b;
rightKerningGroup = h;
unicode = 0127;
},
{
glyphname = Itilde;
lastChange = "2015-06-14 21:07:22 +0000";
layers = (
{
layerId = "1FDD38BC-4CDE-4118-9AAB-E6BB464D5960";
name = Regular;
paths = (
{
closed = 1;
nodes = (
"159 0 LINE",
"159 710 LINE",
"89 710 LINE",
"89 0 LINE"
);
},
{
closed = 1;
nodes = (
"267 825 OFFCURVE",
"284 904 OFFCURVE",
"284 917 CURVE",
"242 917 LINE",
"242 913 OFFCURVE",
"237 868 OFFCURVE",
"185 868 CURVE SMOOTH",
"135 868 OFFCURVE",
"113 910 OFFCURVE",
"57 910 CURVE SMOOTH",
"-18 910 OFFCURVE",
"-34 831 OFFCURVE",
"-34 817 CURVE",
"8 817 LINE",
"8 822 OFFCURVE",
"14 865 OFFCURVE",
"58 865 CURVE SMOOTH",
"100 865 OFFCURVE",
"126 825 OFFCURVE",
"186 825 CURVE SMOOTH"
);
}
);
width = 248;
}
);
leftKerningGroup = B;
rightKerningGroup = H;
unicode = 0128;
},
{
glyphname = itilde;
lastChange = "2015-06-14 21:07:22 +0000";
layers = (
{
layerId = "1FDD38BC-4CDE-4118-9AAB-E6BB464D5960";
name = Regular;
paths = (
{
closed = 1;
nodes = (
"143 0 LINE",
"143 521 LINE",
"75 521 LINE",
"75 0 LINE"
);
},
{
closed = 1;
nodes = (
"252 638 OFFCURVE",
"269 717 OFFCURVE",
"269 730 CURVE",
"227 730 LINE",
"227 726 OFFCURVE",
"222 681 OFFCURVE",
"170 681 CURVE SMOOTH",
"120 681 OFFCURVE",
"98 723 OFFCURVE",
"42 723 CURVE SMOOTH",
"-33 723 OFFCURVE",
"-49 644 OFFCURVE",
"-49 630 CURVE",
"-7 630 LINE",
"-7 635 OFFCURVE",
"-1 678 OFFCURVE",
"43 678 CURVE SMOOTH",
"85 678 OFFCURVE",
"111 638 OFFCURVE",
"171 638 CURVE SMOOTH"
);
}
);
width = 218;
}
);
leftKerningGroup = i;
rightKerningGroup = i;
unicode = 0129;
},
{
glyphname = Imacron;
lastChange = "2015-06-14 21:07:22 +0000";
layers = (
{
layerId = "1FDD38BC-4CDE-4118-9AAB-E6BB464D5960";
name = Regular;
paths = (
{
closed = 1;
nodes = (
"159 0 LINE",
"159 710 LINE",
"89 710 LINE",
"89 0 LINE"
);
},
{
closed = 1;
nodes = (
"269 850 LINE",
"269 897 LINE",
"-20 897 LINE",
"-20 850 LINE"
);
}
);
width = 248;
}
);
leftKerningGroup = B;
rightKerningGroup = H;
unicode = 012A;
},
{
glyphname = imacron;
lastChange = "2015-06-14 21:07:22 +0000";
layers = (
{
layerId = "1FDD38BC-4CDE-4118-9AAB-E6BB464D5960";
name = Regular;
paths = (
{
closed = 1;
nodes = (
"143 0 LINE",
"143 521 LINE",
"75 521 LINE",
"75 0 LINE"
);
},
{
closed = 1;
nodes = (
"254 663 LINE",
"254 710 LINE",
"-35 710 LINE",
"-35 663 LINE"
);
}
);
width = 218;
}
);
leftKerningGroup = i;
rightKerningGroup = i;
unicode = 012B;
},
{
glyphname = Iogonek;
lastChange = "2015-06-14 21:07:22 +0000";
layers = (
{
layerId = "1FDD38BC-4CDE-4118-9AAB-E6BB464D5960";
name = Regular;
paths = (
{
closed = 1;
nodes = (
"129 -137 LINE",
"94 -132 OFFCURVE",
"77 -117 OFFCURVE",
"77 -93 CURVE SMOOTH",
"77 -64 OFFCURVE",
"100 -37 OFFCURVE",
"159 0 CURVE",
"159 710 LINE",
"89 710 LINE",
"89 0 LINE",
"110 0 LINE",
"58 -36 OFFCURVE",
"35 -69 OFFCURVE",
"35 -102 CURVE SMOOTH",
"35 -137 OFFCURVE",
"61 -165 OFFCURVE",
"110 -175 CURVE"
);
}
);
width = 248;
}
);
leftKerningGroup = B;
rightKerningGroup = H;
unicode = 012E;
},
{
glyphname = iogonek;
lastChange = "2015-06-14 21:07:22 +0000";
layers = (
{
components = (
{
name = dotaccent;
transform = "{1, 0, 0, 1, 29, 0}";
}
);
layerId = "1FDD38BC-4CDE-4118-9AAB-E6BB464D5960";
name = Regular;
paths = (
{
closed = 1;
nodes = (
"113 -137 LINE",
"78 -132 OFFCURVE",
"61 -117 OFFCURVE",
"61 -93 CURVE SMOOTH",
"61 -64 OFFCURVE",
"84 -37 OFFCURVE",
"143 0 CURVE",
"143 521 LINE",
"75 521 LINE",
"75 0 LINE",
"94 0 LINE",
"42 -36 OFFCURVE",
"19 -69 OFFCURVE",
"19 -102 CURVE SMOOTH",
"19 -137 OFFCURVE",
"45 -165 OFFCURVE",
"94 -175 CURVE"
);
}
);
width = 218;
}
);
leftKerningGroup = i;
rightKerningGroup = i;
unicode = 012F;
},
{
glyphname = ij;
lastChange = "2015-06-14 21:07:22 +0000";
layers = (
{
components = (
{
name = dotaccent;
transform = "{1, 0, 0, 1, 29, 0}";
},
{
name = dotaccent;
transform = "{1, 0, 0, 1, 253, 0}";
}
);
layerId = "1FDD38BC-4CDE-4118-9AAB-E6BB464D5960";
name = Regular;
paths = (
{
closed = 1;
nodes = (
"143 0 LINE",
"143 521 LINE",
"75 521 LINE",
"75 0 LINE"
);
},
{
closed = 1;
nodes = (
"293 -181 OFFCURVE",
"368 -115 OFFCURVE",
"368 -23 CURVE SMOOTH",
"368 521 LINE",
"300 521 LINE",
"300 -27 LINE SMOOTH",
"300 -80 OFFCURVE",
"254 -120 OFFCURVE",
"207 -120 CURVE SMOOTH",
"182 -120 OFFCURVE",
"155 -115 OFFCURVE",
"134 -96 CURVE",
"101 -142 LINE",
"131 -170 OFFCURVE",
"171 -181 OFFCURVE",
"215 -181 CURVE SMOOTH"
);
}
);
width = 443;
}
);
leftKerningGroup = i;
rightKerningGroup = i;
unicode = 0133;
},
{
glyphname = jcircumflex;
lastChange = "2015-06-14 21:07:22 +0000";
layers = (
{
components = (
{
name = circumflex;
transform = "{1, 0, 0, 1, -57, 0}";
}
);
layerId = "1FDD38BC-4CDE-4118-9AAB-E6BB464D5960";
name = Regular;
paths = (
{
closed = 1;
nodes = (
"75 -213 LINE",
"143 -213 LINE",
"143 517 LINE",
"75 517 LINE"
);
}
);
width = 218;
}
);
leftKerningGroup = i;
rightKerningGroup = i;
unicode = 0135;
},
{
glyphname = dotlessj;
lastChange = "2015-06-14 21:07:22 +0000";
layers = (
{
layerId = "1FDD38BC-4CDE-4118-9AAB-E6BB464D5960";
name = Regular;
paths = (
{
closed = 1;
nodes = (
"75 -213 LINE",
"143 -213 LINE",
"143 517 LINE",
"75 517 LINE"
);
}
);
width = 218;
}
);
leftKerningGroup = i;
rightKerningGroup = i;
unicode = 0237;
},
{
glyphname = kgreenlandic;
lastChange = "2015-06-14 21:07:22 +0000";
layers = (
{
layerId = "1FDD38BC-4CDE-4118-9AAB-E6BB464D5960";
name = Regular;
paths = (
{
closed = 1;
nodes = (
"521 0 LINE",
"300 307 LINE",
"513 520 LINE",
"436 520 LINE",
"143 234 LINE",
"143 521 LINE",
"75 521 LINE",
"75 0 LINE",
"143 0 LINE",
"143 163 LINE",
"255 267 LINE",
"447 0 LINE"
);
}
);
width = 530;
}
);
rightKerningGroup = numbersign;
unicode = 0138;
},
{
glyphname = Lacute;
lastChange = "2015-06-14 21:07:22 +0000";
layers = (
{
components = (
{
name = acute;
transform = "{1, 0, 0, 1, 81, 184}";
}
);
layerId = "1FDD38BC-4CDE-4118-9AAB-E6BB464D5960";
name = Regular;
paths = (
{
closed = 1;
nodes = (
"569 0 LINE",
"569 62 LINE",
"159 62 LINE",
"159 710 LINE",
"89 710 LINE",
"89 0 LINE"
);
}
);
width = 583;
}
);
leftKerningGroup = B;
rightKerningGroup = L;
unicode = 0139;
},
{
glyphname = Ldot;
lastChange = "2015-06-14 21:07:22 +0000";
layers = (
{
components = (
{
name = L;
}
);
layerId = "1FDD38BC-4CDE-4118-9AAB-E6BB464D5960";
name = Regular;
paths = (
{
closed = 1;
nodes = (
"425 354 OFFCURVE",
"447 376 OFFCURVE",
"447 404 CURVE SMOOTH",
"447 431 OFFCURVE",
"425 454 OFFCURVE",
"397 454 CURVE SMOOTH",
"369 454 OFFCURVE",
"347 431 OFFCURVE",
"347 404 CURVE SMOOTH",
"347 376 OFFCURVE",
"369 354 OFFCURVE",
"397 354 CURVE SMOOTH"
);
}
);
width = 583;
}
);
rightKerningGroup = L;
unicode = 013F;
},
{
glyphname = ldot;
lastChange = "2015-06-14 21:07:22 +0000";
layers = (
{
components = (
{
name = l;
transform = "{1, 0, 0, 1, -12, 0}";
}
);
layerId = "1FDD38BC-4CDE-4118-9AAB-E6BB464D5960";
name = Regular;
paths = (
{
closed = 1;
nodes = (
"282 269 OFFCURVE",
"304 291 OFFCURVE",
"304 319 CURVE SMOOTH",
"304 346 OFFCURVE",
"282 369 OFFCURVE",
"254 369 CURVE SMOOTH",
"226 369 OFFCURVE",
"204 346 OFFCURVE",
"204 319 CURVE SMOOTH",
"204 291 OFFCURVE",
"226 269 OFFCURVE",
"254 269 CURVE SMOOTH"
);
}
);
width = 314;
}
);
leftKerningGroup = l;
rightKerningGroup = numbersign;
unicode = 0140;
},
{
glyphname = Lslash;
lastChange = "2015-06-14 21:07:22 +0000";
layers = (
{
layerId = "1FDD38BC-4CDE-4118-9AAB-E6BB464D5960";
name = Regular;
paths = (
{
closed = 1;
nodes = (
"576 0 LINE",
"576 62 LINE",
"166 62 LINE",
"166 325 LINE",
"352 480 LINE",
"321 522 LINE",
"166 393 LINE",
"166 710 LINE",
"96 710 LINE",
"96 335 LINE",
"16 269 LINE",
"48 228 LINE",
"96 267 LINE",
"96 0 LINE"
);
}
);
width = 590;
}
);
leftKerningGroup = B;
rightKerningGroup = L;
unicode = 0141;
},
{
glyphname = lslash;
lastChange = "2015-06-14 21:07:22 +0000";
layers = (
{
components = (
{
name = l;
}
);
layerId = "1FDD38BC-4CDE-4118-9AAB-E6BB464D5960";
name = Regular;
paths = (
{
closed = 1;
nodes = (
"-18 325 LINE",
"9 289 LINE",
"258 485 LINE",
"230 521 LINE"
);
}
);
width = 229;
}
);
leftKerningGroup = l;
rightKerningGroup = l;
unicode = 0142;
},
{
glyphname = Nacute;
lastChange = "2015-06-14 21:07:22 +0000";
layers = (
{
components = (
{
name = acute;
transform = "{1, 0, 0, 1, 298, 188}";
}
);
layerId = "1FDD38BC-4CDE-4118-9AAB-E6BB464D5960";
name = Regular;
paths = (
{
closed = 1;
nodes = (
"622 0 LINE",
"683 0 LINE",
"683 709 LINE",
"613 709 LINE",
"613 119 LINE",
"143 710 LINE",
"89 710 LINE",
"89 0 LINE",
"159 0 LINE",
"159 580 LINE"
);
}
);
width = 772;
}
);
leftKerningGroup = B;
rightKerningGroup = H;
unicode = 0143;
},
{
glyphname = nacute;
lastChange = "2015-06-14 21:07:22 +0000";
layers = (
{
components = (
{
name = acute;
transform = "{1, 0, 0, 1, 240, 0}";
}
);
layerId = "1FDD38BC-4CDE-4118-9AAB-E6BB464D5960";
name = Regular;
paths = (
{
closed = 1;
nodes = (
"513 305 LINE SMOOTH",
"513 442 OFFCURVE",
"474 530 OFFCURVE",
"358 530 CURVE SMOOTH",
"265 530 OFFCURVE",
"179 479 OFFCURVE",
"137 403 CURVE",
"137 521 LINE",
"75 521 LINE",
"75 0 LINE",
"143 0 LINE",
"143 319 LINE",
"168 405 OFFCURVE",
"253 468 OFFCURVE",
"333 468 CURVE SMOOTH",
"409 468 OFFCURVE",
"445 414 OFFCURVE",
"445 291 CURVE SMOOTH",
"445 0 LINE",
"513 0 LINE"
);
}
);
width = 583;
}
);
leftKerningGroup = m;
rightKerningGroup = m;
unicode = 0144;
},
{
glyphname = Ncaron;
lastChange = "2015-06-14 21:07:22 +0000";
layers = (
{
components = (
{
name = caron;
transform = "{1, 0, 0, 1, 210, 186}";
}
);
layerId = "1FDD38BC-4CDE-4118-9AAB-E6BB464D5960";
name = Regular;
paths = (
{
closed = 1;
nodes = (
"622 0 LINE",
"683 0 LINE",
"683 709 LINE",
"613 709 LINE",
"613 119 LINE",
"143 710 LINE",
"89 710 LINE",
"89 0 LINE",
"159 0 LINE",
"159 580 LINE"
);
}
);
width = 772;
}
);
leftKerningGroup = B;
rightKerningGroup = H;
unicode = 0147;
},
{
glyphname = ncaron;
lastChange = "2015-06-14 21:07:22 +0000";
layers = (
{
components = (
{
name = caron;
transform = "{1, 0, 0, 1, 136, 0}";
}
);
layerId = "1FDD38BC-4CDE-4118-9AAB-E6BB464D5960";
name = Regular;
paths = (
{
closed = 1;
nodes = (
"513 305 LINE SMOOTH",
"513 442 OFFCURVE",
"474 530 OFFCURVE",
"358 530 CURVE SMOOTH",
"265 530 OFFCURVE",
"179 479 OFFCURVE",
"137 403 CURVE",
"137 521 LINE",
"75 521 LINE",
"75 0 LINE",
"143 0 LINE",
"143 319 LINE",
"168 405 OFFCURVE",
"253 468 OFFCURVE",
"333 468 CURVE SMOOTH",
"409 468 OFFCURVE",
"445 414 OFFCURVE",
"445 291 CURVE SMOOTH",
"445 0 LINE",
"513 0 LINE"
);
}
);
width = 583;
}
);
leftKerningGroup = m;
rightKerningGroup = m;
unicode = 0148;
},
{
glyphname = apostrophe;
lastChange = "2015-06-14 21:07:22 +0000";
layers = (
{
layerId = "1FDD38BC-4CDE-4118-9AAB-E6BB464D5960";
name = Regular;
paths = (
{
closed = 1;
nodes = (
"240 730 LINE",
"156 730 LINE",
"75 596 LINE",
"119 596 LINE"
);
}
);
width = 200;
}
);
leftKerningGroup = apostrophe;
rightKerningGroup = apostrophe;
unicode = 02BC;
},
{
glyphname = Eng;
lastChange = "2015-06-14 21:07:22 +0000";
layers = (
{
layerId = "1FDD38BC-4CDE-4118-9AAB-E6BB464D5960";
name = Regular;
paths = (
{
closed = 1;
nodes = (
"609 9 LINE",
"609 -27 LINE SMOOTH",
"609 -80 OFFCURVE",
"562 -120 OFFCURVE",
"515 -120 CURVE SMOOTH",
"490 -120 OFFCURVE",
"463 -115 OFFCURVE",
"443 -96 CURVE",
"409 -142 LINE",
"440 -170 OFFCURVE",
"480 -181 OFFCURVE",
"523 -181 CURVE SMOOTH",
"600 -181 OFFCURVE",
"677 -117 OFFCURVE",
"677 -25 CURVE SMOOTH",
"677 709 LINE",
"608 709 LINE",
"608 122 LINE",
"142 710 LINE",
"89 710 LINE",
"89 0 LINE",
"159 0 LINE",
"159 579 LINE"
);
}
);
width = 766;
}
);
leftKerningGroup = B;
rightKerningGroup = H;
unicode = 014A;
},
{
glyphname = eng;
lastChange = "2015-06-14 21:07:22 +0000";
layers = (
{
layerId = "1FDD38BC-4CDE-4118-9AAB-E6BB464D5960";
name = Regular;
paths = (
{
closed = 1;
nodes = (
"438 -181 OFFCURVE",
"513 -115 OFFCURVE",
"513 -23 CURVE SMOOTH",
"513 305 LINE SMOOTH",
"513 442 OFFCURVE",
"474 530 OFFCURVE",
"358 530 CURVE SMOOTH",
"265 530 OFFCURVE",
"179 479 OFFCURVE",
"137 403 CURVE",
"137 521 LINE",
"75 521 LINE",
"75 0 LINE",
"143 0 LINE",
"143 319 LINE",
"168 405 OFFCURVE",
"253 468 OFFCURVE",
"333 468 CURVE SMOOTH",
"409 468 OFFCURVE",
"445 414 OFFCURVE",
"445 291 CURVE SMOOTH",
"445 -27 LINE SMOOTH",
"445 -80 OFFCURVE",
"399 -120 OFFCURVE",
"352 -120 CURVE SMOOTH",
"327 -120 OFFCURVE",
"300 -115 OFFCURVE",
"279 -96 CURVE",
"246 -142 LINE",
"276 -170 OFFCURVE",
"316 -181 OFFCURVE",
"360 -181 CURVE SMOOTH"
);
}
);
width = 583;
}
);
leftKerningGroup = m;
rightKerningGroup = m;
unicode = 014B;
},
{
glyphname = Omacron;
lastChange = "2015-06-14 21:07:22 +0000";
layers = (
{
layerId = "1FDD38BC-4CDE-4118-9AAB-E6BB464D5960";
name = Regular;
paths = (
{
closed = 1;
nodes = (
"521 850 LINE",
"521 897 LINE",
"232 897 LINE",
"232 850 LINE"
);
},
{
closed = 1;
nodes = (
"565 -5 OFFCURVE",
"708 165 OFFCURVE",
"708 354 CURVE SMOOTH",
"708 532 OFFCURVE",
"574 715 OFFCURVE",
"376 715 CURVE SMOOTH",
"186 715 OFFCURVE",
"42 544 OFFCURVE",
"42 355 CURVE SMOOTH",
"42 173 OFFCURVE",
"177 -5 OFFCURVE",
"375 -5 CURVE SMOOTH"
);
},
{
closed = 1;
nodes = (
"112 502 OFFCURVE",
"214 651 OFFCURVE",
"375 651 CURVE SMOOTH",
"529 651 OFFCURVE",
"638 509 OFFCURVE",
"638 355 CURVE SMOOTH",
"638 209 OFFCURVE",
"536 58 OFFCURVE",
"375 58 CURVE SMOOTH",
"219 58 OFFCURVE",
"112 201 OFFCURVE",
"112 355 CURVE SMOOTH"
);
}
);
width = 751;
}
);
leftKerningGroup = C;
rightKerningGroup = O;
unicode = 014C;
},
{
glyphname = omacron;
lastChange = "2015-06-14 21:07:22 +0000";
layers = (
{
layerId = "1FDD38BC-4CDE-4118-9AAB-E6BB464D5960";
name = Regular;
paths = (
{
closed = 1;
nodes = (
"442 663 LINE",
"442 710 LINE",
"153 710 LINE",
"153 663 LINE"
);
},
{
closed = 1;
nodes = (
"448 -10 OFFCURVE",
"556 114 OFFCURVE",
"556 259 CURVE SMOOTH",
"556 405 OFFCURVE",
"447 530 OFFCURVE",
"297 530 CURVE SMOOTH",
"148 530 OFFCURVE",
"39 405 OFFCURVE",
"39 259 CURVE SMOOTH",
"39 114 OFFCURVE",
"146 -10 OFFCURVE",
"297 -10 CURVE SMOOTH"
);
},
{
closed = 1;
nodes = (
"108 375 OFFCURVE",
"194 470 OFFCURVE",
"297 470 CURVE SMOOTH",
"401 470 OFFCURVE",
"487 376 OFFCURVE",
"487 260 CURVE SMOOTH",
"487 144 OFFCURVE",
"401 50 OFFCURVE",
"297 50 CURVE SMOOTH",
"193 50 OFFCURVE",
"108 142 OFFCURVE",
"108 258 CURVE SMOOTH"
);
}
);
width = 595;
}
);
leftKerningGroup = c;
rightKerningGroup = o;
unicode = 014D;
},
{
glyphname = hungarumlaut;
lastChange = "2015-06-14 21:07:22 +0000";
layers = (
{
anchors = (
{
name = _top;
position = "{175, 521}";
}
);
layerId = "1FDD38BC-4CDE-4118-9AAB-E6BB464D5960";
name = Regular;
paths = (
{
closed = 1;
nodes = (
"360 751 LINE",
"266 751 LINE",
"177 596 LINE",
"217 596 LINE"
);
},
{
closed = 1;
nodes = (
"211 751 LINE",
"117 751 LINE",
"28 596 LINE",
"68 596 LINE"
);
}
);
width = 326;
}
);
rightKerningGroup = numbersign;
unicode = 02DD;
},
{
glyphname = OE;
lastChange = "2015-06-14 21:07:22 +0000";
layers = (
{
layerId = "1FDD38BC-4CDE-4118-9AAB-E6BB464D5960";
name = Regular;
paths = (
{
closed = 1;
nodes = (
"710 62 LINE",
"710 331 LINE",
"1049 331 LINE",
"1049 393 LINE",
"710 393 LINE",
"710 648 LINE",
"1103 648 LINE",
"1103 710 LINE",
"640 710 LINE",
"640 530 LINE",
"596 632 OFFCURVE",
"500 715 OFFCURVE",
"376 715 CURVE SMOOTH",
"186 715 OFFCURVE",
"42 544 OFFCURVE",
"42 355 CURVE SMOOTH",
"42 173 OFFCURVE",
"178 -5 OFFCURVE",
"376 -5 CURVE SMOOTH",
"495 -5 OFFCURVE",
"595 75 OFFCURVE",
"640 180 CURVE",
"640 0 LINE",
"1112 0 LINE",
"1112 62 LINE"
);
},
{
closed = 1;
nodes = (
"219 58 OFFCURVE",
"112 201 OFFCURVE",
"112 355 CURVE SMOOTH",
"112 502 OFFCURVE",
"214 652 OFFCURVE",
"375 652 CURVE SMOOTH",
"529 652 OFFCURVE",
"638 509 OFFCURVE",
"638 356 CURVE SMOOTH",
"638 208 OFFCURVE",
"536 58 OFFCURVE",
"375 58 CURVE SMOOTH"
);
}
);
width = 1153;
}
);
leftKerningGroup = C;
rightKerningGroup = E;
unicode = 0152;
},
{
glyphname = oe;
lastChange = "2015-06-14 21:07:22 +0000";
layers = (
{
layerId = "1FDD38BC-4CDE-4118-9AAB-E6BB464D5960";
name = Regular;
paths = (
{
closed = 1;
nodes = (
"395 -10 OFFCURVE",
"478 52 OFFCURVE",
"522 153 CURVE",
"566 55 OFFCURVE",
"655 -10 OFFCURVE",
"755 -10 CURVE SMOOTH",
"852 -10 OFFCURVE",
"943 43 OFFCURVE",
"977 120 CURVE",
"919 136 LINE",
"897 80 OFFCURVE",
"830 42 OFFCURVE",
"758 42 CURVE SMOOTH",
"654 42 OFFCURVE",
"567 127 OFFCURVE",
"558 236 CURVE",
"1004 236 LINE",
"1004 412 OFFCURVE",
"898 530 OFFCURVE",
"746 530 CURVE SMOOTH",
"640 530 OFFCURVE",
"557 469 OFFCURVE",
"520 365 CURVE",
"484 466 OFFCURVE",
"399 530 OFFCURVE",
"298 530 CURVE SMOOTH",
"152 530 OFFCURVE",
"39 411 OFFCURVE",
"39 258 CURVE SMOOTH",
"39 108 OFFCURVE",
"151 -10 OFFCURVE",
"296 -10 CURVE SMOOTH"
);
},
{
closed = 1;
nodes = (
"192 50 OFFCURVE",
"108 140 OFFCURVE",
"108 257 CURVE SMOOTH",
"108 375 OFFCURVE",
"193 470 OFFCURVE",
"298 470 CURVE SMOOTH",
"403 470 OFFCURVE",
"487 377 OFFCURVE",
"487 259 CURVE SMOOTH",
"487 142 OFFCURVE",
"403 50 OFFCURVE",
"297 50 CURVE SMOOTH"
);
},
{
closed = 1;
nodes = (
"557 282 LINE",
"563 395 OFFCURVE",
"642 477 OFFCURVE",
"745 477 CURVE SMOOTH",
"847 477 OFFCURVE",
"931 396 OFFCURVE",
"938 282 CURVE"
);
}
);
width = 1034;
}
);
leftKerningGroup = c;
rightKerningGroup = e;
unicode = 0153;
},
{
glyphname = racute;
lastChange = "2015-06-14 21:07:22 +0000";
layers = (
{
components = (
{
name = acute;
transform = "{1, 0, 0, 1, 62, 0}";
}
);
layerId = "1FDD38BC-4CDE-4118-9AAB-E6BB464D5960";
name = Regular;
paths = (
{
closed = 1;
nodes = (
"335 523 LINE",
"330 524 OFFCURVE",
"327 524 OFFCURVE",
"322 524 CURVE SMOOTH",
"248 524 OFFCURVE",
"178 476 OFFCURVE",
"139 396 CURVE",
"139 521 LINE",
"75 521 LINE",
"75 0 LINE",
"143 0 LINE",
"143 324 LINE",
"171 408 OFFCURVE",
"244 458 OFFCURVE",
"335 461 CURVE"
);
}
);
width = 351;
}
);
leftKerningGroup = m;
rightKerningGroup = r;
unicode = 0155;
},
{
glyphname = Rcaron;
lastChange = "2015-06-14 21:07:22 +0000";
layers = (
{
components = (
{
name = caron;
transform = "{1, 0, 0, 1, 145, 187}";
}
);
layerId = "1FDD38BC-4CDE-4118-9AAB-E6BB464D5960";
name = Regular;
paths = (
{
closed = 1;
nodes = (
"159 0 LINE",
"159 262 LINE",
"369 262 LINE",
"536 0 LINE",
"615 0 LINE",
"441 274 LINE",
"536 293 OFFCURVE",
"599 384 OFFCURVE",
"599 487 CURVE SMOOTH",
"599 597 OFFCURVE",
"511 710 OFFCURVE",
"389 710 CURVE SMOOTH",
"89 710 LINE",
"89 0 LINE"
);
},
{
closed = 1;
nodes = (
"159 648 LINE",
"385 648 LINE SMOOTH",
"463 648 OFFCURVE",
"529 573 OFFCURVE",
"529 487 CURVE SMOOTH",
"529 403 OFFCURVE",
"475 324 OFFCURVE",
"391 324 CURVE SMOOTH",
"159 324 LINE"
);
}
);
width = 653;
}
);
leftKerningGroup = B;
rightKerningGroup = R;
unicode = 0158;
},
{
glyphname = rcaron;
lastChange = "2015-06-14 21:07:22 +0000";
layers = (
{
components = (
{
name = caron;
transform = "{1, 0, 0, 1, 21, 0}";
}
);
layerId = "1FDD38BC-4CDE-4118-9AAB-E6BB464D5960";
name = Regular;
paths = (
{
closed = 1;
nodes = (
"335 523 LINE",
"330 524 OFFCURVE",
"327 524 OFFCURVE",
"322 524 CURVE SMOOTH",
"248 524 OFFCURVE",
"178 476 OFFCURVE",
"139 396 CURVE",
"139 521 LINE",
"75 521 LINE",
"75 0 LINE",
"143 0 LINE",
"143 324 LINE",
"171 408 OFFCURVE",
"244 458 OFFCURVE",
"335 461 CURVE"
);
}
);
width = 351;
}
);
leftKerningGroup = m;
rightKerningGroup = r;
unicode = 0159;
},
{
glyphname = Sacute;
lastChange = "2015-06-14 21:07:22 +0000";
layers = (
{
components = (
{
name = acute;
transform = "{1, 0, 0, 1, 256, 185}";
}
);
layerId = "1FDD38BC-4CDE-4118-9AAB-E6BB464D5960";
name = Regular;
paths = (
{
closed = 1;
nodes = (
"538 633 LINE",
"479 685 OFFCURVE",
"405 715 OFFCURVE",
"311 715 CURVE SMOOTH",
"163 715 OFFCURVE",
"58 643 OFFCURVE",
"58 511 CURVE SMOOTH",
"58 396 OFFCURVE",
"137 360 OFFCURVE",
"285 326 CURVE SMOOTH",
"426 294 OFFCURVE",
"499 266 OFFCURVE",
"499 179 CURVE SMOOTH",
"499 97 OFFCURVE",
"432 56 OFFCURVE",
"319 56 CURVE SMOOTH",
"211 56 OFFCURVE",
"118 100 OFFCURVE",
"67 154 CURVE",
"32 97 LINE",
"111 29 OFFCURVE",
"207 -6 OFFCURVE",
"317 -6 CURVE SMOOTH",
"466 -6 OFFCURVE",
"573 55 OFFCURVE",
"573 186 CURVE SMOOTH",
"573 313 OFFCURVE",
"478 352 OFFCURVE",
"327 385 CURVE SMOOTH",
"190 415 OFFCURVE",
"130 437 OFFCURVE",
"130 521 CURVE SMOOTH",
"130 602 OFFCURVE",
"185 653 OFFCURVE",
"310 653 CURVE SMOOTH",
"395 653 OFFCURVE",
"464 622 OFFCURVE",
"504 577 CURVE"
);
}
);
width = 607;
}
);
leftKerningGroup = S;
rightKerningGroup = S;
unicode = 015A;
},
{
glyphname = sacute;
lastChange = "2015-06-14 21:07:22 +0000";
layers = (
{
components = (
{
name = acute;
transform = "{1, 0, 0, 1, 189, 0}";
}
);
layerId = "1FDD38BC-4CDE-4118-9AAB-E6BB464D5960";
name = Regular;
paths = (
{
closed = 1;
nodes = (
"371 -10 OFFCURVE",
"451 51 OFFCURVE",
"451 146 CURVE SMOOTH",
"451 235 OFFCURVE",
"382 261 OFFCURVE",
"248 293 CURVE SMOOTH",
"155 315 OFFCURVE",
"118 327 OFFCURVE",
"118 382 CURVE SMOOTH",
"118 450 OFFCURVE",
"175 479 OFFCURVE",
"246 479 CURVE SMOOTH",
"305 479 OFFCURVE",
"364 459 OFFCURVE",
"403 419 CURVE",
"436 459 LINE",
"396 501 OFFCURVE",
"328 530 OFFCURVE",
"248 530 CURVE SMOOTH",
"141 530 OFFCURVE",
"53 477 OFFCURVE",
"53 372 CURVE SMOOTH",
"53 290 OFFCURVE",
"107 269 OFFCURVE",
"228 239 CURVE SMOOTH",
"333 214 OFFCURVE",
"385 198 OFFCURVE",
"385 140 CURVE SMOOTH",
"385 78 OFFCURVE",
"330 42 OFFCURVE",
"247 42 CURVE SMOOTH",
"178 42 OFFCURVE",
"118 66 OFFCURVE",
"60 114 CURVE",
"29 68 LINE",
"85 17 OFFCURVE",
"167 -10 OFFCURVE",
"248 -10 CURVE SMOOTH"
);
}
);
width = 487;
}
);
leftKerningGroup = s;
rightKerningGroup = s;
unicode = 015B;
},
{
glyphname = uni015E;
lastChange = "2015-06-14 21:07:22 +0000";
layers = (
{
layerId = "1FDD38BC-4CDE-4118-9AAB-E6BB464D5960";
name = Regular;
paths = (
{
closed = 1;
nodes = (
"227 -157 LINE",
"253 -167 OFFCURVE",
"288 -176 OFFCURVE",
"326 -176 CURVE SMOOTH",
"392 -176 OFFCURVE",
"428 -151 OFFCURVE",
"428 -106 CURVE SMOOTH",
"428 -66 OFFCURVE",
"398 -45 OFFCURVE",
"352 -45 CURVE SMOOTH",
"342 -45 OFFCURVE",
"326 -46 OFFCURVE",
"314 -51 CURVE",
"342 -5 LINE",
"478 1 OFFCURVE",
"573 62 OFFCURVE",
"573 186 CURVE SMOOTH",
"573 313 OFFCURVE",
"478 352 OFFCURVE",
"327 385 CURVE SMOOTH",
"190 415 OFFCURVE",
"130 437 OFFCURVE",
"130 521 CURVE SMOOTH",
"130 602 OFFCURVE",
"185 653 OFFCURVE",
"310 653 CURVE SMOOTH",
"395 653 OFFCURVE",
"464 622 OFFCURVE",
"504 577 CURVE",
"538 633 LINE",
"479 685 OFFCURVE",
"405 715 OFFCURVE",
"311 715 CURVE SMOOTH",
"163 715 OFFCURVE",
"58 643 OFFCURVE",
"58 511 CURVE SMOOTH",
"58 396 OFFCURVE",
"137 360 OFFCURVE",
"285 326 CURVE SMOOTH",
"426 294 OFFCURVE",
"499 266 OFFCURVE",
"499 179 CURVE SMOOTH",
"499 97 OFFCURVE",
"432 56 OFFCURVE",
"319 56 CURVE SMOOTH",
"211 56 OFFCURVE",
"118 100 OFFCURVE",
"67 154 CURVE",
"32 97 LINE",
"107 32 OFFCURVE",
"199 -3 OFFCURVE",
"303 -6 CURVE",
"259 -87 LINE",
"276 -81 OFFCURVE",
"311 -73 OFFCURVE",
"339 -73 CURVE SMOOTH",
"369 -73 OFFCURVE",
"389 -82 OFFCURVE",
"389 -109 CURVE SMOOTH",
"389 -134 OFFCURVE",
"369 -144 OFFCURVE",
"332 -144 CURVE SMOOTH",
"297 -144 OFFCURVE",
"262 -135 OFFCURVE",
"244 -126 CURVE"
);
}
);
width = 608;
}
);
leftKerningGroup = S;
rightKerningGroup = S;
unicode = 015E;
},
{
glyphname = uni015F;
lastChange = "2015-06-14 21:07:22 +0000";
layers = (
{
layerId = "1FDD38BC-4CDE-4118-9AAB-E6BB464D5960";
name = Regular;
paths = (
{
closed = 1;
nodes = (
"154 -157 LINE",
"180 -167 OFFCURVE",
"215 -176 OFFCURVE",
"253 -176 CURVE SMOOTH",
"319 -176 OFFCURVE",
"355 -151 OFFCURVE",
"355 -106 CURVE SMOOTH",
"355 -66 OFFCURVE",
"325 -45 OFFCURVE",
"279 -45 CURVE SMOOTH",
"269 -45 OFFCURVE",
"253 -46 OFFCURVE",
"241 -51 CURVE",
"267 -9 LINE",
"379 -3 OFFCURVE",
"451 56 OFFCURVE",
"451 146 CURVE SMOOTH",
"451 235 OFFCURVE",
"382 261 OFFCURVE",
"248 293 CURVE SMOOTH",
"155 315 OFFCURVE",
"118 327 OFFCURVE",
"118 382 CURVE SMOOTH",
"118 450 OFFCURVE",
"175 479 OFFCURVE",
"246 479 CURVE SMOOTH",
"305 479 OFFCURVE",
"364 459 OFFCURVE",
"403 419 CURVE",
"436 459 LINE",
"396 501 OFFCURVE",
"328 530 OFFCURVE",
"248 530 CURVE SMOOTH",
"141 530 OFFCURVE",
"53 477 OFFCURVE",
"53 372 CURVE SMOOTH",
"53 290 OFFCURVE",
"107 269 OFFCURVE",
"228 239 CURVE SMOOTH",
"333 214 OFFCURVE",
"385 198 OFFCURVE",
"385 140 CURVE SMOOTH",
"385 78 OFFCURVE",
"330 42 OFFCURVE",
"247 42 CURVE SMOOTH",
"178 42 OFFCURVE",
"118 66 OFFCURVE",
"60 114 CURVE",
"29 68 LINE",
"80 21 OFFCURVE",
"153 -5 OFFCURVE",
"228 -9 CURVE",
"186 -87 LINE",
"203 -81 OFFCURVE",
"238 -73 OFFCURVE",
"266 -73 CURVE SMOOTH",
"296 -73 OFFCURVE",
"316 -82 OFFCURVE",
"316 -109 CURVE SMOOTH",
"316 -134 OFFCURVE",
"296 -144 OFFCURVE",
"259 -144 CURVE SMOOTH",
"224 -144 OFFCURVE",
"189 -135 OFFCURVE",
"171 -126 CURVE"
);
}
);
width = 488;
}
);
leftKerningGroup = s;
rightKerningGroup = s;
unicode = 015F;
},
{
glyphname = scaron;
lastChange = "2015-06-14 21:07:22 +0000";
layers = (
{
components = (
{
name = caron;
transform = "{1, 0, 0, 1, 77, 0}";
}
);
layerId = "1FDD38BC-4CDE-4118-9AAB-E6BB464D5960";
name = Regular;
paths = (
{
closed = 1;
nodes = (
"371 -10 OFFCURVE",
"451 51 OFFCURVE",
"451 146 CURVE SMOOTH",
"451 235 OFFCURVE",
"382 261 OFFCURVE",
"248 293 CURVE SMOOTH",
"155 315 OFFCURVE",
"118 327 OFFCURVE",
"118 382 CURVE SMOOTH",
"118 450 OFFCURVE",
"175 479 OFFCURVE",
"246 479 CURVE SMOOTH",
"305 479 OFFCURVE",
"364 459 OFFCURVE",
"403 419 CURVE",
"436 459 LINE",
"396 501 OFFCURVE",
"328 530 OFFCURVE",
"248 530 CURVE SMOOTH",
"141 530 OFFCURVE",
"53 477 OFFCURVE",
"53 372 CURVE SMOOTH",
"53 290 OFFCURVE",
"107 269 OFFCURVE",
"228 239 CURVE SMOOTH",
"333 214 OFFCURVE",
"385 198 OFFCURVE",
"385 140 CURVE SMOOTH",
"385 78 OFFCURVE",
"330 42 OFFCURVE",
"247 42 CURVE SMOOTH",
"178 42 OFFCURVE",
"118 66 OFFCURVE",
"60 114 CURVE",
"29 68 LINE",
"85 17 OFFCURVE",
"167 -10 OFFCURVE",
"248 -10 CURVE SMOOTH"
);
}
);
width = 487;
}
);
leftKerningGroup = s;
rightKerningGroup = s;
unicode = 0161;
},
{
glyphname = uni0162;
lastChange = "2015-06-14 21:07:22 +0000";
layers = (
{
layerId = "1FDD38BC-4CDE-4118-9AAB-E6BB464D5960";
name = Regular;
paths = (
{
closed = 1;
nodes = (
"210 -157 LINE",
"236 -167 OFFCURVE",
"271 -176 OFFCURVE",
"309 -176 CURVE SMOOTH",
"375 -176 OFFCURVE",
"411 -151 OFFCURVE",
"411 -106 CURVE SMOOTH",
"411 -66 OFFCURVE",
"381 -45 OFFCURVE",
"335 -45 CURVE SMOOTH",
"325 -45 OFFCURVE",
"309 -46 OFFCURVE",
"297 -51 CURVE",
"329 0 LINE",
"339 0 LINE",
"339 648 LINE",
"592 648 LINE",
"592 710 LINE",
"16 710 LINE",
"16 648 LINE",
"269 648 LINE",
"269 0 LINE",
"289 0 LINE",
"242 -87 LINE",
"259 -81 OFFCURVE",
"294 -73 OFFCURVE",
"322 -73 CURVE SMOOTH",
"352 -73 OFFCURVE",
"372 -82 OFFCURVE",
"372 -109 CURVE SMOOTH",
"372 -134 OFFCURVE",
"352 -144 OFFCURVE",
"315 -144 CURVE SMOOTH",
"280 -144 OFFCURVE",
"245 -135 OFFCURVE",
"227 -126 CURVE"
);
}
);
width = 609;
}
);
leftKerningGroup = T;
rightKerningGroup = T;
unicode = 0162;
},
{
glyphname = Tcaron;
lastChange = "2015-06-14 21:07:22 +0000";
layers = (
{
components = (
{
name = caron;
transform = "{1, 0, 0, 1, 133, 186}";
}
);
layerId = "1FDD38BC-4CDE-4118-9AAB-E6BB464D5960";
name = Regular;
paths = (
{
closed = 1;
nodes = (
"593 710 LINE",
"17 710 LINE",
"17 648 LINE",
"270 648 LINE",
"270 0 LINE",
"340 0 LINE",
"340 648 LINE",
"593 648 LINE"
);
}
);
width = 610;
}
);
leftKerningGroup = T;
rightKerningGroup = T;
unicode = 0164;
},
{
glyphname = Tbar;
lastChange = "2015-06-14 21:07:22 +0000";
layers = (
{
components = (
{
name = T;
}
);
layerId = "1FDD38BC-4CDE-4118-9AAB-E6BB464D5960";
name = Regular;
paths = (
{
closed = 1;
nodes = (
"85 367 LINE",
"546 367 LINE",
"546 413 LINE",
"85 413 LINE"
);
}
);
width = 641;
}
);
leftKerningGroup = T;
rightKerningGroup = T;
unicode = 0166;
},
{
glyphname = tbar;
lastChange = "2015-06-14 21:07:22 +0000";
layers = (
{
components = (
{
name = t;
}
);
layerId = "1FDD38BC-4CDE-4118-9AAB-E6BB464D5960";
name = Regular;
paths = (
{
closed = 1;
nodes = (
"45 307 LINE",
"286 307 LINE",
"286 353 LINE",
"45 353 LINE"
);
}
);
width = 337;
}
);
leftKerningGroup = t;
rightKerningGroup = t;
unicode = 0167;
},
{
glyphname = Utilde;
lastChange = "2015-06-14 21:07:22 +0000";
layers = (
{
layerId = "1FDD38BC-4CDE-4118-9AAB-E6BB464D5960";
name = Regular;
paths = (
{
closed = 1;
nodes = (
"201 58 OFFCURVE",
"148 203 OFFCURVE",
"148 352 CURVE SMOOTH",
"148 710 LINE",
"79 710 LINE",
"79 352 LINE SMOOTH",
"79 171 OFFCURVE",
"153 -5 OFFCURVE",
"378 -5 CURVE SMOOTH",
"596 -5 OFFCURVE",
"677 161 OFFCURVE",
"677 352 CURVE SMOOTH",
"677 710 LINE",
"607 710 LINE",
"607 352 LINE SMOOTH",
"607 207 OFFCURVE",
"557 58 OFFCURVE",
"377 58 CURVE SMOOTH"
);
},
{
closed = 1;
nodes = (
"521 825 OFFCURVE",
"538 904 OFFCURVE",
"538 917 CURVE",
"496 917 LINE",
"496 913 OFFCURVE",
"491 868 OFFCURVE",
"439 868 CURVE SMOOTH",
"389 868 OFFCURVE",
"367 910 OFFCURVE",
"311 910 CURVE SMOOTH",
"236 910 OFFCURVE",
"220 831 OFFCURVE",
"220 817 CURVE",
"262 817 LINE",
"262 822 OFFCURVE",
"268 865 OFFCURVE",
"312 865 CURVE SMOOTH",
"354 865 OFFCURVE",
"380 825 OFFCURVE",
"440 825 CURVE SMOOTH"
);
}
);
width = 755;
}
);
leftKerningGroup = U;
rightKerningGroup = U;
unicode = 0168;
},
{
glyphname = utilde;
lastChange = "2015-06-14 21:07:22 +0000";
layers = (
{
layerId = "1FDD38BC-4CDE-4118-9AAB-E6BB464D5960";
name = Regular;
paths = (
{
closed = 1;
nodes = (
"326 -10 OFFCURVE",
"410 37 OFFCURVE",
"455 118 CURVE",
"455 58 LINE SMOOTH",
"455 22 OFFCURVE",
"477 -1 OFFCURVE",
"509 -2 CURVE SMOOTH",
"513 -2 OFFCURVE",
"523 -2 OFFCURVE",
"539 0 CURVE",
"539 60 LINE",
"522 60 OFFCURVE",
"515 69 OFFCURVE",
"515 88 CURVE SMOOTH",
"515 521 LINE",
"447 521 LINE",
"447 193 LINE",
"416 106 OFFCURVE",
"339 50 OFFCURVE",
"259 50 CURVE SMOOTH",
"178 50 OFFCURVE",
"138 108 OFFCURVE",
"138 227 CURVE SMOOTH",
"138 521 LINE",
"70 521 LINE",
"70 215 LINE SMOOTH",
"70 67 OFFCURVE",
"126 -10 OFFCURVE",
"238 -10 CURVE SMOOTH"
);
},
{
closed = 1;
nodes = (
"434 638 OFFCURVE",
"451 717 OFFCURVE",
"451 730 CURVE",
"409 730 LINE",
"409 726 OFFCURVE",
"404 681 OFFCURVE",
"352 681 CURVE SMOOTH",
"302 681 OFFCURVE",
"280 723 OFFCURVE",
"224 723 CURVE SMOOTH",
"149 723 OFFCURVE",
"133 644 OFFCURVE",
"133 630 CURVE",
"175 630 LINE",
"175 635 OFFCURVE",
"181 678 OFFCURVE",
"225 678 CURVE SMOOTH",
"267 678 OFFCURVE",
"293 638 OFFCURVE",
"353 638 CURVE SMOOTH"
);
}
);
width = 594;
}
);
leftKerningGroup = u;
rightKerningGroup = u;
unicode = 0169;
},
{
glyphname = Uogonek;
lastChange = "2015-06-14 21:07:22 +0000";
layers = (
{
layerId = "1FDD38BC-4CDE-4118-9AAB-E6BB464D5960";
name = Regular;
paths = (
{
closed = 1;
nodes = (
"201 58 OFFCURVE",
"148 203 OFFCURVE",
"148 352 CURVE SMOOTH",
"148 710 LINE",
"79 710 LINE",
"79 352 LINE SMOOTH",
"79 179 OFFCURVE",
"147 11 OFFCURVE",
"349 -3 CURVE",
"298 -39 OFFCURVE",
"275 -72 OFFCURVE",
"275 -105 CURVE SMOOTH",
"275 -140 OFFCURVE",
"301 -168 OFFCURVE",
"350 -178 CURVE",
"369 -140 LINE",
"334 -135 OFFCURVE",
"317 -120 OFFCURVE",
"317 -96 CURVE SMOOTH",
"317 -67 OFFCURVE",
"339 -41 OFFCURVE",
"397 -4 CURVE",
"600 5 OFFCURVE",
"677 166 OFFCURVE",
"677 352 CURVE SMOOTH",
"677 710 LINE",
"607 710 LINE",
"607 352 LINE SMOOTH",
"607 207 OFFCURVE",
"557 58 OFFCURVE",
"377 58 CURVE SMOOTH"
);
}
);
width = 756;
}
);
leftKerningGroup = U;
rightKerningGroup = U;
unicode = 0172;
},
{
glyphname = Zacute;
lastChange = "2015-06-14 21:07:22 +0000";
layers = (
{
components = (
{
name = acute;
transform = "{1, 0, 0, 1, 243, 186}";
}
);
layerId = "1FDD38BC-4CDE-4118-9AAB-E6BB464D5960";
name = Regular;
paths = (
{
closed = 1;
nodes = (
"31 0 LINE",
"594 0 LINE",
"594 62 LINE",
"118 62 LINE",
"595 655 LINE",
"595 710 LINE",
"39 710 LINE",
"39 648 LINE",
"514 648 LINE",
"31 55 LINE"
);
}
);
width = 629;
}
);
leftKerningGroup = Z;
rightKerningGroup = Z;
unicode = 0179;
},
{
glyphname = Schwa;
lastChange = "2015-06-14 21:07:22 +0000";
layers = (
{
layerId = "1FDD38BC-4CDE-4118-9AAB-E6BB464D5960";
name = Regular;
paths = (
{
closed = 1;
nodes = (
"549 -6 OFFCURVE",
"695 151 OFFCURVE",
"695 351 CURVE SMOOTH",
"695 553 OFFCURVE",
"547 715 OFFCURVE",
"365 715 CURVE SMOOTH",
"243 715 OFFCURVE",
"124 643 OFFCURVE",
"77 541 CURVE",
"143 511 LINE",
"172 593 OFFCURVE",
"262 650 OFFCURVE",
"358 650 CURVE SMOOTH",
"493 650 OFFCURVE",
"604 536 OFFCURVE",
"618 383 CURVE",
"31 383 LINE",
"29 378 OFFCURVE",
"29 362 OFFCURVE",
"29 350 CURVE SMOOTH",
"29 153 OFFCURVE",
"178 -6 OFFCURVE",
"365 -6 CURVE SMOOTH"
);
},
{
closed = 1;
nodes = (
"226 57 OFFCURVE",
"113 171 OFFCURVE",
"104 322 CURVE",
"620 322 LINE",
"611 170 OFFCURVE",
"502 57 OFFCURVE",
"365 57 CURVE SMOOTH"
);
}
);
width = 737;
}
);
leftKerningGroup = Schwa;
rightKerningGroup = O;
unicode = 018F;
},
{
glyphname = florin;
lastChange = "2015-06-14 21:07:22 +0000";
layers = (
{
layerId = "1FDD38BC-4CDE-4118-9AAB-E6BB464D5960";
name = Regular;
paths = (
{
closed = 1;
nodes = (
"222 -181 OFFCURVE",
"298 -117 OFFCURVE",
"298 -25 CURVE SMOOTH",
"298 406 LINE",
"441 406 LINE",
"441 460 LINE",
"298 460 LINE",
"298 537 LINE SMOOTH",
"298 630 OFFCURVE",
"332 681 OFFCURVE",
"395 681 CURVE SMOOTH",
"423 681 OFFCURVE",
"454 672 OFFCURVE",
"472 658 CURVE",
"492 707 LINE",
"464 727 OFFCURVE",
"422 740 OFFCURVE",
"383 740 CURVE SMOOTH",
"288 740 OFFCURVE",
"230 662 OFFCURVE",
"230 535 CURVE SMOOTH",
"230 460 LINE",
"157 460 LINE",
"157 406 LINE",
"230 406 LINE",
"230 -27 LINE SMOOTH",
"230 -80 OFFCURVE",
"183 -120 OFFCURVE",
"137 -120 CURVE SMOOTH",
"112 -120 OFFCURVE",
"84 -115 OFFCURVE",
"64 -96 CURVE",
"30 -142 LINE",
"60 -170 OFFCURVE",
"101 -181 OFFCURVE",
"144 -181 CURVE SMOOTH"
);
}
);
width = 526;
}
);
rightKerningGroup = numbersign;
unicode = 0192;
},
{
glyphname = uni01C7;
lastChange = "2015-06-14 21:07:22 +0000";
layers = (
{
components = (
{
name = J;
transform = "{1, 0, 0, 1, 573, 0}";
}
);
layerId = "1FDD38BC-4CDE-4118-9AAB-E6BB464D5960";
name = Regular;
paths = (
{
closed = 1;
nodes = (
"569 0 LINE",
"569 62 LINE",
"159 62 LINE",
"159 710 LINE",
"89 710 LINE",
"89 0 LINE"
);
}
);
width = 1064;
}
);
rightKerningGroup = numbersign;
unicode = 01C7;
},
{
glyphname = uni01C8;
lastChange = "2015-06-14 21:07:22 +0000";
layers = (
{
components = (
{
name = j;
transform = "{1, 0, 0, 1, 583, 0}";
}
);
layerId = "1FDD38BC-4CDE-4118-9AAB-E6BB464D5960";
name = Regular;
paths = (
{
closed = 1;
nodes = (
"569 0 LINE",
"569 62 LINE",
"159 62 LINE",
"159 710 LINE",
"89 710 LINE",
"89 0 LINE"
);
}
);
width = 807;
}
);
rightKerningGroup = numbersign;
unicode = 01C8;
},
{
glyphname = uni01C9;
lastChange = "2015-06-14 21:07:22 +0000";
layers = (
{
components = (
{
name = j;
transform = "{1, 0, 0, 1, 279, 0}";
}
);
layerId = "1FDD38BC-4CDE-4118-9AAB-E6BB464D5960";
name = Regular;
paths = (
{
closed = 1;
nodes = (
"98 0 LINE",
"166 0 LINE",
"166 730 LINE",
"98 730 LINE"
);
}
);
width = 497;
}
);
rightKerningGroup = numbersign;
unicode = 01C9;
},
{
glyphname = uni01CA;
lastChange = "2015-06-14 21:07:22 +0000";
layers = (
{
components = (
{
name = J;
transform = "{1, 0, 0, 1, 734, 0}";
}
);
layerId = "1FDD38BC-4CDE-4118-9AAB-E6BB464D5960";
name = Regular;
paths = (
{
closed = 1;
nodes = (
"622 0 LINE",
"683 0 LINE",
"683 709 LINE",
"613 709 LINE",
"613 119 LINE",
"143 710 LINE",
"89 710 LINE",
"89 0 LINE",
"159 0 LINE",
"159 580 LINE"
);
}
);
width = 1253;
}
);
rightKerningGroup = numbersign;
unicode = 01CA;
},
{
glyphname = uni01CB;
lastChange = "2015-06-14 21:07:22 +0000";
layers = (
{
components = (
{
name = j;
transform = "{1, 0, 0, 1, 773, 0}";
}
);
layerId = "1FDD38BC-4CDE-4118-9AAB-E6BB464D5960";
name = Regular;
paths = (
{
closed = 1;
nodes = (
"622 0 LINE",
"683 0 LINE",
"683 709 LINE",
"613 709 LINE",
"613 119 LINE",
"143 710 LINE",
"89 710 LINE",
"89 0 LINE",
"159 0 LINE",
"159 580 LINE"
);
}
);
width = 997;
}
);
rightKerningGroup = numbersign;
unicode = 01CB;
},
{
glyphname = uni01CC;
lastChange = "2015-06-14 21:07:22 +0000";
layers = (
{
components = (
{
name = j;
transform = "{1, 0, 0, 1, 591, 0}";
}
);
layerId = "1FDD38BC-4CDE-4118-9AAB-E6BB464D5960";
name = Regular;
paths = (
{
closed = 1;
nodes = (
"513 305 LINE SMOOTH",
"513 442 OFFCURVE",
"474 530 OFFCURVE",
"358 530 CURVE SMOOTH",
"265 530 OFFCURVE",
"179 479 OFFCURVE",
"137 403 CURVE",
"137 521 LINE",
"75 521 LINE",
"75 0 LINE",
"143 0 LINE",
"143 319 LINE",
"168 405 OFFCURVE",
"253 468 OFFCURVE",
"333 468 CURVE SMOOTH",
"409 468 OFFCURVE",
"445 414 OFFCURVE",
"445 291 CURVE SMOOTH",
"445 0 LINE",
"513 0 LINE"
);
}
);
width = 808;
}
);
rightKerningGroup = numbersign;
unicode = 01CC;
},
{
glyphname = Oogonek;
lastChange = "2015-06-14 21:07:22 +0000";
layers = (
{
layerId = "1FDD38BC-4CDE-4118-9AAB-E6BB464D5960";
name = Regular;
paths = (
{
closed = 1;
nodes = (
"367 -140 LINE",
"332 -135 OFFCURVE",
"315 -120 OFFCURVE",
"315 -96 CURVE SMOOTH",
"315 -67 OFFCURVE",
"337 -40 OFFCURVE",
"395 -4 CURVE",
"575 8 OFFCURVE",
"708 172 OFFCURVE",
"708 354 CURVE SMOOTH",
"708 532 OFFCURVE",
"574 715 OFFCURVE",
"376 715 CURVE SMOOTH",
"186 715 OFFCURVE",
"42 544 OFFCURVE",
"42 355 CURVE SMOOTH",
"42 181 OFFCURVE",
"164 12 OFFCURVE",
"347 -3 CURVE",
"296 -39 OFFCURVE",
"273 -72 OFFCURVE",
"273 -105 CURVE SMOOTH",
"273 -140 OFFCURVE",
"299 -168 OFFCURVE",
"348 -178 CURVE"
);
},
{
closed = 1;
nodes = (
"112 502 OFFCURVE",
"214 651 OFFCURVE",
"375 651 CURVE SMOOTH",
"529 651 OFFCURVE",
"638 509 OFFCURVE",
"638 355 CURVE SMOOTH",
"638 209 OFFCURVE",
"536 58 OFFCURVE",
"375 58 CURVE SMOOTH",
"219 58 OFFCURVE",
"112 201 OFFCURVE",
"112 355 CURVE SMOOTH"
);
}
);
width = 751;
}
);
rightKerningGroup = numbersign;
unicode = 01EA;
},
{
glyphname = oogonek;
lastChange = "2015-06-14 21:07:22 +0000";
layers = (
{
layerId = "1FDD38BC-4CDE-4118-9AAB-E6BB464D5960";
name = Regular;
paths = (
{
closed = 1;
nodes = (
"307 -143 LINE",
"272 -138 OFFCURVE",
"255 -123 OFFCURVE",
"255 -99 CURVE SMOOTH",
"255 -70 OFFCURVE",
"277 -44 OFFCURVE",
"335 -7 CURVE",
"465 11 OFFCURVE",
"556 126 OFFCURVE",
"556 259 CURVE SMOOTH",
"556 405 OFFCURVE",
"447 530 OFFCURVE",
"297 530 CURVE SMOOTH",
"148 530 OFFCURVE",
"39 405 OFFCURVE",
"39 259 CURVE SMOOTH",
"39 118 OFFCURVE",
"139 -2 OFFCURVE",
"283 -9 CURVE",
"234 -44 OFFCURVE",
"213 -76 OFFCURVE",
"213 -108 CURVE SMOOTH",
"213 -143 OFFCURVE",
"239 -171 OFFCURVE",
"288 -181 CURVE"
);
},
{
closed = 1;
nodes = (
"108 375 OFFCURVE",
"194 470 OFFCURVE",
"297 470 CURVE SMOOTH",
"401 470 OFFCURVE",
"487 376 OFFCURVE",
"487 260 CURVE SMOOTH",
"487 144 OFFCURVE",
"401 50 OFFCURVE",
"297 50 CURVE SMOOTH",
"193 50 OFFCURVE",
"108 142 OFFCURVE",
"108 258 CURVE SMOOTH"
);
}
);
width = 595;
}
);
rightKerningGroup = numbersign;
unicode = 01EB;
},
{
glyphname = uni01F1;
lastChange = "2015-06-14 21:07:22 +0000";
layers = (
{
layerId = "1FDD38BC-4CDE-4118-9AAB-E6BB464D5960";
name = Regular;
paths = (
{
closed = 1;
nodes = (
"731 0 LINE",
"1294 0 LINE",
"1294 62 LINE",
"818 62 LINE",
"1295 655 LINE",
"1295 710 LINE",
"739 710 LINE",
"739 648 LINE",
"1214 648 LINE",
"731 55 LINE"
);
},
{
closed = 1;
nodes = (
"330 0 LINE SMOOTH",
"537 0 OFFCURVE",
"670 141 OFFCURVE",
"670 356 CURVE SMOOTH",
"670 552 OFFCURVE",
"556 710 OFFCURVE",
"330 710 CURVE SMOOTH",
"89 710 LINE",
"89 0 LINE"
);
},
{
closed = 1;
nodes = (
"600 189 OFFCURVE",
"506 62 OFFCURVE",
"330 62 CURVE SMOOTH",
"159 62 LINE",
"159 648 LINE",
"330 648 LINE SMOOTH",
"503 648 OFFCURVE",
"600 526 OFFCURVE",
"600 356 CURVE SMOOTH"
);
}
);
width = 1329;
}
);
rightKerningGroup = Z;
unicode = 01F1;
},
{
glyphname = uni01F2;
lastChange = "2015-06-14 21:07:22 +0000";
layers = (
{
layerId = "1FDD38BC-4CDE-4118-9AAB-E6BB464D5960";
name = Regular;
paths = (
{
closed = 1;
nodes = (
"746 0 LINE",
"1171 0 LINE",
"1171 51 LINE",
"821 51 LINE",
"1172 475 LINE",
"1172 521 LINE",
"754 521 LINE",
"754 470 LINE",
"1098 470 LINE",
"746 46 LINE"
);
},
{
closed = 1;
nodes = (
"330 0 LINE SMOOTH",
"537 0 OFFCURVE",
"670 141 OFFCURVE",
"670 356 CURVE SMOOTH",
"670 552 OFFCURVE",
"556 710 OFFCURVE",
"330 710 CURVE SMOOTH",
"89 710 LINE",
"89 0 LINE"
);
},
{
closed = 1;
nodes = (
"600 189 OFFCURVE",
"506 62 OFFCURVE",
"330 62 CURVE SMOOTH",
"159 62 LINE",
"159 648 LINE",
"330 648 LINE SMOOTH",
"503 648 OFFCURVE",
"600 526 OFFCURVE",
"600 356 CURVE SMOOTH"
);
}
);
width = 1206;
}
);
rightKerningGroup = z;
unicode = 01F2;
},
{
glyphname = uni01F3;
lastChange = "2015-06-14 21:07:22 +0000";
layers = (
{
components = (
{
name = d;
}
);
layerId = "1FDD38BC-4CDE-4118-9AAB-E6BB464D5960";
name = Regular;
paths = (
{
closed = 1;
nodes = (
"633 0 LINE",
"1058 0 LINE",
"1058 51 LINE",
"708 51 LINE",
"1059 475 LINE",
"1059 521 LINE",
"641 521 LINE",
"641 470 LINE",
"985 470 LINE",
"633 46 LINE"
);
}
);
width = 1113;
}
);
leftKerningGroup = d;
rightKerningGroup = z;
unicode = 01F3;
},
{
glyphname = Aringacute;
lastChange = "2015-06-14 21:07:22 +0000";
layers = (
{
layerId = "1FDD38BC-4CDE-4118-9AAB-E6BB464D5960";
name = Regular;
paths = (
{
closed = 1;
nodes = (
"193 277 LINE",
"338 628 LINE",
"481 277 LINE"
);
},
{
closed = 1;
nodes = (
"361 787 OFFCURVE",
"379 772 OFFCURVE",
"379 749 CURVE SMOOTH",
"379 726 OFFCURVE",
"359 710 OFFCURVE",
"338 710 CURVE SMOOTH",
"315 710 OFFCURVE",
"298 727 OFFCURVE",
"298 749 CURVE SMOOTH",
"298 772 OFFCURVE",
"316 787 OFFCURVE",
"338 787 CURVE SMOOTH"
);
},
{
closed = 1;
nodes = (
"471 917 LINE",
"387 917 LINE",
"330 813 LINE",
"293 812 OFFCURVE",
"264 785 OFFCURVE",
"264 749 CURVE SMOOTH",
"264 722 OFFCURVE",
"278 701 OFFCURVE",
"301 690 CURVE",
"12 0 LINE",
"87 0 LINE",
"178 222 LINE",
"497 222 LINE",
"589 0 LINE",
"663 0 LINE",
"376 691 LINE",
"398 701 OFFCURVE",
"412 722 OFFCURVE",
"412 749 CURVE SMOOTH",
"412 778 OFFCURVE",
"392 796 OFFCURVE",
"375 805 CURVE"
);
}
);
width = 676;
}
);
leftKerningGroup = A;
rightKerningGroup = A;
unicode = 01FA;
},
{
glyphname = AEacute;
lastChange = "2015-06-14 21:07:22 +0000";
layers = (
{
components = (
{
name = acute;
transform = "{1, 0, 0, 1, 438, 186}";
}
);
layerId = "1FDD38BC-4CDE-4118-9AAB-E6BB464D5960";
name = Regular;
paths = (
{
closed = 1;
nodes = (
"-26 0 LINE",
"50 0 LINE",
"191 222 LINE",
"450 222 LINE",
"450 0 LINE",
"921 0 LINE",
"921 62 LINE",
"518 62 LINE",
"518 331 LINE",
"858 331 LINE",
"858 393 LINE",
"518 393 LINE",
"518 648 LINE",
"912 648 LINE",
"912 710 LINE",
"431 710 LINE"
);
},
{
closed = 1;
nodes = (
"223 284 LINE",
"445 626 LINE",
"445 284 LINE"
);
}
);
width = 961;
}
);
leftKerningGroup = AE;
rightKerningGroup = E;
unicode = 01FC;
},
{
glyphname = aeacute;
lastChange = "2015-06-14 21:07:22 +0000";
layers = (
{
components = (
{
name = acute;
transform = "{1, 0, 0, 1, 410, 0}";
}
);
layerId = "1FDD38BC-4CDE-4118-9AAB-E6BB464D5960";
name = Regular;
paths = (
{
closed = 1;
nodes = (
"285 -10 OFFCURVE",
"386 24 OFFCURVE",
"430 105 CURVE",
"476 36 OFFCURVE",
"554 -10 OFFCURVE",
"645 -10 CURVE SMOOTH",
"746 -10 OFFCURVE",
"834 44 OFFCURVE",
"867 120 CURVE",
"807 136 LINE",
"783 80 OFFCURVE",
"716 42 OFFCURVE",
"648 42 CURVE SMOOTH",
"544 42 OFFCURVE",
"457 124 OFFCURVE",
"448 236 CURVE",
"901 236 LINE",
"901 240 OFFCURVE",
"902 255 OFFCURVE",
"902 260 CURVE",
"901 408 OFFCURVE",
"794 530 OFFCURVE",
"642 530 CURVE SMOOTH",
"558 530 OFFCURVE",
"486 488 OFFCURVE",
"443 426 CURVE",
"412 492 OFFCURVE",
"349 530 OFFCURVE",
"263 530 CURVE SMOOTH",
"199 530 OFFCURVE",
"134 507 OFFCURVE",
"66 462 CURVE",
"90 417 LINE",
"148 457 OFFCURVE",
"205 479 OFFCURVE",
"257 479 CURVE SMOOTH",
"336 479 OFFCURVE",
"388 436 OFFCURVE",
"401 365 CURVE",
"391 342 OFFCURVE",
"386 314 OFFCURVE",
"384 289 CURVE",
"345 301 OFFCURVE",
"296 309 OFFCURVE",
"250 309 CURVE SMOOTH",
"122 309 OFFCURVE",
"33 244 OFFCURVE",
"33 152 CURVE SMOOTH",
"33 61 OFFCURVE",
"108 -10 OFFCURVE",
"205 -10 CURVE SMOOTH"
);
},
{
closed = 1;
nodes = (
"152 42 OFFCURVE",
"97 92 OFFCURVE",
"97 157 CURVE SMOOTH",
"97 222 OFFCURVE",
"163 266 OFFCURVE",
"259 266 CURVE SMOOTH",
"302 266 OFFCURVE",
"345 259 OFFCURVE",
"384 246 CURVE",
"385 216 OFFCURVE",
"392 176 OFFCURVE",
"405 150 CURVE",
"404 139 OFFCURVE",
"397 126 OFFCURVE",
"387 115 CURVE",
"356 71 OFFCURVE",
"292 42 OFFCURVE",
"221 42 CURVE SMOOTH"
);
},
{
closed = 1;
nodes = (
"448 282 LINE",
"454 395 OFFCURVE",
"535 477 OFFCURVE",
"641 477 CURVE SMOOTH",
"747 477 OFFCURVE",
"828 396 OFFCURVE",
"837 282 CURVE"
);
}
);
width = 932;
}
);
leftKerningGroup = a;
rightKerningGroup = e;
unicode = 01FD;
},
{
glyphname = Oslashacute;
lastChange = "2015-06-14 21:07:22 +0000";
layers = (
{
components = (
{
name = acute;
transform = "{1, 0, 0, 1, 328, 186}";
}
);
layerId = "1FDD38BC-4CDE-4118-9AAB-E6BB464D5960";
name = Regular;
paths = (
{
closed = 1;
nodes = (
"573 710 LINE",
"543 665 LINE",
"495 696 OFFCURVE",
"439 715 OFFCURVE",
"376 715 CURVE SMOOTH",
"186 715 OFFCURVE",
"42 544 OFFCURVE",
"42 355 CURVE SMOOTH",
"42 253 OFFCURVE",
"84 152 OFFCURVE",
"156 83 CURVE",
"101 0 LINE",
"178 0 LINE",
"207 44 LINE",
"255 13 OFFCURVE",
"311 -5 OFFCURVE",
"375 -5 CURVE SMOOTH",
"565 -5 OFFCURVE",
"708 165 OFFCURVE",
"708 354 CURVE SMOOTH",
"708 454 OFFCURVE",
"665 555 OFFCURVE",
"593 625 CURVE",
"650 710 LINE"
);
},
{
closed = 1;
nodes = (
"112 502 OFFCURVE",
"214 651 OFFCURVE",
"375 651 CURVE SMOOTH",
"424 651 OFFCURVE",
"469 636 OFFCURVE",
"507 611 CURVE",
"193 139 LINE",
"142 195 OFFCURVE",
"112 273 OFFCURVE",
"112 355 CURVE SMOOTH"
);
},
{
closed = 1;
nodes = (
"638 209 OFFCURVE",
"536 58 OFFCURVE",
"375 58 CURVE SMOOTH",
"325 58 OFFCURVE",
"280 72 OFFCURVE",
"242 97 CURVE",
"556 569 LINE",
"607 514 OFFCURVE",
"638 436 OFFCURVE",
"638 355 CURVE SMOOTH"
);
}
);
width = 751;
}
);
leftKerningGroup = C;
rightKerningGroup = O;
unicode = 01FE;
},
{
glyphname = oslashacute;
lastChange = "2015-06-14 21:07:22 +0000";
layers = (
{
components = (
{
name = acute;
transform = "{1, 0, 0, 1, 245, 0}";
}
);
layerId = "1FDD38BC-4CDE-4118-9AAB-E6BB464D5960";
name = Regular;
paths = (
{
closed = 1;
nodes = (
"139 -1 LINE",
"161 28 LINE",
"200 4 OFFCURVE",
"246 -10 OFFCURVE",
"297 -10 CURVE SMOOTH",
"448 -10 OFFCURVE",
"556 114 OFFCURVE",
"556 259 CURVE SMOOTH",
"556 342 OFFCURVE",
"520 419 OFFCURVE",
"461 469 CURVE",
"502 523 LINE",
"455 523 LINE",
"432 491 LINE",
"393 516 OFFCURVE",
"347 530 OFFCURVE",
"297 530 CURVE SMOOTH",
"148 530 OFFCURVE",
"39 405 OFFCURVE",
"39 259 CURVE SMOOTH",
"39 176 OFFCURVE",
"74 100 OFFCURVE",
"132 50 CURVE",
"93 -1 LINE"
);
},
{
closed = 1;
nodes = (
"261 50 OFFCURVE",
"227 61 OFFCURVE",
"199 80 CURVE",
"423 416 LINE",
"462 378 OFFCURVE",
"487 322 OFFCURVE",
"487 260 CURVE SMOOTH",
"487 144 OFFCURVE",
"401 50 OFFCURVE",
"297 50 CURVE SMOOTH"
);
},
{
closed = 1;
nodes = (
"108 375 OFFCURVE",
"194 470 OFFCURVE",
"297 470 CURVE SMOOTH",
"332 470 OFFCURVE",
"366 459 OFFCURVE",
"395 439 CURVE",
"171 102 LINE",
"132 140 OFFCURVE",
"108 195 OFFCURVE",
"108 258 CURVE SMOOTH"
);
}
);
width = 595;
}
);
leftKerningGroup = c;
rightKerningGroup = o;
unicode = 01FF;
},
{
glyphname = uni030F;
lastChange = "2015-06-14 21:07:22 +0000";
layers = (
{
anchors = (
{
name = _top;
position = "{169, 521}";
}
);
layerId = "1FDD38BC-4CDE-4118-9AAB-E6BB464D5960";
name = Regular;
paths = (
{
closed = 1;
nodes = (
"181 596 LINE",
"92 751 LINE",
"-2 751 LINE",
"141 596 LINE"
);
},
{
closed = 1;
nodes = (
"330 596 LINE",
"241 751 LINE",
"147 751 LINE",
"290 596 LINE"
);
}
);
width = 326;
}
);
rightKerningGroup = numbersign;
unicode = 030F;
},
{
glyphname = adblgrave;
lastChange = "2015-06-14 21:07:22 +0000";
layers = (
{
components = (
{
name = dblgravecomb.001;
}
);
layerId = "1FDD38BC-4CDE-4118-9AAB-E6BB464D5960";
name = Regular;
paths = (
{
closed = 1;
nodes = (
"289 -10 OFFCURVE",
"366 25 OFFCURVE",
"414 87 CURVE",
"416 46 LINE SMOOTH",
"417 16 OFFCURVE",
"438 -3 OFFCURVE",
"472 -3 CURVE SMOOTH",
"479 -3 OFFCURVE",
"487 -2 OFFCURVE",
"498 0 CURVE",
"498 60 LINE",
"481 60 OFFCURVE",
"473 69 OFFCURVE",
"473 88 CURVE SMOOTH",
"473 323 LINE SMOOTH",
"473 452 OFFCURVE",
"393 530 OFFCURVE",
"263 530 CURVE SMOOTH",
"199 530 OFFCURVE",
"134 507 OFFCURVE",
"67 462 CURVE",
"91 417 LINE",
"148 457 OFFCURVE",
"205 479 OFFCURVE",
"258 479 CURVE SMOOTH",
"349 479 OFFCURVE",
"405 421 OFFCURVE",
"405 329 CURVE SMOOTH",
"405 282 LINE",
"362 299 OFFCURVE",
"304 309 OFFCURVE",
"251 309 CURVE SMOOTH",
"123 309 OFFCURVE",
"33 244 OFFCURVE",
"33 152 CURVE SMOOTH",
"33 61 OFFCURVE",
"108 -10 OFFCURVE",
"206 -10 CURVE SMOOTH"
);
},
{
closed = 1;
nodes = (
"152 42 OFFCURVE",
"98 92 OFFCURVE",
"98 157 CURVE SMOOTH",
"98 222 OFFCURVE",
"164 266 OFFCURVE",
"260 266 CURVE SMOOTH",
"310 266 OFFCURVE",
"360 256 OFFCURVE",
"405 239 CURVE",
"405 154 LINE SMOOTH",
"405 142 OFFCURVE",
"399 127 OFFCURVE",
"387 115 CURVE",
"357 71 OFFCURVE",
"292 42 OFFCURVE",
"222 42 CURVE SMOOTH"
);
}
);
width = 545;
}
);
rightKerningGroup = numbersign;
unicode = 0201;
},
{
glyphname = uni0311;
lastChange = "2015-06-14 21:07:22 +0000";
layers = (
{
anchors = (
{
name = _top;
position = "{141, 521}";
}
);
layerId = "1FDD38BC-4CDE-4118-9AAB-E6BB464D5960";
name = Regular;
paths = (
{
closed = 1;
nodes = (
"175 709 OFFCURVE",
"205 673 OFFCURVE",
"210 629 CURVE",
"260 629 LINE",
"260 698 OFFCURVE",
"206 751 OFFCURVE",
"141 751 CURVE SMOOTH",
"74 751 OFFCURVE",
"22 698 OFFCURVE",
"22 629 CURVE",
"73 629 LINE",
"73 670 OFFCURVE",
"106 709 OFFCURVE",
"141 709 CURVE SMOOTH"
);
}
);
width = 282;
}
);
rightKerningGroup = numbersign;
unicode = 0311;
},
{
glyphname = edblgrave;
lastChange = "2015-06-14 21:07:22 +0000";
layers = (
{
components = (
{
name = dblgravecomb.001;
transform = "{1, 0, 0, 1, 20, 0}";
}
);
layerId = "1FDD38BC-4CDE-4118-9AAB-E6BB464D5960";
name = Regular;
paths = (
{
closed = 1;
nodes = (
"401 -10 OFFCURVE",
"490 44 OFFCURVE",
"522 120 CURVE",
"463 136 LINE",
"438 80 OFFCURVE",
"371 42 OFFCURVE",
"303 42 CURVE SMOOTH",
"203 42 OFFCURVE",
"119 124 OFFCURVE",
"110 236 CURVE",
"556 236 LINE",
"557 240 OFFCURVE",
"557 253 OFFCURVE",
"557 263 CURVE SMOOTH",
"557 406 OFFCURVE",
"452 530 OFFCURVE",
"299 530 CURVE SMOOTH",
"149 530 OFFCURVE",
"39 408 OFFCURVE",
"39 262 CURVE SMOOTH",
"39 114 OFFCURVE",
"149 -10 OFFCURVE",
"300 -10 CURVE SMOOTH"
);
},
{
closed = 1;
nodes = (
"109 288 LINE",
"116 398 OFFCURVE",
"198 477 OFFCURVE",
"300 477 CURVE SMOOTH",
"402 477 OFFCURVE",
"483 399 OFFCURVE",
"492 288 CURVE"
);
}
);
width = 587;
}
);
rightKerningGroup = numbersign;
unicode = 0205;
},
{
glyphname = Idblgrave;
lastChange = "2015-06-14 21:07:22 +0000";
layers = (
{
components = (
{
name = dblgravecomb.case;
transform = "{1, 0, 0, 1, -212, 0}";
}
);
layerId = "1FDD38BC-4CDE-4118-9AAB-E6BB464D5960";
name = Regular;
paths = (
{
closed = 1;
nodes = (
"159 0 LINE",
"159 710 LINE",
"89 710 LINE",
"89 0 LINE"
);
}
);
width = 248;
}
);
rightKerningGroup = numbersign;
unicode = 0208;
},
{
glyphname = idblgrave;
lastChange = "2015-06-14 21:07:22 +0000";
layers = (
{
components = (
{
name = dblgravecomb.001;
transform = "{1, 0, 0, 1, -152, 0}";
}
);
layerId = "1FDD38BC-4CDE-4118-9AAB-E6BB464D5960";
name = Regular;
paths = (
{
closed = 1;
nodes = (
"143 0 LINE",
"143 521 LINE",
"75 521 LINE",
"75 0 LINE"
);
}
);
width = 218;
}
);
rightKerningGroup = numbersign;
unicode = 0209;
},
{
glyphname = Odblgrave;
lastChange = "2015-06-14 21:07:22 +0000";
layers = (
{
components = (
{
name = dblgravecomb.case;
transform = "{1, 0, 0, 1, 26, 0}";
}
);
layerId = "1FDD38BC-4CDE-4118-9AAB-E6BB464D5960";
name = Regular;
paths = (
{
closed = 1;
nodes = (
"565 -5 OFFCURVE",
"708 165 OFFCURVE",
"708 354 CURVE SMOOTH",
"708 532 OFFCURVE",
"574 715 OFFCURVE",
"376 715 CURVE SMOOTH",
"186 715 OFFCURVE",
"42 544 OFFCURVE",
"42 355 CURVE SMOOTH",
"42 173 OFFCURVE",
"177 -5 OFFCURVE",
"375 -5 CURVE SMOOTH"
);
},
{
closed = 1;
nodes = (
"112 502 OFFCURVE",
"214 651 OFFCURVE",
"375 651 CURVE SMOOTH",
"529 651 OFFCURVE",
"638 509 OFFCURVE",
"638 355 CURVE SMOOTH",
"638 209 OFFCURVE",
"536 58 OFFCURVE",
"375 58 CURVE SMOOTH",
"219 58 OFFCURVE",
"112 201 OFFCURVE",
"112 355 CURVE SMOOTH"
);
}
);
width = 751;
}
);
rightKerningGroup = numbersign;
unicode = 020C;
},
{
glyphname = odblgrave;
lastChange = "2015-06-14 21:07:22 +0000";
layers = (
{
components = (
{
name = dblgravecomb.001;
transform = "{1, 0, 0, 1, 30, 0}";
}
);
layerId = "1FDD38BC-4CDE-4118-9AAB-E6BB464D5960";
name = Regular;
paths = (
{
closed = 1;
nodes = (
"448 -10 OFFCURVE",
"556 114 OFFCURVE",
"556 259 CURVE SMOOTH",
"556 405 OFFCURVE",
"447 530 OFFCURVE",
"297 530 CURVE SMOOTH",
"148 530 OFFCURVE",
"39 405 OFFCURVE",
"39 259 CURVE SMOOTH",
"39 114 OFFCURVE",
"146 -10 OFFCURVE",
"297 -10 CURVE SMOOTH"
);
},
{
closed = 1;
nodes = (
"108 375 OFFCURVE",
"194 470 OFFCURVE",
"297 470 CURVE SMOOTH",
"401 470 OFFCURVE",
"487 376 OFFCURVE",
"487 260 CURVE SMOOTH",
"487 144 OFFCURVE",
"401 50 OFFCURVE",
"297 50 CURVE SMOOTH",
"193 50 OFFCURVE",
"108 142 OFFCURVE",
"108 258 CURVE SMOOTH"
);
}
);
width = 595;
}
);
rightKerningGroup = numbersign;
unicode = 020D;
},
{
glyphname = Rdblgrave;
lastChange = "2015-06-14 21:07:22 +0000";
layers = (
{
components = (
{
name = dblgravecomb.case;
transform = "{1, 0, 0, 1, -34, 0}";
}
);
layerId = "1FDD38BC-4CDE-4118-9AAB-E6BB464D5960";
name = Regular;
paths = (
{
closed = 1;
nodes = (
"159 0 LINE",
"159 262 LINE",
"369 262 LINE",
"536 0 LINE",
"615 0 LINE",
"441 274 LINE",
"536 293 OFFCURVE",
"599 384 OFFCURVE",
"599 487 CURVE SMOOTH",
"599 597 OFFCURVE",
"511 710 OFFCURVE",
"389 710 CURVE SMOOTH",
"89 710 LINE",
"89 0 LINE"
);
},
{
closed = 1;
nodes = (
"159 648 LINE",
"385 648 LINE SMOOTH",
"463 648 OFFCURVE",
"529 573 OFFCURVE",
"529 487 CURVE SMOOTH",
"529 403 OFFCURVE",
"475 324 OFFCURVE",
"391 324 CURVE SMOOTH",
"159 324 LINE"
);
}
);
width = 653;
}
);
rightKerningGroup = numbersign;
unicode = 0210;
},
{
glyphname = rdblgrave;
lastChange = "2015-06-14 21:07:22 +0000";
layers = (
{
components = (
{
name = dblgravecomb.001;
transform = "{1, 0, 0, 1, -71, 0}";
}
);
layerId = "1FDD38BC-4CDE-4118-9AAB-E6BB464D5960";
name = Regular;
paths = (
{
closed = 1;
nodes = (
"335 523 LINE",
"330 524 OFFCURVE",
"327 524 OFFCURVE",
"322 524 CURVE SMOOTH",
"248 524 OFFCURVE",
"178 476 OFFCURVE",
"139 396 CURVE",
"139 521 LINE",
"75 521 LINE",
"75 0 LINE",
"143 0 LINE",
"143 324 LINE",
"171 408 OFFCURVE",
"244 458 OFFCURVE",
"335 461 CURVE"
);
}
);
width = 351;
}
);
rightKerningGroup = numbersign;
unicode = 0211;
},
{
glyphname = Udblgrave;
lastChange = "2015-06-14 21:07:22 +0000";
layers = (
{
components = (
{
name = dblgravecomb.case;
transform = "{1, 0, 0, 1, 56, 0}";
}
);
layerId = "1FDD38BC-4CDE-4118-9AAB-E6BB464D5960";
name = Regular;
paths = (
{
closed = 1;
nodes = (
"201 58 OFFCURVE",
"148 203 OFFCURVE",
"148 352 CURVE SMOOTH",
"148 710 LINE",
"79 710 LINE",
"79 352 LINE SMOOTH",
"79 171 OFFCURVE",
"153 -5 OFFCURVE",
"378 -5 CURVE SMOOTH",
"596 -5 OFFCURVE",
"677 161 OFFCURVE",
"677 352 CURVE SMOOTH",
"677 710 LINE",
"607 710 LINE",
"607 352 LINE SMOOTH",
"607 207 OFFCURVE",
"557 58 OFFCURVE",
"377 58 CURVE SMOOTH"
);
}
);
width = 755;
}
);
rightKerningGroup = numbersign;
unicode = 0214;
},
{
glyphname = uni0218;
lastChange = "2015-06-14 21:07:22 +0000";
layers = (
{
components = (
{
name = commaaccent;
transform = "{1, 0, 0, 1, 226, 0}";
}
);
layerId = "1FDD38BC-4CDE-4118-9AAB-E6BB464D5960";
name = Regular;
paths = (
{
closed = 1;
nodes = (
"538 633 LINE",
"479 685 OFFCURVE",
"405 715 OFFCURVE",
"311 715 CURVE SMOOTH",
"163 715 OFFCURVE",
"58 643 OFFCURVE",
"58 511 CURVE SMOOTH",
"58 396 OFFCURVE",
"137 360 OFFCURVE",
"285 326 CURVE SMOOTH",
"426 294 OFFCURVE",
"499 266 OFFCURVE",
"499 179 CURVE SMOOTH",
"499 97 OFFCURVE",
"432 56 OFFCURVE",
"319 56 CURVE SMOOTH",
"211 56 OFFCURVE",
"118 100 OFFCURVE",
"67 154 CURVE",
"32 97 LINE",
"111 29 OFFCURVE",
"207 -6 OFFCURVE",
"317 -6 CURVE SMOOTH",
"466 -6 OFFCURVE",
"573 55 OFFCURVE",
"573 186 CURVE SMOOTH",
"573 313 OFFCURVE",
"478 352 OFFCURVE",
"327 385 CURVE SMOOTH",
"190 415 OFFCURVE",
"130 437 OFFCURVE",
"130 521 CURVE SMOOTH",
"130 602 OFFCURVE",
"185 653 OFFCURVE",
"310 653 CURVE SMOOTH",
"395 653 OFFCURVE",
"464 622 OFFCURVE",
"504 577 CURVE"
);
}
);
width = 607;
}
);
leftKerningGroup = S;
rightKerningGroup = S;
unicode = 0218;
},
{
glyphname = uni0219;
lastChange = "2015-06-14 21:07:22 +0000";
layers = (
{
components = (
{
name = commaaccent;
transform = "{1, 0, 0, 1, 156, 0}";
}
);
layerId = "1FDD38BC-4CDE-4118-9AAB-E6BB464D5960";
name = Regular;
paths = (
{
closed = 1;
nodes = (
"371 -10 OFFCURVE",
"451 51 OFFCURVE",
"451 146 CURVE SMOOTH",
"451 235 OFFCURVE",
"382 261 OFFCURVE",
"248 293 CURVE SMOOTH",
"155 315 OFFCURVE",
"118 327 OFFCURVE",
"118 382 CURVE SMOOTH",
"118 450 OFFCURVE",
"175 479 OFFCURVE",
"246 479 CURVE SMOOTH",
"305 479 OFFCURVE",
"364 459 OFFCURVE",
"403 419 CURVE",
"436 459 LINE",
"396 501 OFFCURVE",
"328 530 OFFCURVE",
"248 530 CURVE SMOOTH",
"141 530 OFFCURVE",
"53 477 OFFCURVE",
"53 372 CURVE SMOOTH",
"53 290 OFFCURVE",
"107 269 OFFCURVE",
"228 239 CURVE SMOOTH",
"333 214 OFFCURVE",
"385 198 OFFCURVE",
"385 140 CURVE SMOOTH",
"385 78 OFFCURVE",
"330 42 OFFCURVE",
"247 42 CURVE SMOOTH",
"178 42 OFFCURVE",
"118 66 OFFCURVE",
"60 114 CURVE",
"29 68 LINE",
"85 17 OFFCURVE",
"167 -10 OFFCURVE",
"248 -10 CURVE SMOOTH"
);
}
);
width = 487;
}
);
leftKerningGroup = s;
rightKerningGroup = s;
unicode = 0219;
},
{
glyphname = uni021A;
lastChange = "2015-06-14 21:07:22 +0000";
layers = (
{
components = (
{
name = commaaccent;
transform = "{1, 0, 0, 1, 211, 0}";
}
);
layerId = "1FDD38BC-4CDE-4118-9AAB-E6BB464D5960";
name = Regular;
paths = (
{
closed = 1;
nodes = (
"593 710 LINE",
"17 710 LINE",
"17 648 LINE",
"270 648 LINE",
"270 0 LINE",
"340 0 LINE",
"340 648 LINE",
"593 648 LINE"
);
}
);
width = 610;
}
);
leftKerningGroup = T;
rightKerningGroup = T;
unicode = 021A;
},
{
glyphname = uni021B;
lastChange = "2015-06-14 21:07:22 +0000";
layers = (
{
components = (
{
name = commaaccent;
transform = "{1, 0, 0, 1, 108, 0}";
}
);
layerId = "1FDD38BC-4CDE-4118-9AAB-E6BB464D5960";
name = Regular;
paths = (
{
closed = 1;
nodes = (
"307 80 LINE",
"299 75 OFFCURVE",
"266 57 OFFCURVE",
"228 57 CURVE SMOOTH",
"196 57 OFFCURVE",
"168 75 OFFCURVE",
"165 113 CURVE",
"165 467 LINE",
"285 467 LINE",
"285 521 LINE",
"165 521 LINE",
"165 697 LINE",
"97 697 LINE",
"97 521 LINE",
"25 521 LINE",
"25 467 LINE",
"97 467 LINE",
"97 94 LINE SMOOTH",
"97 27 OFFCURVE",
"148 -6 OFFCURVE",
"207 -6 CURVE SMOOTH",
"263 -6 OFFCURVE",
"309 18 OFFCURVE",
"325 25 CURVE"
);
}
);
width = 335;
}
);
leftKerningGroup = t;
rightKerningGroup = t;
unicode = 021B;
},
{
glyphname = schwa;
lastChange = "2015-06-14 21:07:22 +0000";
layers = (
{
layerId = "1FDD38BC-4CDE-4118-9AAB-E6BB464D5960";
name = Regular;
paths = (
{
closed = 1;
nodes = (
"441 -10 OFFCURVE",
"548 111 OFFCURVE",
"548 257 CURVE SMOOTH",
"548 406 OFFCURVE",
"437 530 OFFCURVE",
"287 530 CURVE SMOOTH",
"186 530 OFFCURVE",
"97 475 OFFCURVE",
"65 400 CURVE",
"124 384 LINE",
"148 439 OFFCURVE",
"215 477 OFFCURVE",
"284 477 CURVE SMOOTH",
"384 477 OFFCURVE",
"468 396 OFFCURVE",
"476 284 CURVE",
"31 284 LINE",
"30 279 OFFCURVE",
"29 265 OFFCURVE",
"29 259 CURVE SMOOTH",
"30 112 OFFCURVE",
"139 -10 OFFCURVE",
"290 -10 CURVE SMOOTH"
);
},
{
closed = 1;
nodes = (
"189 42 OFFCURVE",
"103 123 OFFCURVE",
"96 237 CURVE",
"478 237 LINE",
"471 125 OFFCURVE",
"392 42 OFFCURVE",
"290 42 CURVE SMOOTH"
);
}
);
width = 587;
}
);
leftKerningGroup = schwa;
rightKerningGroup = o;
unicode = 0259;
},
{
glyphname = uni02C9;
lastChange = "2015-06-14 21:07:22 +0000";
layers = (
{
layerId = "1FDD38BC-4CDE-4118-9AAB-E6BB464D5960";
name = Regular;
paths = (
{
closed = 1;
nodes = (
"343 663 LINE",
"343 710 LINE",
"54 710 LINE",
"54 663 LINE"
);
}
);
width = 396;
}
);
rightKerningGroup = numbersign;
unicode = 02C9;
},
{
glyphname = uni0394;
lastChange = "2015-06-14 21:07:22 +0000";
layers = (
{
layerId = "1FDD38BC-4CDE-4118-9AAB-E6BB464D5960";
name = Regular;
paths = (
{
closed = 1;
nodes = (
"353 710 LINE",
"295 710 LINE",
"23 53 LINE",
"23 0 LINE",
"624 0 LINE",
"624 53 LINE"
);
},
{
closed = 1;
nodes = (
"100 62 LINE",
"324 628 LINE",
"547 62 LINE"
);
}
);
width = 647;
}
);
leftKerningGroup = uni0394;
rightKerningGroup = uni0394;
unicode = 0394;
},
{
glyphname = uni03A9;
lastChange = "2015-06-14 21:07:22 +0000";
layers = (
{
layerId = "1FDD38BC-4CDE-4118-9AAB-E6BB464D5960";
name = Regular;
paths = (
{
closed = 1;
nodes = (
"45 0 LINE",
"334 0 LINE",
"334 62 LINE",
"203 99 OFFCURVE",
"124 238 OFFCURVE",
"124 365 CURVE SMOOTH",
"124 507 OFFCURVE",
"223 651 OFFCURVE",
"381 651 CURVE SMOOTH",
"540 651 OFFCURVE",
"639 507 OFFCURVE",
"639 365 CURVE SMOOTH",
"639 238 OFFCURVE",
"560 99 OFFCURVE",
"428 62 CURVE",
"428 0 LINE",
"717 0 LINE",
"717 62 LINE",
"527 62 LINE",
"640 121 OFFCURVE",
"709 235 OFFCURVE",
"709 365 CURVE SMOOTH",
"709 549 OFFCURVE",
"569 715 OFFCURVE",
"381 715 CURVE SMOOTH",
"194 715 OFFCURVE",
"54 549 OFFCURVE",
"54 365 CURVE SMOOTH",
"54 235 OFFCURVE",
"123 121 OFFCURVE",
"236 62 CURVE",
"45 62 LINE"
);
}
);
width = 763;
}
);
leftKerningGroup = uni03A9;
rightKerningGroup = uni03A9;
unicode = 03A9;
},
{
glyphname = uni03BC;
lastChange = "2015-06-14 21:07:22 +0000";
layers = (
{
layerId = "1FDD38BC-4CDE-4118-9AAB-E6BB464D5960";
name = Regular;
paths = (
{
closed = 1;
nodes = (
"75 -212 LINE",
"139 -212 LINE",
"139 75 LINE",
"157 25 OFFCURVE",
"198 -10 OFFCURVE",
"262 -10 CURVE SMOOTH",
"345 -10 OFFCURVE",
"426 47 OFFCURVE",
"461 118 CURVE",
"461 0 LINE",
"521 0 LINE",
"521 521 LINE",
"453 521 LINE",
"453 193 LINE",
"422 106 OFFCURVE",
"345 50 OFFCURVE",
"266 50 CURVE SMOOTH",
"183 50 OFFCURVE",
"143 108 OFFCURVE",
"143 227 CURVE SMOOTH",
"143 521 LINE",
"75 521 LINE"
);
}
);
width = 600;
}
);
rightKerningGroup = numbersign;
unicode = 03BC;
},
{
glyphname = pi;
lastChange = "2015-06-14 21:07:22 +0000";
layers = (
{
layerId = "1FDD38BC-4CDE-4118-9AAB-E6BB464D5960";
name = Regular;
paths = (
{
closed = 1;
nodes = (
"371 459 LINE",
"371 95 LINE SMOOTH",
"371 32 OFFCURVE",
"410 -6 OFFCURVE",
"470 -6 CURVE SMOOTH",
"497 -6 OFFCURVE",
"538 2 OFFCURVE",
"564 12 CURVE",
"552 67 LINE",
"535 60 OFFCURVE",
"513 56 OFFCURVE",
"498 56 CURVE SMOOTH",
"460 56 OFFCURVE",
"437 79 OFFCURVE",
"437 118 CURVE SMOOTH",
"437 459 LINE",
"547 459 LINE",
"547 521 LINE",
"25 521 LINE",
"25 459 LINE",
"105 459 LINE",
"105 0 LINE",
"171 0 LINE",
"171 459 LINE"
);
}
);
width = 589;
}
);
leftKerningGroup = pi;
rightKerningGroup = pi;
unicode = 03C0;
},
{
glyphname = dotbelow;
lastChange = "2015-06-14 21:07:22 +0000";
layers = (
{
layerId = "1FDD38BC-4CDE-4118-9AAB-E6BB464D5960";
name = Regular;
paths = (
{
closed = 1;
nodes = (
"107 -166 OFFCURVE",
"129 -144 OFFCURVE",
"129 -116 CURVE SMOOTH",
"129 -89 OFFCURVE",
"107 -66 OFFCURVE",
"79 -66 CURVE SMOOTH",
"51 -66 OFFCURVE",
"29 -89 OFFCURVE",
"29 -116 CURVE SMOOTH",
"29 -144 OFFCURVE",
"51 -166 OFFCURVE",
"79 -166 CURVE SMOOTH"
);
}
);
width = 162;
}
);
rightKerningGroup = numbersign;
},
{
glyphname = Hdotbelow;
lastChange = "2015-06-14 21:07:22 +0000";
layers = (
{
components = (
{
name = dotbelow;
transform = "{1, 0, 0, 1, 293, 0}";
}
);
layerId = "1FDD38BC-4CDE-4118-9AAB-E6BB464D5960";
name = Regular;
paths = (
{
closed = 1;
nodes = (
"580 710 LINE",
"580 394 LINE",
"159 394 LINE",
"159 710 LINE",
"89 710 LINE",
"89 0 LINE",
"159 0 LINE",
"159 332 LINE",
"580 332 LINE",
"580 0 LINE",
"649 0 LINE",
"649 710 LINE"
);
}
);
width = 738;
}
);
leftKerningGroup = B;
rightKerningGroup = H;
unicode = 1E24;
},
{
glyphname = hdotbelow;
lastChange = "2015-06-14 21:07:22 +0000";
layers = (
{
components = (
{
name = dotbelow;
transform = "{1, 0, 0, 1, 219, 0}";
}
);
layerId = "1FDD38BC-4CDE-4118-9AAB-E6BB464D5960";
name = Regular;
paths = (
{
closed = 1;
nodes = (
"513 305 LINE SMOOTH",
"513 439 OFFCURVE",
"467 530 OFFCURVE",
"348 530 CURVE SMOOTH",
"263 530 OFFCURVE",
"184 481 OFFCURVE",
"143 403 CURVE",
"143 730 LINE",
"75 730 LINE",
"75 0 LINE",
"143 0 LINE",
"143 319 LINE",
"167 404 OFFCURVE",
"248 468 OFFCURVE",
"325 468 CURVE SMOOTH",
"403 468 OFFCURVE",
"445 409 OFFCURVE",
"445 291 CURVE SMOOTH",
"445 0 LINE",
"513 0 LINE"
);
}
);
width = 583;
}
);
leftKerningGroup = b;
rightKerningGroup = h;
unicode = 1E25;
},
{
glyphname = Ndotaccent;
lastChange = "2015-06-14 21:07:22 +0000";
layers = (
{
components = (
{
name = dotaccent;
transform = "{1, 0, 0, 1, 309, 186}";
}
);
layerId = "1FDD38BC-4CDE-4118-9AAB-E6BB464D5960";
name = Regular;
paths = (
{
closed = 1;
nodes = (
"622 0 LINE",
"683 0 LINE",
"683 709 LINE",
"613 709 LINE",
"613 119 LINE",
"143 710 LINE",
"89 710 LINE",
"89 0 LINE",
"159 0 LINE",
"159 580 LINE"
);
}
);
width = 772;
}
);
leftKerningGroup = B;
rightKerningGroup = H;
unicode = 1E44;
},
{
glyphname = ndotaccent;
lastChange = "2015-06-14 21:07:22 +0000";
layers = (
{
components = (
{
name = dotaccent;
transform = "{1, 0, 0, 1, 210, 0}";
}
);
layerId = "1FDD38BC-4CDE-4118-9AAB-E6BB464D5960";
name = Regular;
paths = (
{
closed = 1;
nodes = (
"513 305 LINE SMOOTH",
"513 442 OFFCURVE",
"474 530 OFFCURVE",
"358 530 CURVE SMOOTH",
"265 530 OFFCURVE",
"179 479 OFFCURVE",
"137 403 CURVE",
"137 521 LINE",
"75 521 LINE",
"75 0 LINE",
"143 0 LINE",
"143 319 LINE",
"168 405 OFFCURVE",
"253 468 OFFCURVE",
"333 468 CURVE SMOOTH",
"409 468 OFFCURVE",
"445 414 OFFCURVE",
"445 291 CURVE SMOOTH",
"445 0 LINE",
"513 0 LINE"
);
}
);
width = 583;
}
);
leftKerningGroup = m;
rightKerningGroup = m;
unicode = 1E45;
},
{
glyphname = Rdotbelow;
lastChange = "2015-06-14 21:07:22 +0000";
layers = (
{
components = (
{
name = dotbelow;
transform = "{1, 0, 0, 1, 244, 0}";
}
);
layerId = "1FDD38BC-4CDE-4118-9AAB-E6BB464D5960";
name = Regular;
paths = (
{
closed = 1;
nodes = (
"159 0 LINE",
"159 262 LINE",
"369 262 LINE",
"536 0 LINE",
"615 0 LINE",
"441 274 LINE",
"536 293 OFFCURVE",
"599 384 OFFCURVE",
"599 487 CURVE SMOOTH",
"599 597 OFFCURVE",
"511 710 OFFCURVE",
"389 710 CURVE SMOOTH",
"89 710 LINE",
"89 0 LINE"
);
},
{
closed = 1;
nodes = (
"159 648 LINE",
"385 648 LINE SMOOTH",
"463 648 OFFCURVE",
"529 573 OFFCURVE",
"529 487 CURVE SMOOTH",
"529 403 OFFCURVE",
"475 324 OFFCURVE",
"391 324 CURVE SMOOTH",
"159 324 LINE"
);
}
);
width = 653;
}
);
leftKerningGroup = B;
rightKerningGroup = R;
unicode = 1E5A;
},
{
glyphname = rdotbelow;
lastChange = "2015-06-14 21:07:22 +0000";
layers = (
{
components = (
{
name = dotbelow;
transform = "{1, 0, 0, 1, 31, 0}";
}
);
layerId = "1FDD38BC-4CDE-4118-9AAB-E6BB464D5960";
name = Regular;
paths = (
{
closed = 1;
nodes = (
"335 523 LINE",
"330 524 OFFCURVE",
"327 524 OFFCURVE",
"322 524 CURVE SMOOTH",
"248 524 OFFCURVE",
"178 476 OFFCURVE",
"139 396 CURVE",
"139 521 LINE",
"75 521 LINE",
"75 0 LINE",
"143 0 LINE",
"143 324 LINE",
"171 408 OFFCURVE",
"244 458 OFFCURVE",
"335 461 CURVE"
);
}
);
width = 351;
}
);
leftKerningGroup = m;
rightKerningGroup = r;
unicode = 1E5B;
},
{
glyphname = Sdotbelow;
lastChange = "2015-06-14 21:07:22 +0000";
layers = (
{
components = (
{
name = dotbelow;
transform = "{1, 0, 0, 1, 244, 0}";
}
);
layerId = "1FDD38BC-4CDE-4118-9AAB-E6BB464D5960";
name = Regular;
paths = (
{
closed = 1;
nodes = (
"538 633 LINE",
"479 685 OFFCURVE",
"405 715 OFFCURVE",
"311 715 CURVE SMOOTH",
"163 715 OFFCURVE",
"58 643 OFFCURVE",
"58 511 CURVE SMOOTH",
"58 396 OFFCURVE",
"137 360 OFFCURVE",
"285 326 CURVE SMOOTH",
"426 294 OFFCURVE",
"499 266 OFFCURVE",
"499 179 CURVE SMOOTH",
"499 97 OFFCURVE",
"432 56 OFFCURVE",
"319 56 CURVE SMOOTH",
"211 56 OFFCURVE",
"118 100 OFFCURVE",
"67 154 CURVE",
"32 97 LINE",
"111 29 OFFCURVE",
"207 -6 OFFCURVE",
"317 -6 CURVE SMOOTH",
"466 -6 OFFCURVE",
"573 55 OFFCURVE",
"573 186 CURVE SMOOTH",
"573 313 OFFCURVE",
"478 352 OFFCURVE",
"327 385 CURVE SMOOTH",
"190 415 OFFCURVE",
"130 437 OFFCURVE",
"130 521 CURVE SMOOTH",
"130 602 OFFCURVE",
"185 653 OFFCURVE",
"310 653 CURVE SMOOTH",
"395 653 OFFCURVE",
"464 622 OFFCURVE",
"504 577 CURVE"
);
}
);
width = 607;
}
);
leftKerningGroup = S;
rightKerningGroup = S;
unicode = 1E62;
},
{
glyphname = sdotbelow;
lastChange = "2015-06-14 21:07:22 +0000";
layers = (
{
components = (
{
name = dotbelow;
transform = "{1, 0, 0, 1, 172, 0}";
}
);
layerId = "1FDD38BC-4CDE-4118-9AAB-E6BB464D5960";
name = Regular;
paths = (
{
closed = 1;
nodes = (
"371 -10 OFFCURVE",
"451 51 OFFCURVE",
"451 146 CURVE SMOOTH",
"451 235 OFFCURVE",
"382 261 OFFCURVE",
"248 293 CURVE SMOOTH",
"155 315 OFFCURVE",
"118 327 OFFCURVE",
"118 382 CURVE SMOOTH",
"118 450 OFFCURVE",
"175 479 OFFCURVE",
"246 479 CURVE SMOOTH",
"305 479 OFFCURVE",
"364 459 OFFCURVE",
"403 419 CURVE",
"436 459 LINE",
"396 501 OFFCURVE",
"328 530 OFFCURVE",
"248 530 CURVE SMOOTH",
"141 530 OFFCURVE",
"53 477 OFFCURVE",
"53 372 CURVE SMOOTH",
"53 290 OFFCURVE",
"107 269 OFFCURVE",
"228 239 CURVE SMOOTH",
"333 214 OFFCURVE",
"385 198 OFFCURVE",
"385 140 CURVE SMOOTH",
"385 78 OFFCURVE",
"330 42 OFFCURVE",
"247 42 CURVE SMOOTH",
"178 42 OFFCURVE",
"118 66 OFFCURVE",
"60 114 CURVE",
"29 68 LINE",
"85 17 OFFCURVE",
"167 -10 OFFCURVE",
"248 -10 CURVE SMOOTH"
);
}
);
width = 487;
}
);
leftKerningGroup = s;
rightKerningGroup = s;
unicode = 1E63;
},
{
glyphname = Tdotbelow;
lastChange = "2015-06-14 21:07:22 +0000";
layers = (
{
components = (
{
name = dotbelow;
transform = "{1, 0, 0, 1, 231, 0}";
}
);
layerId = "1FDD38BC-4CDE-4118-9AAB-E6BB464D5960";
name = Regular;
paths = (
{
closed = 1;
nodes = (
"593 710 LINE",
"17 710 LINE",
"17 648 LINE",
"270 648 LINE",
"270 0 LINE",
"340 0 LINE",
"340 648 LINE",
"593 648 LINE"
);
}
);
width = 610;
}
);
leftKerningGroup = T;
rightKerningGroup = T;
unicode = 1E6C;
},
{
glyphname = Edotbelow;
lastChange = "2015-06-14 21:07:22 +0000";
layers = (
{
components = (
{
name = dotbelow;
transform = "{1, 0, 0, 1, 244, 0}";
}
);
layerId = "1FDD38BC-4CDE-4118-9AAB-E6BB464D5960";
name = Regular;
paths = (
{
closed = 1;
nodes = (
"159 62 LINE",
"159 333 LINE",
"506 333 LINE",
"506 392 LINE",
"159 392 LINE",
"159 648 LINE",
"557 648 LINE",
"557 710 LINE",
"89 710 LINE",
"89 0 LINE",
"566 0 LINE",
"566 62 LINE"
);
}
);
width = 609;
}
);
leftKerningGroup = B;
rightKerningGroup = E;
unicode = 1EB8;
},
{
glyphname = edotbelow;
lastChange = "2015-06-14 21:07:22 +0000";
layers = (
{
components = (
{
name = dotbelow;
transform = "{1, 0, 0, 1, 222, 0}";
}
);
layerId = "1FDD38BC-4CDE-4118-9AAB-E6BB464D5960";
name = Regular;
paths = (
{
closed = 1;
nodes = (
"401 -10 OFFCURVE",
"490 44 OFFCURVE",
"522 120 CURVE",
"463 136 LINE",
"438 80 OFFCURVE",
"371 42 OFFCURVE",
"303 42 CURVE SMOOTH",
"203 42 OFFCURVE",
"119 124 OFFCURVE",
"110 236 CURVE",
"556 236 LINE",
"557 240 OFFCURVE",
"557 253 OFFCURVE",
"557 263 CURVE SMOOTH",
"557 406 OFFCURVE",
"452 530 OFFCURVE",
"299 530 CURVE SMOOTH",
"149 530 OFFCURVE",
"39 408 OFFCURVE",
"39 262 CURVE SMOOTH",
"39 114 OFFCURVE",
"149 -10 OFFCURVE",
"300 -10 CURVE SMOOTH"
);
},
{
closed = 1;
nodes = (
"109 288 LINE",
"116 398 OFFCURVE",
"198 477 OFFCURVE",
"300 477 CURVE SMOOTH",
"402 477 OFFCURVE",
"483 399 OFFCURVE",
"492 288 CURVE"
);
}
);
width = 587;
}
);
leftKerningGroup = c;
rightKerningGroup = e;
unicode = 1EB9;
},
{
glyphname = Etilde;
lastChange = "2015-06-14 21:07:22 +0000";
layers = (
{
layerId = "1FDD38BC-4CDE-4118-9AAB-E6BB464D5960";
name = Regular;
paths = (
{
closed = 1;
nodes = (
"159 62 LINE",
"159 333 LINE",
"506 333 LINE",
"506 392 LINE",
"159 392 LINE",
"159 648 LINE",
"557 648 LINE",
"557 710 LINE",
"89 710 LINE",
"89 0 LINE",
"566 0 LINE",
"566 62 LINE"
);
},
{
closed = 1;
nodes = (
"480 825 OFFCURVE",
"497 904 OFFCURVE",
"497 917 CURVE",
"455 917 LINE",
"455 913 OFFCURVE",
"450 868 OFFCURVE",
"398 868 CURVE SMOOTH",
"348 868 OFFCURVE",
"326 910 OFFCURVE",
"270 910 CURVE SMOOTH",
"195 910 OFFCURVE",
"179 831 OFFCURVE",
"179 817 CURVE",
"221 817 LINE",
"221 822 OFFCURVE",
"227 865 OFFCURVE",
"271 865 CURVE SMOOTH",
"313 865 OFFCURVE",
"339 825 OFFCURVE",
"399 825 CURVE SMOOTH"
);
}
);
width = 609;
}
);
leftKerningGroup = B;
rightKerningGroup = E;
unicode = 1EBC;
},
{
glyphname = etilde;
lastChange = "2015-06-14 21:07:22 +0000";
layers = (
{
layerId = "1FDD38BC-4CDE-4118-9AAB-E6BB464D5960";
name = Regular;
paths = (
{
closed = 1;
nodes = (
"401 -10 OFFCURVE",
"490 44 OFFCURVE",
"522 120 CURVE",
"463 136 LINE",
"438 80 OFFCURVE",
"371 42 OFFCURVE",
"303 42 CURVE SMOOTH",
"203 42 OFFCURVE",
"119 124 OFFCURVE",
"110 236 CURVE",
"556 236 LINE",
"557 240 OFFCURVE",
"557 253 OFFCURVE",
"557 263 CURVE SMOOTH",
"557 406 OFFCURVE",
"452 530 OFFCURVE",
"299 530 CURVE SMOOTH",
"149 530 OFFCURVE",
"39 408 OFFCURVE",
"39 262 CURVE SMOOTH",
"39 114 OFFCURVE",
"149 -10 OFFCURVE",
"300 -10 CURVE SMOOTH"
);
},
{
closed = 1;
nodes = (
"109 288 LINE",
"116 398 OFFCURVE",
"198 477 OFFCURVE",
"300 477 CURVE SMOOTH",
"402 477 OFFCURVE",
"483 399 OFFCURVE",
"492 288 CURVE"
);
},
{
closed = 1;
nodes = (
"440 638 OFFCURVE",
"457 717 OFFCURVE",
"457 730 CURVE",
"415 730 LINE",
"415 726 OFFCURVE",
"410 681 OFFCURVE",
"358 681 CURVE SMOOTH",
"308 681 OFFCURVE",
"286 723 OFFCURVE",
"230 723 CURVE SMOOTH",
"155 723 OFFCURVE",
"139 644 OFFCURVE",
"139 630 CURVE",
"181 630 LINE",
"181 635 OFFCURVE",
"187 678 OFFCURVE",
"231 678 CURVE SMOOTH",
"273 678 OFFCURVE",
"299 638 OFFCURVE",
"359 638 CURVE SMOOTH"
);
}
);
width = 587;
}
);
leftKerningGroup = c;
rightKerningGroup = e;
unicode = 1EBD;
},
{
glyphname = Idotbelow;
lastChange = "2015-06-14 21:07:22 +0000";
layers = (
{
components = (
{
name = I;
},
{
name = dotbelow;
transform = "{1, 0, 0, 1, 48, 0}";
}
);
layerId = "1FDD38BC-4CDE-4118-9AAB-E6BB464D5960";
name = Regular;
paths = (
{
closed = 1;
nodes = (
"159 0 LINE",
"159 710 LINE",
"89 710 LINE",
"89 0 LINE"
);
}
);
width = 248;
}
);
leftKerningGroup = B;
rightKerningGroup = H;
unicode = 1ECA;
},
{
glyphname = Odotbelow;
lastChange = "2015-06-14 21:07:22 +0000";
layers = (
{
components = (
{
name = dotbelow;
transform = "{1, 0, 0, 1, 297, 0}";
}
);
layerId = "1FDD38BC-4CDE-4118-9AAB-E6BB464D5960";
name = Regular;
paths = (
{
closed = 1;
nodes = (
"565 -5 OFFCURVE",
"708 165 OFFCURVE",
"708 354 CURVE SMOOTH",
"708 532 OFFCURVE",
"574 715 OFFCURVE",
"376 715 CURVE SMOOTH",
"186 715 OFFCURVE",
"42 544 OFFCURVE",
"42 355 CURVE SMOOTH",
"42 173 OFFCURVE",
"177 -5 OFFCURVE",
"375 -5 CURVE SMOOTH"
);
},
{
closed = 1;
nodes = (
"112 502 OFFCURVE",
"214 651 OFFCURVE",
"375 651 CURVE SMOOTH",
"529 651 OFFCURVE",
"638 509 OFFCURVE",
"638 355 CURVE SMOOTH",
"638 209 OFFCURVE",
"536 58 OFFCURVE",
"375 58 CURVE SMOOTH",
"219 58 OFFCURVE",
"112 201 OFFCURVE",
"112 355 CURVE SMOOTH"
);
}
);
width = 751;
}
);
leftKerningGroup = C;
rightKerningGroup = O;
unicode = 1ECC;
},
{
glyphname = odotbelow;
lastChange = "2015-06-14 21:07:22 +0000";
layers = (
{
components = (
{
name = dotbelow;
transform = "{1, 0, 0, 1, 220, 0}";
}
);
layerId = "1FDD38BC-4CDE-4118-9AAB-E6BB464D5960";
name = Regular;
paths = (
{
closed = 1;
nodes = (
"448 -10 OFFCURVE",
"556 114 OFFCURVE",
"556 259 CURVE SMOOTH",
"556 405 OFFCURVE",
"447 530 OFFCURVE",
"297 530 CURVE SMOOTH",
"148 530 OFFCURVE",
"39 405 OFFCURVE",
"39 259 CURVE SMOOTH",
"39 114 OFFCURVE",
"146 -10 OFFCURVE",
"297 -10 CURVE SMOOTH"
);
},
{
closed = 1;
nodes = (
"108 375 OFFCURVE",
"194 470 OFFCURVE",
"297 470 CURVE SMOOTH",
"401 470 OFFCURVE",
"487 376 OFFCURVE",
"487 260 CURVE SMOOTH",
"487 144 OFFCURVE",
"401 50 OFFCURVE",
"297 50 CURVE SMOOTH",
"193 50 OFFCURVE",
"108 142 OFFCURVE",
"108 258 CURVE SMOOTH"
);
}
);
width = 595;
}
);
leftKerningGroup = c;
rightKerningGroup = o;
unicode = 1ECD;
},
{
glyphname = Udotbelow;
lastChange = "2015-06-14 21:07:22 +0000";
layers = (
{
components = (
{
name = dotbelow;
transform = "{1, 0, 0, 1, 303, 0}";
}
);
layerId = "1FDD38BC-4CDE-4118-9AAB-E6BB464D5960";
name = Regular;
paths = (
{
closed = 1;
nodes = (
"201 58 OFFCURVE",
"148 203 OFFCURVE",
"148 352 CURVE SMOOTH",
"148 710 LINE",
"79 710 LINE",
"79 352 LINE SMOOTH",
"79 171 OFFCURVE",
"153 -5 OFFCURVE",
"378 -5 CURVE SMOOTH",
"596 -5 OFFCURVE",
"677 161 OFFCURVE",
"677 352 CURVE SMOOTH",
"677 710 LINE",
"607 710 LINE",
"607 352 LINE SMOOTH",
"607 207 OFFCURVE",
"557 58 OFFCURVE",
"377 58 CURVE SMOOTH"
);
}
);
width = 755;
}
);
leftKerningGroup = U;
rightKerningGroup = U;
unicode = 1EE4;
},
{
glyphname = Ytilde;
lastChange = "2015-06-14 21:07:22 +0000";
layers = (
{
layerId = "1FDD38BC-4CDE-4118-9AAB-E6BB464D5960";
name = Regular;
paths = (
{
closed = 1;
nodes = (
"16 710 LINE",
"290 266 LINE",
"290 0 LINE",
"360 0 LINE",
"360 264 LINE",
"635 710 LINE",
"559 710 LINE",
"325 328 LINE",
"93 710 LINE"
);
},
{
closed = 1;
nodes = (
"468 825 OFFCURVE",
"485 904 OFFCURVE",
"485 917 CURVE",
"443 917 LINE",
"443 913 OFFCURVE",
"438 868 OFFCURVE",
"386 868 CURVE SMOOTH",
"336 868 OFFCURVE",
"314 910 OFFCURVE",
"258 910 CURVE SMOOTH",
"183 910 OFFCURVE",
"167 831 OFFCURVE",
"167 817 CURVE",
"209 817 LINE",
"209 822 OFFCURVE",
"215 865 OFFCURVE",
"259 865 CURVE SMOOTH",
"301 865 OFFCURVE",
"327 825 OFFCURVE",
"387 825 CURVE SMOOTH"
);
}
);
width = 651;
}
);
leftKerningGroup = Y;
rightKerningGroup = Y;
unicode = 1EF8;
},
{
glyphname = endash;
lastChange = "2015-06-14 21:07:22 +0000";
layers = (
{
layerId = "1FDD38BC-4CDE-4118-9AAB-E6BB464D5960";
name = Regular;
paths = (
{
closed = 1;
nodes = (
"504 241 LINE",
"504 304 LINE",
"65 304 LINE",
"65 241 LINE"
);
}
);
width = 570;
}
);
leftKerningGroup = hyphen;
rightKerningGroup = hyphen;
unicode = 2013;
},
{
glyphname = emdash;
lastChange = "2015-06-14 21:07:22 +0000";
layers = (
{
layerId = "1FDD38BC-4CDE-4118-9AAB-E6BB464D5960";
name = Regular;
paths = (
{
closed = 1;
nodes = (
"836 241 LINE",
"836 304 LINE",
"65 304 LINE",
"65 241 LINE"
);
}
);
width = 901;
}
);
leftKerningGroup = hyphen;
rightKerningGroup = hyphen;
unicode = 2014;
},
{
glyphname = quoteleft;
lastChange = "2015-06-14 21:07:22 +0000";
layers = (
{
layerId = "1FDD38BC-4CDE-4118-9AAB-E6BB464D5960";
name = Regular;
paths = (
{
closed = 1;
nodes = (
"121 731 LINE",
"178 731 LINE",
"111 496 LINE",
"30 496 LINE"
);
}
);
width = 240;
}
);
leftKerningGroup = quoteleft;
rightKerningGroup = quoteleft;
unicode = 2018;
},
{
glyphname = quoteright;
lastChange = "2015-06-14 21:07:22 +0000";
layers = (
{
layerId = "1FDD38BC-4CDE-4118-9AAB-E6BB464D5960";
name = Regular;
paths = (
{
closed = 1;
nodes = (
"117 496 LINE",
"60 496 LINE",
"127 731 LINE",
"208 731 LINE"
);
}
);
width = 240;
}
);
leftKerningGroup = quoteright;
rightKerningGroup = quoteright;
unicode = 2019;
},
{
glyphname = quotesinglbase;
lastChange = "2015-06-14 21:07:22 +0000";
layers = (
{
layerId = "1FDD38BC-4CDE-4118-9AAB-E6BB464D5960";
name = Regular;
paths = (
{
closed = 1;
nodes = (
"113 -140 LINE",
"56 -140 LINE",
"123 95 LINE",
"204 95 LINE"
);
}
);
width = 255;
}
);
leftKerningGroup = comma;
rightKerningGroup = comma;
unicode = 201A;
},
{
glyphname = quotedblleft;
lastChange = "2015-06-14 21:07:22 +0000";
layers = (
{
layerId = "1FDD38BC-4CDE-4118-9AAB-E6BB464D5960";
name = Regular;
paths = (
{
closed = 1;
nodes = (
"271 731 LINE",
"328 731 LINE",
"261 496 LINE",
"180 496 LINE"
);
},
{
closed = 1;
nodes = (
"111 731 LINE",
"168 731 LINE",
"101 496 LINE",
"20 496 LINE"
);
}
);
width = 380;
}
);
leftKerningGroup = quoteleft;
rightKerningGroup = quoteleft;
unicode = 201C;
},
{
glyphname = quotedblright;
lastChange = "2015-06-14 21:07:22 +0000";
layers = (
{
layerId = "1FDD38BC-4CDE-4118-9AAB-E6BB464D5960";
name = Regular;
paths = (
{
closed = 1;
nodes = (
"267 496 LINE",
"210 496 LINE",
"277 731 LINE",
"358 731 LINE"
);
},
{
closed = 1;
nodes = (
"117 496 LINE",
"60 496 LINE",
"127 731 LINE",
"208 731 LINE"
);
}
);
width = 380;
}
);
leftKerningGroup = quoteright;
rightKerningGroup = quoteright;
unicode = 201D;
},
{
glyphname = quotedblbase;
lastChange = "2015-06-14 21:07:22 +0000";
layers = (
{
layerId = "1FDD38BC-4CDE-4118-9AAB-E6BB464D5960";
name = Regular;
paths = (
{
closed = 1;
nodes = (
"232 -131 LINE",
"175 -131 LINE",
"248 125 LINE",
"329 125 LINE"
);
},
{
closed = 1;
nodes = (
"82 -131 LINE",
"25 -131 LINE",
"98 125 LINE",
"179 125 LINE"
);
}
);
width = 380;
}
);
leftKerningGroup = comma;
rightKerningGroup = comma;
unicode = 201E;
},
{
glyphname = dagger;
lastChange = "2015-06-14 21:07:22 +0000";
layers = (
{
layerId = "1FDD38BC-4CDE-4118-9AAB-E6BB464D5960";
name = Regular;
paths = (
{
closed = 1;
nodes = (
"236 -130 LINE",
"236 240 LINE",
"367 240 LINE",
"367 302 LINE",
"236 302 LINE",
"236 775 LINE",
"171 775 LINE",
"171 302 LINE",
"39 302 LINE",
"39 240 LINE",
"171 240 LINE",
"171 -130 LINE"
);
}
);
width = 406;
}
);
rightKerningGroup = numbersign;
unicode = 2020;
},
{
glyphname = daggerdbl;
lastChange = "2015-06-14 21:07:22 +0000";
layers = (
{
layerId = "1FDD38BC-4CDE-4118-9AAB-E6BB464D5960";
name = Regular;
paths = (
{
closed = 1;
nodes = (
"238 -130 LINE",
"238 159 LINE",
"369 159 LINE",
"369 222 LINE",
"238 222 LINE",
"238 332 LINE",
"369 332 LINE",
"369 395 LINE",
"238 395 LINE",
"238 775 LINE",
"173 775 LINE",
"173 395 LINE",
"41 395 LINE",
"41 332 LINE",
"173 332 LINE",
"173 222 LINE",
"41 222 LINE",
"41 159 LINE",
"173 159 LINE",
"173 -130 LINE"
);
}
);
width = 410;
}
);
rightKerningGroup = numbersign;
unicode = 2021;
},
{
glyphname = bullet;
lastChange = "2015-06-14 21:07:22 +0000";
layers = (
{
layerId = "1FDD38BC-4CDE-4118-9AAB-E6BB464D5960";
name = Regular;
paths = (
{
closed = 1;
nodes = (
"273 399 OFFCURVE",
"230 441 OFFCURVE",
"178 441 CURVE SMOOTH",
"126 441 OFFCURVE",
"83 397 OFFCURVE",
"83 346 CURVE SMOOTH",
"83 293 OFFCURVE",
"126 251 OFFCURVE",
"178 251 CURVE SMOOTH",
"230 251 OFFCURVE",
"273 293 OFFCURVE",
"273 346 CURVE SMOOTH"
);
}
);
width = 351;
}
);
rightKerningGroup = numbersign;
unicode = 2022;
},
{
glyphname = ellipsis;
lastChange = "2015-06-14 21:07:22 +0000";
layers = (
{
layerId = "1FDD38BC-4CDE-4118-9AAB-E6BB464D5960";
name = Regular;
paths = (
{
closed = 1;
nodes = (
"308 -4 OFFCURVE",
"328 16 OFFCURVE",
"328 41 CURVE",
"328 66 OFFCURVE",
"308 86 OFFCURVE",
"283 86 CURVE SMOOTH",
"258 86 OFFCURVE",
"238 66 OFFCURVE",
"238 41 CURVE SMOOTH",
"238 16 OFFCURVE",
"258 -4 OFFCURVE",
"283 -4 CURVE SMOOTH"
);
},
{
closed = 1;
nodes = (
"132 -5 OFFCURVE",
"152 15 OFFCURVE",
"152 40 CURVE SMOOTH",
"152 65 OFFCURVE",
"132 85 OFFCURVE",
"107 85 CURVE SMOOTH",
"82 85 OFFCURVE",
"62 65 OFFCURVE",
"62 40 CURVE SMOOTH",
"62 15 OFFCURVE",
"82 -5 OFFCURVE",
"107 -5 CURVE SMOOTH"
);
},
{
closed = 1;
nodes = (
"486 -4 OFFCURVE",
"506 16 OFFCURVE",
"506 41 CURVE SMOOTH",
"506 66 OFFCURVE",
"486 86 OFFCURVE",
"461 86 CURVE SMOOTH",
"436 86 OFFCURVE",
"416 66 OFFCURVE",
"416 41 CURVE SMOOTH",
"416 16 OFFCURVE",
"436 -4 OFFCURVE",
"461 -4 CURVE SMOOTH"
);
}
);
width = 528;
}
);
leftKerningGroup = comma;
rightKerningGroup = numbersign;
unicode = 2026;
},
{
glyphname = perthousand;
lastChange = "2015-06-14 21:07:22 +0000";
layers = (
{
layerId = "1FDD38BC-4CDE-4118-9AAB-E6BB464D5960";
name = Regular;
paths = (
{
closed = 1;
nodes = (
"279 433 OFFCURVE",
"345 497 OFFCURVE",
"345 576 CURVE SMOOTH",
"345 656 OFFCURVE",
"279 720 OFFCURVE",
"196 720 CURVE SMOOTH",
"113 720 OFFCURVE",
"46 656 OFFCURVE",
"46 576 CURVE SMOOTH",
"46 497 OFFCURVE",
"113 433 OFFCURVE",
"196 433 CURVE SMOOTH"
);
},
{
closed = 1;
nodes = (
"143 472 OFFCURVE",
"97 519 OFFCURVE",
"97 576 CURVE SMOOTH",
"97 631 OFFCURVE",
"141 680 OFFCURVE",
"196 680 CURVE SMOOTH",
"248 680 OFFCURVE",
"294 634 OFFCURVE",
"294 576 CURVE SMOOTH",
"294 521 OFFCURVE",
"250 472 OFFCURVE",
"196 472 CURVE SMOOTH"
);
},
{
closed = 1;
nodes = (
"614 -10 OFFCURVE",
"681 54 OFFCURVE",
"681 134 CURVE SMOOTH",
"681 213 OFFCURVE",
"614 277 OFFCURVE",
"531 277 CURVE SMOOTH",
"449 277 OFFCURVE",
"382 213 OFFCURVE",
"382 134 CURVE SMOOTH",
"382 54 OFFCURVE",
"449 -10 OFFCURVE",
"531 -10 CURVE SMOOTH"
);
},
{
closed = 1;
nodes = (
"478 30 OFFCURVE",
"433 76 OFFCURVE",
"433 134 CURVE SMOOTH",
"433 189 OFFCURVE",
"477 238 OFFCURVE",
"531 238 CURVE SMOOTH",
"583 238 OFFCURVE",
"629 191 OFFCURVE",
"629 134 CURVE SMOOTH",
"629 78 OFFCURVE",
"586 30 OFFCURVE",
"531 30 CURVE SMOOTH"
);
},
{
closed = 1;
nodes = (
"966 -10 OFFCURVE",
"1033 54 OFFCURVE",
"1033 134 CURVE SMOOTH",
"1033 213 OFFCURVE",
"966 277 OFFCURVE",
"883 277 CURVE SMOOTH",
"801 277 OFFCURVE",
"734 213 OFFCURVE",
"734 134 CURVE SMOOTH",
"734 54 OFFCURVE",
"801 -10 OFFCURVE",
"883 -10 CURVE SMOOTH"
);
},
{
closed = 1;
nodes = (
"830 30 OFFCURVE",
"785 76 OFFCURVE",
"785 134 CURVE SMOOTH",
"785 189 OFFCURVE",
"829 238 OFFCURVE",
"883 238 CURVE SMOOTH",
"936 238 OFFCURVE",
"982 191 OFFCURVE",
"982 134 CURVE SMOOTH",
"982 78 OFFCURVE",
"938 30 OFFCURVE",
"883 30 CURVE SMOOTH"
);
},
{
closed = 1;
nodes = (
"105 -4 LINE",
"378 344 LINE",
"657 684 LINE",
"622 714 LINE",
"350 367 LINE",
"71 27 LINE"
);
}
);
width = 1066;
}
);
rightKerningGroup = numbersign;
unicode = 2030;
},
{
glyphname = guilsinglleft;
lastChange = "2015-06-14 21:07:22 +0000";
layers = (
{
layerId = "1FDD38BC-4CDE-4118-9AAB-E6BB464D5960";
name = Regular;
paths = (
{
closed = 1;
nodes = (
"41 239 LINE",
"289 66 LINE",
"289 125 LINE",
"96 259 LINE",
"289 395 LINE",
"289 454 LINE",
"41 276 LINE"
);
}
);
width = 352;
}
);
leftKerningGroup = guillemotleft;
rightKerningGroup = guillemotleft;
unicode = 2039;
},
{
glyphname = guilsinglright;
lastChange = "2015-06-14 21:07:22 +0000";
layers = (
{
layerId = "1FDD38BC-4CDE-4118-9AAB-E6BB464D5960";
name = Regular;
paths = (
{
closed = 1;
nodes = (
"312 276 LINE",
"63 454 LINE",
"63 395 LINE",
"256 259 LINE",
"63 125 LINE",
"63 66 LINE",
"312 239 LINE"
);
}
);
width = 352;
}
);
leftKerningGroup = guillemotright;
rightKerningGroup = guillemotright;
unicode = 203A;
},
{
glyphname = zerosuperior;
lastChange = "2015-06-14 21:07:22 +0000";
layers = (
{
layerId = "1FDD38BC-4CDE-4118-9AAB-E6BB464D5960";
name = Regular;
paths = (
{
closed = 1;
nodes = (
"348 406 OFFCURVE",
"420 510 OFFCURVE",
"420 608 CURVE SMOOTH",
"420 695 OFFCURVE",
"355 810 OFFCURVE",
"230 810 CURVE SMOOTH",
"111 810 OFFCURVE",
"38 704 OFFCURVE",
"38 608 CURVE SMOOTH",
"38 518 OFFCURVE",
"103 406 OFFCURVE",
"230 406 CURVE SMOOTH"
);
},
{
closed = 1;
nodes = (
"84 674 OFFCURVE",
"131 766 OFFCURVE",
"230 766 CURVE SMOOTH",
"322 766 OFFCURVE",
"375 682 OFFCURVE",
"375 608 CURVE SMOOTH",
"375 541 OFFCURVE",
"328 450 OFFCURVE",
"230 450 CURVE SMOOTH",
"135 450 OFFCURVE",
"84 534 OFFCURVE",
"84 608 CURVE SMOOTH"
);
}
);
width = 458;
}
);
rightKerningGroup = numbersign;
unicode = 2070;
},
{
glyphname = foursuperior;
lastChange = "2015-06-14 21:07:22 +0000";
layers = (
{
layerId = "1FDD38BC-4CDE-4118-9AAB-E6BB464D5960";
name = Regular;
paths = (
{
closed = 1;
nodes = (
"297 411 LINE",
"297 514 LINE",
"354 514 LINE",
"354 557 LINE",
"297 557 LINE",
"297 810 LINE",
"266 810 LINE",
"24 556 LINE",
"24 514 LINE",
"252 514 LINE",
"252 411 LINE"
);
},
{
closed = 1;
nodes = (
"253 749 LINE",
"253 557 LINE",
"72 557 LINE"
);
}
);
width = 384;
}
);
rightKerningGroup = numbersign;
unicode = 2074;
},
